<?xml version="1.0" encoding="utf-8"?>
<svg viewBox="0 0 147 147" xmlns="http://www.w3.org/2000/svg" xmlns:xlink="http://www.w3.org/1999/xlink">
  <defs>
    <style>.cls-1{fill:#f2ddc9;}.cls-2{fill:#fff;}.cls-3{fill:#85353a;}.cls-4{fill:#ebc8bc;}.cls-5{fill:#66302b;}</style>
    <symbol id="head10" data-name="head10" viewBox="0 0 147 147">
      <g id="head10-3" data-name="head10">
        <path id="path0_fill" data-name="path0 fill" class="cls-1" d="M147,73.5A73.5,73.5,0,1,1,73.5,0,73.5,73.5,0,0,1,147,73.5Z" style="fill: rgb(255, 255, 255);"/>
        <path id="path69_fill" data-name="path69 fill" class="cls-2" d="M74.8,92.9s30.5,4.7,38.3,8.6,7.9,10.9,7.9,10.9S107.9,120,75,120s-46-7.6-46-7.6.2-7.1,7.9-10.9S74.8,92.9,74.8,92.9Z"/>
        <path id="path70_stroke" data-name="path70 stroke" class="cls-3" d="M74.8,92.9l.2-1h-.3ZM121,112.4l.5.9a1.1,1.1,0,0,0,.5-.9Zm-92,0H28a1.1,1.1,0,0,0,.5.9Zm7.9-10.9-.4-.9h0l.4.9Zm37.9-8.6v1h.1l1.2.2,14.8,2.6c4.3.8,8.8,1.8,12.8,2.8a53,53,0,0,1,9,2.9l.9-1.8a55.6,55.6,0,0,0-9.5-3.1c-3.9-1-8.5-1.9-12.8-2.8L75,91.9h0Zm37.8,9.5a12.6,12.6,0,0,1,6.4,6.4,20.6,20.6,0,0,1,.9,2.6c0,.4.1.7.1,1h2a5,5,0,0,0-.2-1.2,15.8,15.8,0,0,0-.9-3.1,15.4,15.4,0,0,0-7.4-7.4l-.9,1.8Zm8.4,10-.5-.8h0l-2.4,1.1a60.6,60.6,0,0,1-8,2.5c-7.3,1.9-18.7,3.8-35.1,3.8v2c16.5,0,28.1-1.9,35.6-3.8a59.9,59.9,0,0,0,8.2-2.7l2-.8.6-.4h.1ZM75,119c-16.4,0-27.8-1.9-35.1-3.8a60.6,60.6,0,0,1-8-2.5l-1.8-.8-.6-.3h0l-.5.8-.5.9h.2l.5.3,2,.8a59.9,59.9,0,0,0,8.2,2.7c7.5,1.9,19.1,3.8,35.6,3.8Zm-46-6.6h1c0-.3.1-.6.1-1a20.6,20.6,0,0,1,.9-2.6,12.6,12.6,0,0,1,6.4-6.4l-.9-1.8a15.4,15.4,0,0,0-7.4,7.4,15.8,15.8,0,0,0-.9,3.1,5,5,0,0,0-.2,1.2h1Zm8.4-10a53,53,0,0,1,9-2.9c3.9-1,8.4-2,12.6-2.8s10.6-2,16-2.8h0l-.2-1c0-.3-.1-.7-.1-1h-.1l-1.2.2L58.6,94.7c-4.2.9-8.7,1.8-12.7,2.8a57.1,57.1,0,0,0-9.4,3.1Z"/>
        <path id="path71_fill" data-name="path71 fill" class="cls-2" d="M53,97.5,55.1,93c5.9,7.4,14.6,9.9,23,11.9L72.5,114C62.8,110.3,57.2,104.1,53,97.5Z"/>
        <path id="path72_stroke" data-name="path72 stroke" class="cls-3" d="M55.1,93l.8-.6a1,1,0,0,0-1.4-.2c-.2.1-.3.2-.3.4ZM53,97.5l-.9-.4a.9.9,0,0,0,.1,1ZM72.5,114l-.4.9a1.1,1.1,0,0,0,1.3-.4Zm5.6-9.1.8.6a1,1,0,0,0-.3-1.4h-.3l-.2.9ZM54.2,92.6l-2.1,4.5,1.8.8L56,93.4Zm-2,5.5c4.2,6.7,9.9,13,19.9,16.8l.8-1.8c-9.5-3.6-15-9.6-19.1-16.1Zm21.2,16.4,5.5-9-1.7-1.1-5.5,9.1ZM78.3,104c-8.4-2.1-16.7-4.5-22.4-11.6l-1.6,1.2c6.2,7.7,15.2,10.3,23.5,12.3l.5-1.9Z"/>
        <path id="path73_fill" data-name="path73 fill" class="cls-2" d="M94.8,97.1l-.7-2.4c-1.4,2.8-6.3,8.2-13.9,10.2l6.2,9.1C94.8,107.8,95.5,100.4,94.8,97.1Z"/>
        <path id="path74_stroke" data-name="path74 stroke" class="cls-3" d="M94.1,94.7l-.9-.5a1,1,0,0,1,1.3-.5,1.3,1.3,0,0,1,.6.7l-1,.3Zm.7,2.4,1-.2h0l-1,.2ZM86.4,114l.6.8a1.1,1.1,0,0,1-1.4-.2h0l.8-.6Zm-6.2-9.1-.9.6a1,1,0,0,1,.3-1.4h.3l.3.9ZM95.1,94.4l.7,2.5-2,.5-.7-2.5Zm.7,2.5c.7,3.7-.1,11.5-8.8,17.9l-1.2-1.6c8.1-5.9,8.6-13,8-15.9l2-.4ZM85.6,114.6l-6.3-9.1,1.7-1.1,6.3,9ZM79.9,104c7.4-2,12-7.2,13.3-9.8l1.8.9c-1.5,3.1-6.6,8.7-14.6,10.8l-.5-1.9Z"/>
        <path id="path75_fill" data-name="path75 fill" class="cls-4" d="M52.2,45.3V91.5c0,12.3,22.7,15.1,28.1,15.1s16.1-2.8,16.1-15.1V45.3Z"/>
        <path id="path76_stroke" data-name="path76 stroke" class="cls-3" d="M96.4,45.3h1v-1h-1Zm-45.2,0V91.5h2V45.3Zm0,46.2a10.7,10.7,0,0,0,4,8.3,25.3,25.3,0,0,0,8.7,4.8,56.4,56.4,0,0,0,16.4,3v-2a54.7,54.7,0,0,1-15.7-2.9,23.2,23.2,0,0,1-8.1-4.4,8.6,8.6,0,0,1-3.3-6.8Zm29.1,16.1a19.8,19.8,0,0,0,10.6-3.1c3.6-2.4,6.5-6.5,6.5-13h-2c0,5.8-2.5,9.3-5.6,11.3a18.2,18.2,0,0,1-9.5,2.8ZM97.4,91.5V45.3h-2V91.5Zm-1-47.2H52.2v2H96.4Z"/>
        <path id="path77_fill" data-name="path77 fill" class="cls-4" d="M53.2,58.1a4.2,4.2,0,1,0,0,8.4h2.3V58.1Z"/>
        <path id="path78_fill" data-name="path78 fill" class="cls-3" d="M55.5,67.3H53.2a5,5,0,0,1-5-5,5.1,5.1,0,0,1,5-5h2.3v1.6H53.2a3.4,3.4,0,0,0-3.4,3.4h0a3.4,3.4,0,0,0,3.4,3.4h2.3v1.6Z"/>
        <path id="path79_fill" data-name="path79 fill" class="cls-5" d="M81.9,89c-2.4,0-3.1,3.5-4.6,3.9-8.2,2-20.6,2.8-20.6-7.9V78.3a4.3,4.3,0,0,0-4.5-4.7v18c0,12.3,22.8,15,28.1,15s16.1-2.7,16.1-15V90.2c-2,3.5-5.1,4.7-10,2.9C85,92.5,84.3,89,81.9,89Z"/>
        <path id="path80_stroke" data-name="path80 stroke" class="cls-3" d="M77.3,92.9l-.2-1h0ZM52.2,73.6v-1a1.1,1.1,0,0,0-1,1ZM96.4,90.2h1a.9.9,0,0,0-1-1,.9.9,0,0,0-.8.5Zm-10,2.9-.4,1h0ZM81.9,88a4.5,4.5,0,0,0-3.5,2.2l-.8,1.3-.5.4.4,1.9a2.6,2.6,0,0,0,1.6-1.1l1-1.3c.6-1,1.1-1.4,1.8-1.4Zm-4.8,3.9c-4.1,1-9.1,1.7-13,.8a9.1,9.1,0,0,1-4.6-2.3A7.6,7.6,0,0,1,57.7,85h-2A9.8,9.8,0,0,0,58,91.7a10.9,10.9,0,0,0,5.7,3c4.4.9,9.7.2,13.8-.9ZM57.7,85V78.3h-2V85Zm0-6.7a6.2,6.2,0,0,0-.8-3.3,4.9,4.9,0,0,0-2-1.8l-1.8-.6h-.9v2h.5L54,75a2.3,2.3,0,0,1,1.2,1,4.4,4.4,0,0,1,.5,2.3Zm-6.5-4.7v18h2v-18Zm0,18a11,11,0,0,0,4,8.3,27.6,27.6,0,0,0,8.8,4.8,58.5,58.5,0,0,0,16.3,2.9v-2a58,58,0,0,1-15.7-2.8,26.1,26.1,0,0,1-8.1-4.4,9.3,9.3,0,0,1-3.3-6.8Zm29.1,16a19.5,19.5,0,0,0,10.6-3.1c3.7-2.4,6.5-6.4,6.5-12.9h-2c0,5.8-2.5,9.2-5.6,11.3a17.5,17.5,0,0,1-9.5,2.7v2Zm17.1-16V90.2h-2v1.4Zm-1.8-1.9a6.4,6.4,0,0,1-3.4,3,9.2,9.2,0,0,1-5.5-.5L86,94.1a10.9,10.9,0,0,0,6.8.5,8.1,8.1,0,0,0,4.5-3.9l-1.7-1Zm-8.9,2.5-.5-.5-.4-.7-.5-.7A4.1,4.1,0,0,0,81.9,88v2c.6,0,1.1.4,1.8,1.4l.4.7.5.7A3,3,0,0,0,86,94.1Z"/>
        <path id="path81_fill" data-name="path81 fill" class="cls-5" d="M56.4,43.6c1,6,7.2,5.5,7.2,5.5s-1.8-5.6-.8-5.6,7.6,5.6,17.2,5.6H98.8s6.2-7.9-1.5-16.3C92.8,27.8,86.1,24,74,24c-5.2,0-12.9,2.4-14.6,8.3C53.9,30.6,48,34.5,48,40.1V61.9s7.4.5,8.4-5.5V43.6Z"/>
        <path id="path82_stroke" data-name="path82 stroke" class="cls-3" d="M56.4,43.6l1-.2a1,1,0,0,0-1.2-.8,1,1,0,0,0-.8,1Zm7.2,5.5v-1a.1.1,0,0,0-.1.1ZM98.8,49v1a.9.9,0,0,0,.8-.4ZM97.3,32.7,98,32h0Zm-37.9-.4-.3,1a1,1,0,0,0,1.2-.7h0ZM48,61.9H47a.9.9,0,0,0,.9,1Zm8.4-5.5,1,.2v-.2Zm0-3.3h0Zm-1-9.3A7.3,7.3,0,0,0,60,49.6a9,9,0,0,0,3.6.5h.1V48.2h-.8a7.1,7.1,0,0,1-2-.4,5.2,5.2,0,0,1-3.3-4.3Zm8.2,6.3a1.2,1.2,0,0,0,1-.5,2.9,2.9,0,0,0,0-1.5,15.2,15.2,0,0,0-.6-2,9.3,9.3,0,0,1-.4-1.9c-.1-.2-.1-.3-.1-.2a.8.8,0,0,1-.1.3l-.6.2v-2a1.3,1.3,0,0,0-.9.4,1.1,1.1,0,0,0-.3.7,1.7,1.7,0,0,0,0,1,19.4,19.4,0,0,0,.5,2,14.5,14.5,0,0,0,.6,1.9v.3h0c0-.1.1-.2.1-.3a1,1,0,0,1,.8-.5Zm-.8-5.6h-.2l.2.2,1.1.6,3.7,1.9A28.7,28.7,0,0,0,80,50.1v-2a26.7,26.7,0,0,1-11.5-2.7c-1.2-.5-2.4-1.2-3.6-1.8l-1.1-.7-.4-.2-.6-.2v2ZM80,50.1H98.8V48H80ZM98.8,49l.8.6h.1a6.4,6.4,0,0,0,.8-1.4,10.7,10.7,0,0,0,1.4-3.9c.7-3.3.2-7.7-3.9-12.2l-1.4,1.4c3.6,3.9,3.9,7.7,3.4,10.4a19.6,19.6,0,0,1-1.2,3.4,3.5,3.5,0,0,1-.6.9c0,.1-.1.2-.2.3h0ZM98,32c-4.7-5.1-11.6-9-24-9v2c11.9,0,18.3,3.7,22.6,8.4L98,32ZM74,23a21.6,21.6,0,0,0-9,2,11.7,11.7,0,0,0-6.6,7l1.9.6a10.1,10.1,0,0,1,5.5-5.8A21,21,0,0,1,74,25ZM59.7,31.4c-6-1.9-12.7,2.3-12.7,8.7h2c0-4.9,5.2-8.4,10.1-6.8ZM47,40.1V49h2V40.1ZM47,49v5.6h2V49Zm0,5.6v7.3h2V54.6Zm1,7.3v1h.2a4,4,0,0,0,1.1,0,11.8,11.8,0,0,0,2.9-.5,7.2,7.2,0,0,0,5.3-5.8l-1.9-.4a5.5,5.5,0,0,1-4,4.3,10,10,0,0,1-2.4.4,3.4,3.4,0,0,1-1,0h0v1Zm9.4-5.5V54.5h-2v1.9Zm0-1.9h0Zm0-.1V53.1h-2v1.3Zm0-1.4V43.6h-2v9.5Z"/>
        <path id="path83_stroke" data-name="path83 stroke" class="cls-3" d="M78,107v13h2V107Z"/>
        <path id="path84_stroke" data-name="path84 stroke" class="cls-3" d="M79.7,73a1,1,0,0,0-1,1,.9.9,0,0,0,1,1Zm2.1-6.8-1,.3a1,1,0,0,0,1,.7Zm-.1-4a1,1,0,0,0-1.3-.7.9.9,0,0,0-.6,1.2ZM79.7,75h3.5V73H79.7Zm3.5,0a5.1,5.1,0,0,0,3.2-1.4A4.6,4.6,0,0,0,88,70.1H86a2.5,2.5,0,0,1-1,2,3,3,0,0,1-1.8.9ZM88,70.1a4.6,4.6,0,0,0-1.6-3.4,4.8,4.8,0,0,0-3.2-1.5v2a3,3,0,0,1,1.8.9,2.6,2.6,0,0,1,1,2Zm-4.8-4.9H81.8v2h1.4Zm-.5.8-1-3.8-1.9.5,1,3.8Z"/>
        <path id="path85_fill" data-name="path85 fill" class="cls-5" d="M89.7,58.1a1.7,1.7,0,1,0,3.4,0,1.7,1.7,0,1,0-3.4,0Z"/>
        <path id="path86_stroke" data-name="path86 stroke" class="cls-5" d="M91.4,56.4v-1h-.1Zm-2.7,1.7a2.6,2.6,0,0,0,2.7,2.7v-2a.7.7,0,0,1-.7-.7Zm2.7,2.7a2.7,2.7,0,0,0,2.7-2.7h-2a.7.7,0,0,1-.7.7v2Zm2.7-2.7a2.8,2.8,0,0,0-2.7-2.7v2a.8.8,0,0,1,.7.7Zm-2.8-2.7a2.7,2.7,0,0,0-2.6,2.7h2a.7.7,0,0,1,.7-.7v-2Z"/>
        <path id="path87_stroke" data-name="path87 stroke" class="cls-5" d="M95.8,57.4a1,1,0,0,0,1.3-.6,1.1,1.1,0,0,0-.7-1.3h0Zm-9.2-1.9a1,1,0,1,0,.7,1.9l-.7-1.9Zm9.8,0a16.1,16.1,0,0,0-6.9-.6l-2.1.4-.8.2h0l.3,1,.4.9h.1l.5-.2,1.8-.3a15.7,15.7,0,0,1,6.1.5l.6-1.9Z"/>
        <path id="path88_fill" data-name="path88 fill" class="cls-5" d="M71,58.1a1.7,1.7,0,1,1-1.7-1.7A1.8,1.8,0,0,1,71,58.1Z"/>
        <path id="path89_stroke" data-name="path89 stroke" class="cls-5" d="M69.3,56.4v-1h-.1Zm.7,1.7a.7.7,0,0,1-.7.7v2A2.7,2.7,0,0,0,72,58.1Zm-.7.7a.7.7,0,0,1-.7-.7h-2a2.7,2.7,0,0,0,2.7,2.7v-2Zm-.7-.7a.7.7,0,0,1,.7-.7v-2a2.8,2.8,0,0,0-2.7,2.7Zm.6-.7a.8.8,0,0,1,.8.7h2a2.7,2.7,0,0,0-2.6-2.7l-.2,2Z"/>
        <path id="path90_stroke" data-name="path90 stroke" class="cls-5" d="M64.9,55.5a.9.9,0,0,0-.7,1.2.9.9,0,0,0,1.2.7ZM74,57.4a.9.9,0,0,0,1.2-.6,1.1,1.1,0,0,0-.5-1.3L74,57.4Zm-8.6,0a15.8,15.8,0,0,1,6.1-.5l1.8.3.7.2h0l.3-.9.4-1h-.1l-.8-.2-2.1-.4a16.9,16.9,0,0,0-6.8.6l.5,1.9Z"/>
        <path id="path91_stroke" data-name="path91 stroke" class="cls-3" d="M73.5,79.2a.9.9,0,0,0-1,1.6Zm10.6,2.1a1,1,0,1,0-1.2-1.6h0Zm-11.6-.5a21.4,21.4,0,0,0,3,1.7l1.8.7a5.1,5.1,0,0,0,1.7.3v-2l-1.1-.2-1.6-.6-2.8-1.5ZM79,83.5a6.5,6.5,0,0,0,3-.9,7.6,7.6,0,0,0,2.1-1.3l-1.2-1.6-1.8,1.2a4.8,4.8,0,0,1-2.1.6Z"/>
      </g>
    </symbol>
  </defs>
  <title>head9</title>
  <g id="Layer_2" data-name="Layer 2">
    <g id="Layer_1-2" data-name="Layer 1">
      <use width="147" height="147" transform="matrix(1, 0, 0, 1, 0, 0)" xlink:href="#head10"/>
    </g>
  </g>
</svg>