<?xml version="1.0" encoding="utf-8"?>
<svg viewBox="0 0 147 147" xmlns="http://www.w3.org/2000/svg" xmlns:xlink="http://www.w3.org/1999/xlink">
  <defs>
    <style>.cls-1{fill:#f2ddc9;}.cls-2{fill:#dd584a;}.cls-3{fill:#85353a;}.cls-4{fill:#fff;}.cls-5{fill:#fe6067;}.cls-6{fill:#ffa956;}</style>
    <symbol id="head5" data-name="head5" viewBox="0 0 147 147">
      <g id="head5-3" data-name="head5">
        <path id="path0_fill" data-name="path0 fill" class="cls-1" d="M147,73.5A73.5,73.5,0,1,1,73.5,0,73.5,73.5,0,0,1,147,73.5Z" style="fill: rgb(255, 255, 255);"/>
        <path id="path41_fill" data-name="path41 fill" class="cls-2" d="M76.4,22.7a13.3,13.3,0,0,1-4.5,18.1l-5.6,3.3a13,13,0,0,1-18-4.5c-1.9-3.3-5.2-15,7.5-21.4S74.6,19.7,76.4,22.7Z"/>
        <path id="path42_stroke" data-name="path42 stroke" class="cls-3" d="M76.4,22.7l-.9.5h0ZM71.9,40.8l.5.9h0Zm-5.6,3.3-.5-.8h0Zm-18-4.5-.8.5h0Zm7.5-21.4-.5-.9Zm19.7,5A12.3,12.3,0,0,1,71.4,40l1,1.7a14.3,14.3,0,0,0,4.9-19.5ZM71.4,40l-5.6,3.3,1,1.7,5.6-3.3Zm-5.6,3.3a12,12,0,0,1-16.6-4.2l-1.7,1A14,14,0,0,0,66.8,45l-1-1.7ZM49.2,39.1a15,15,0,0,1-1.6-8.9c.4-3.8,2.6-8.1,8.6-11.1l-.9-1.8c-6.6,3.4-9.2,8.2-9.7,12.6a16.7,16.7,0,0,0,1.9,10.2l1.7-1Zm7-20c5.7-2.8,10.1-2.4,13.3-1.1a13.3,13.3,0,0,1,6,5.2l1.8-1a15.4,15.4,0,0,0-7-6c-3.7-1.6-8.8-1.9-15,1.1l.9,1.8Z"/>
        <path id="path186_fill" data-name="path186 fill" class="cls-4" d="M74.4,127.4l-21.2-15h1.6a7.2,7.2,0,0,0,7.2-7.3V67.9H88.8v37.2a7.3,7.3,0,0,0,7.3,7.3"/>
        <path id="path187_stroke" data-name="path187 stroke" class="cls-3" d="M74.4,127.4l-.6.8a1.1,1.1,0,0,0,1.1,0Zm-21.2-15v-1a.9.9,0,0,0-1,1,.9.9,0,0,0,.4.8ZM62,67.9v-1a1,1,0,0,0-1,1Zm26.8,0h1a1,1,0,0,0-1-1Zm7.3,44.5.6.8a1.1,1.1,0,0,0,.2-1.4,1.2,1.2,0,0,0-.8-.4v1ZM74.9,126.5,53.8,111.6l-1.2,1.6,21.2,15,1.1-1.7ZM53.2,113.4h1.6v-2H53.2Zm1.6,0a8.2,8.2,0,0,0,8.2-8.3H61a6.2,6.2,0,0,1-6.2,6.3v2Zm8.2-8.3V67.9H61v37.2ZM62,68.9H88.8v-2H62v2Zm25.8-1v37.2h2V67.9Zm0,37.2a8.2,8.2,0,0,0,8.3,8.3v-2a6.3,6.3,0,0,1-6.3-6.3ZM74.9,128.2l21.8-15-1.2-1.6L73.8,126.5Z"/>
        <path id="path188_fill" data-name="path188 fill" class="cls-4" d="M55.9,46.7V69.5c0,12.2,7.5,31.1,27.7,31.1,5.3,0,15.9-11.2,15.9-27.1V46.7Z"/>
        <path id="path47_stroke" data-name="path47 stroke" class="cls-3" d="M99.5,46.7h1v-1h-1Zm-44.6,0V69.5h2V46.7Zm0,22.8a37,37,0,0,0,6.5,20.7c4.5,6.5,11.7,11.4,22.2,11.4v-2A24,24,0,0,1,63,89a34.8,34.8,0,0,1-6.1-19.5Zm28.7,32.1a9.9,9.9,0,0,0,5.3-2.2,27.8,27.8,0,0,0,5.4-5.8,35.5,35.5,0,0,0,6.2-20.1h-2a33.1,33.1,0,0,1-5.8,18.9,22.1,22.1,0,0,1-5,5.4,7.7,7.7,0,0,1-4.1,1.8Zm16.9-28.1V46.7h-2V73.5Zm-1-27.8H55.9v2H99.5Z"/>
        <path id="path189_stroke" data-name="path189 stroke" class="cls-3" d="M82.7,73.8a1.1,1.1,0,0,0-1,1,1,1,0,0,0,1,1Zm3.5-5.7a.9.9,0,0,0-1,1,1,1,0,0,0,1,1Zm-3.5,7.7h3.5v-2H82.7Zm3.5,0A3.9,3.9,0,0,0,90.1,72h-2a1.9,1.9,0,0,1-1.9,1.8ZM90.1,72a3.9,3.9,0,0,0-3.9-3.9v2A1.9,1.9,0,0,1,88.1,72Z"/>
        <path id="path49_fill" data-name="path49 fill" class="cls-3" d="M75.4,62.7a1.5,1.5,0,1,1-1.5-1.5A1.5,1.5,0,0,1,75.4,62.7Z"/>
        <path id="path50_stroke" data-name="path50 stroke" class="cls-3" d="M74.4,62.7a.5.5,0,0,1-.5.5v2a2.5,2.5,0,0,0,2.5-2.5h-2Zm-.5.5a.5.5,0,0,1-.5-.5h-2a2.5,2.5,0,0,0,2.5,2.5Zm-.5-.5a.5.5,0,0,1,.5-.5v-2a2.5,2.5,0,0,0-2.5,2.5h2Zm.5-.5a.5.5,0,0,1,.5.5h2a2.5,2.5,0,0,0-2.5-2.5Z"/>
        <path id="path51_stroke" data-name="path51 stroke" class="cls-3" d="M69.8,60.1a1,1,0,0,0,0,2Zm9.3,2a1,1,0,0,0,0-2Zm-9.3,0h9.3v-2H69.8Z"/>
        <path id="path190_fill" data-name="path190 fill" class="cls-3" d="M97.1,62.7a1.5,1.5,0,1,1-1.5-1.5A1.5,1.5,0,0,1,97.1,62.7Z"/>
        <path id="path191_stroke" data-name="path191 stroke" class="cls-3" d="M96.1,62.7a.5.5,0,0,1-.5.5v2a2.5,2.5,0,0,0,2.5-2.5h-2Zm-.5.5a.5.5,0,0,1-.5-.5h-2a2.5,2.5,0,0,0,2.5,2.5Zm-.5-.5a.5.5,0,0,1,.5-.5v-2a2.5,2.5,0,0,0-2.5,2.5h2Zm.5-.5a.5.5,0,0,1,.5.5h2a2.5,2.5,0,0,0-2.5-2.5Z"/>
        <path id="path54_stroke" data-name="path54 stroke" class="cls-3" d="M79,58.9a1.1,1.1,0,0,0,1.5-.1,1.1,1.1,0,0,0-.1-1.4ZM65.8,57.4a1,1,0,0,0,1.4,1.5l-1.4-1.5Zm13.9.8.7-.8h-.2l-.4-.3-1.5-.9a11.6,11.6,0,0,0-5.2-1.3v2a9.6,9.6,0,0,1,4.3,1.1l1.2.7.4.3h0l.7-.7Zm-6.6-3.4a12.5,12.5,0,0,0-5.3,1.3,5.6,5.6,0,0,0-1.4.9l-.6.4h0l.7.8a4.6,4.6,0,0,0,.7.7h0l.3-.2,1.2-.7a9.9,9.9,0,0,1,4.4-1.1Z"/>
        <path id="path55_stroke" data-name="path55 stroke" class="cls-3" d="M98.5,58.3a1.1,1.1,0,0,0,1,1,1,1,0,0,0,1-1Zm1-1.4h1a1.1,1.1,0,0,0-.5-.9l-.5.9Zm-11.1.7a1,1,0,0,0,0,1.4,1.1,1.1,0,0,0,1.4,0Zm12.1.7V56.9h-2v1.4ZM100,56a9.8,9.8,0,0,0-4.8-1.3v2a7.8,7.8,0,0,1,3.8,1l1-1.7Zm-4.8-1.3a9.2,9.2,0,0,0-4.9,1.4l-1.4,1-.5.5h0l.7.7.7.7h.1l.3-.3a4.1,4.1,0,0,1,1.1-.7,7.5,7.5,0,0,1,3.9-1.2Z"/>
        <path id="path56_stroke" data-name="path56 stroke" class="cls-3" d="M91.4,60.1a1,1,0,0,0,0,2Zm8.1,2a1,1,0,0,0,0-2Zm-8.1,0h8.1v-2H91.4Z"/>
        <path id="path57_stroke" data-name="path57 stroke" class="cls-3" d="M74.7,81.9a1,1,0,0,0-1,1,.9.9,0,0,0,1,1Zm16.9,2a.9.9,0,0,0,1-1,1,1,0,0,0-1-1Zm-16.9,0h8.7v-2H74.7Zm8.7,0h8.2v-2H83.4Z"/>
        <path id="path58_fill" data-name="path58 fill" class="cls-5" d="M77.4,82.9H89.5s-1.3,4.3-5.2,4.3S77.4,82.9,77.4,82.9Z"/>
        <path id="path59_stroke" data-name="path59 stroke" class="cls-3" d="M77.4,82.9v-1a1,1,0,0,0-1,1,.8.8,0,0,0,.2.6Zm12.1,0,1,.3a1.1,1.1,0,0,0-.7-1.2h-.3Zm-5.2,4.3v1h0Zm-6.9-3.3H89.5v-2H77.4Zm12.1-1-1-.2h0a5.1,5.1,0,0,1-.9,1.6,4.1,4.1,0,0,1-3.3,1.8v2a6.2,6.2,0,0,0,4.9-2.5,9,9,0,0,0,1.2-2.4h.1Zm-5.2,3.3A7.7,7.7,0,0,1,80,84.3l-1.7-1.8h-.1l-.8.5-.8.6h0v.2a18.9,18.9,0,0,0,2,2,9.9,9.9,0,0,0,5.6,2.4Z"/>
        <path id="path192_fill" data-name="path192 fill" class="cls-2" d="M77.1,26.1C66,24.6,57.9,26.9,51.4,34S44,47.6,43.8,55.2c-.4,12.6,2.8,19.7,7.6,25.6,6.9,8.5,10.4,6.4,10.4,6.4V59.1a6.3,6.3,0,0,1,6.3-6.4H82a6.4,6.4,0,0,0,6.3-6.2h.1a6.5,6.5,0,0,0,6.4,6.1h4.7V77s10.8-16.7,4.2-33.7S85.2,29.5,85.2,29.5A17.6,17.6,0,0,0,77.1,26.1Z"/>
        <path id="path193_stroke" data-name="path193 stroke" class="cls-3" d="M77.1,26.1v1h0ZM51.4,34l-.7-.7h0l.7.7ZM43.8,55.2h0Zm7.6,25.6-.8.7h0Zm10.4,6.4.5.9a1.1,1.1,0,0,0,.5-.9ZM88.3,46.5v-1a.9.9,0,0,0-1,.9Zm.1,0h1a.9.9,0,0,0-1-.9v1Zm11.1,6.1h1a1,1,0,0,0-1-1Zm0,24.4h-1a1,1,0,0,0,1,1,1,1,0,0,0,.8-.4Zm4.2-33.7,1-.4ZM85.2,29.5l-.6.8a1,1,0,0,0,.7.2Zm-8-4.4c-11.3-1.5-19.8.8-26.5,8.2l1.5,1.4c6.1-6.8,13.9-9.1,24.8-7.6ZM50.7,33.3c-5.5,6-7.6,14.1-7.9,21.9h2c.2-7.5,2.3-15.1,7.4-20.6l-1.5-1.4ZM42.8,55.2c-.4,12.8,2.8,20.1,7.8,26.3l1.6-1.3c-4.7-5.8-7.8-12.6-7.4-24.9Zm7.8,26.3c3.5,4.3,6.3,6.1,8.3,6.7a5.3,5.3,0,0,0,2.4.2l.7-.2h.3l-.5-.9-.6-.8H61a2.7,2.7,0,0,1-1.5-.1c-1.5-.5-3.9-1.9-7.3-6.1l-1.6,1.3Zm12.2,5.7V83.4h-2v3.8Zm0-3.8V59.1h-2V83.4Zm0-24.3a5.4,5.4,0,0,1,5.3-5.4v-2a7.4,7.4,0,0,0-7.3,7.4Zm5.3-5.4H82v-2H68.1Zm13.9,0a7.4,7.4,0,0,0,7.3-7.2h-2A5.5,5.5,0,0,1,82,51.7Zm6.3-6.2h.1v-2h-.1v2Zm-.9-1a7.4,7.4,0,0,0,7.4,7.1v-2a5.4,5.4,0,0,1-5.4-5.2Zm7.4,7.1h4.7v-2H94.8Zm3.7-1V77h2V52.6Zm1,24.4.8.6h.1v-.2l.3-.5,1.2-2.2a52.8,52.8,0,0,0,3.1-7.8c1.9-6.4,3-15.1-.4-23.9l-1.9.7c3.2,8.2,2.2,16.4.3,22.6a40.1,40.1,0,0,1-2.9,7.5,19,19,0,0,1-1.1,2.1,4.3,4.3,0,0,0-.4.7h0Zm5.2-34.1c-3.2-8.1-8-11.7-12.1-13.3a19.3,19.3,0,0,0-5.3-1.1,4.3,4.3,0,0,0-1.6,0h-.6v2h.5a3.2,3.2,0,0,1,1.4,0,14,14,0,0,1,4.6,1c3.7,1.4,8.1,4.6,11,12.1ZM85.2,29.5l.6-.8h0l-.6-.5-1.8-1a17.3,17.3,0,0,0-6.2-2.1l-.2,2a17.7,17.7,0,0,1,5.5,1.8l1.5,1,.6.4h0Z"/>
        <path id="path194_fill" data-name="path194 fill" class="cls-6" d="M53.2,112.4H43s8.1,16.6,18.8,19.9,12.5-4.9,12.5-4.9l-3.4-2.5Z"/>
        <path id="path195_stroke" data-name="path195 stroke" class="cls-3" d="M53.2,112.4l.6-.8-.3-.2h-.3Zm-10.2,0v-1H41.4l.7,1.4Zm18.8,19.9.3-1h0l-.3,1Zm12.5-4.9,1,.3.2-.7-.6-.4Zm-3.4-2.5.6-.8h0ZM53.2,111.4H43v2H53.2Zm-10.2,1-.9.4h0a.3.3,0,0,0,.1.2,20.1,20.1,0,0,0,1.4,2.5,50.4,50.4,0,0,0,4,6.2c3.3,4.6,8.2,9.8,13.9,11.5l.6-1.9c-5.1-1.5-9.6-6.3-12.9-10.8a57.9,57.9,0,0,1-4.9-7.9,2.1,2.1,0,0,1-.4-.6h0Zm18.5,20.8c5.4,1.7,8.9.4,11-1.4a8.6,8.6,0,0,0,2.6-3.7l.2-.4h0l-1-.3-1-.3h0v.3a8.6,8.6,0,0,1-2.1,2.9c-1.6,1.3-4.3,2.5-9.1,1Zm13.4-6.6-3.4-2.5-1.2,1.7,3.4,2.4Zm-3.4-2.5L53.8,111.6l-1.2,1.6,17.7,12.6Z"/>
        <path id="path196_fill" data-name="path196 fill" class="cls-6" d="M95.8,112.4H106S98,129,87.3,132.3s-12.5-4.9-12.5-4.9l3.4-2.5Z"/>
        <path id="path197_stroke" data-name="path197 stroke" class="cls-3" d="M95.8,112.4v-1h-.3l-.3.2Zm10.2,0,.9.4.7-1.4H106ZM87.3,132.3l-.2-1h0l.2,1Zm-12.5-4.9-.6-.8-.6.4.2.7Zm3.4-2.5-.6-.8h0Zm17.6-11.5H106v-2H95.8Zm10.2-1-.9-.4H105c-.4.8-.8,1.6-1.3,2.4a61,61,0,0,1-3.8,6c-3.3,4.5-7.8,9.3-12.8,10.8l.5,1.9c5.7-1.7,10.5-6.9,13.9-11.5a67.9,67.9,0,0,0,5-8.1,4.3,4.3,0,0,1,.4-.7h0ZM87.1,131.3c-4.9,1.5-7.6.3-9.2-1a7.8,7.8,0,0,1-2.1-3.1h0l-1,.3-1,.3h.1a.4.4,0,0,0,.1.3,8.6,8.6,0,0,0,2.6,3.7c2.1,1.8,5.6,3.1,11,1.4l-.5-1.9Zm-11.7-3.1,3.4-2.4-1.2-1.7-3.4,2.5,1.2,1.6Zm3.4-2.4,17.6-12.6-1.2-1.6L77.6,124.1l1.2,1.7Z"/>
        <path id="path62_stroke" data-name="path62 stroke" class="cls-3" d="M85.1,28.5a1,1,0,0,0,0,2Zm2.2,18a1,1,0,0,0,1,1,1.1,1.1,0,0,0,1-1Zm-2.2-16h-.4a.1.1,0,0,1,.1.1,3.8,3.8,0,0,1,.5,1.1,37.8,37.8,0,0,1,1,4.2,67.7,67.7,0,0,1,1,10.7h2a61.2,61.2,0,0,0-1.1-11,28.1,28.1,0,0,0-1-4.5,5.9,5.9,0,0,0-.7-1.6,1.2,1.2,0,0,0-.5-.5,1.1,1.1,0,0,0-.9-.4Z"/>
        <path id="path63_stroke" data-name="path63 stroke" class="cls-3" d="M58.1,30.8a.9.9,0,0,0-.4,1.3,1,1,0,0,0,1.4.4Zm4.7-.1a1,1,0,0,0,.5-1.3,1,1,0,0,0-1.2-.6Zm-3.7,1.8a25.3,25.3,0,0,1,3.7-1.8l-.7-1.9a24.9,24.9,0,0,0-4,2Z"/>
        <path id="path64_stroke" data-name="path64 stroke" class="cls-3" d="M58.5,85a1,1,0,0,0,1-1.8Zm-4.9-5.9.7-.7h0Zm-7-23.8h0Zm6.9-19.5.7.7h0Zm3-1.5a1,1,0,1,0-1.3-1.6l1.3,1.6Zm3,48.9a17.7,17.7,0,0,1-5.2-4.8l-1.5,1.3A22.2,22.2,0,0,0,58.5,85Zm-5.2-4.8c-6.3-7.7-6.9-15.6-6.7-23.1h-2c-.2,7.7.4,16.2,7.2,24.5l1.5-1.3ZM47.6,55.3c.1-5.5,1.5-13.2,6.6-18.8l-1.5-1.4c-5.6,6.2-7,14.5-7.1,20.1Zm6.6-18.8a15.8,15.8,0,0,1,2.3-2.2l-1.3-1.6a29.5,29.5,0,0,0-2.5,2.5l1.5,1.3Z"/>
        <path id="path65_stroke" data-name="path65 stroke" class="cls-3" d="M86.5,46.9a1.2,1.2,0,0,0-.9-1.2,1.2,1.2,0,0,0-1.1.9ZM58.3,56.6a1,1,0,0,0,.7,1.2,1.1,1.1,0,0,0,1.3-.7h0Zm26.2-10A2.7,2.7,0,0,1,82,48.9v2a4.6,4.6,0,0,0,4.5-4ZM82,48.9H68.1v2H82v-2Zm-13.9,0a10.2,10.2,0,0,0-9.8,7.7l2,.5a7.9,7.9,0,0,1,7.8-6.2v-2Z"/>
        <path id="path66_stroke" data-name="path66 stroke" class="cls-3" d="M99.5,50.8a.9.9,0,0,0,1-1,1,1,0,0,0-1-1Zm-7.4-4.5a1,1,0,0,0-1-1,1.2,1.2,0,0,0-1,1.1Zm7.4,2.5H94.7v2h4.8Zm-4.8,0a2.6,2.6,0,0,1-2.6-2.5h-2a4.5,4.5,0,0,0,4.6,4.4v-2Z"/>
        <path id="path67_stroke" data-name="path67 stroke" class="cls-3" d="M48.7,36a1.1,1.1,0,0,0,1.3.7,1.1,1.1,0,0,0,.7-1.2Zm1-7.4.9.3h0Zm4.8-5.2a1,1,0,0,0,.2-1.4,1.1,1.1,0,0,0-1.4-.2h0Zm-3.8,12a11.8,11.8,0,0,1-.1-6.5l-1.9-.6a15.3,15.3,0,0,0,0,7.7l2-.5Zm-.1-6.5a10.8,10.8,0,0,1,3.9-5.5l-1.2-1.6a12.7,12.7,0,0,0-4.6,6.5l1.9.6Z"/>
        <path id="path68_stroke" data-name="path68 stroke" class="cls-3" d="M48.8,35.9a.9.9,0,0,0,1,1,1,1,0,0,0,1-1Zm1.9-.2a1,1,0,0,0-1-1,1.1,1.1,0,0,0-1,1Zm.1.2c0-.1-.1-.3-.1-.4h-2a.7.7,0,0,0,.1.5h0v-.3Z"/>
      </g>
    </symbol>
  </defs>
  <title>head5</title>
  <g id="Layer_2" data-name="Layer 2">
    <g id="Layer_1-2" data-name="Layer 1">
      <use width="147" height="147" transform="matrix(1, 0, 0, 1, 0, 0)" xlink:href="#head5"/>
    </g>
  </g>
</svg>