<?xml version="1.0" encoding="utf-8"?>
<svg viewBox="0 0 147 147" xmlns="http://www.w3.org/2000/svg" xmlns:xlink="http://www.w3.org/1999/xlink">
  <defs>
    <style>.cls-1{fill:#f2ddc9;}.cls-2{fill:#fe6067;}.cls-3{fill:#85353a;}.cls-4{fill:#fff;}.cls-5{fill:#f2ece6;}.cls-6{fill:#c1847e;}</style>
    <symbol id="head9" data-name="head9" viewBox="0 0 147 147">
      <g id="head9-3" data-name="head9">
        <path id="path0_fill" data-name="path0 fill" class="cls-1" d="M147,73.5A73.5,73.5,0,1,1,73.5,0,73.5,73.5,0,0,1,147,73.5Z" style="fill: rgb(255, 255, 255);"/>
        <path id="path92_fill" data-name="path92 fill" class="cls-2" d="M72.7,95.3s33,5.1,41.5,9.2,8.6,11.8,8.6,11.8-14.2,8.2-49.9,8.2S23,116.3,23,116.3s.2-7.6,8.6-11.8S72.7,95.3,72.7,95.3Z"/>
        <path id="path93_stroke" data-name="path93 stroke" class="cls-3" d="M72.7,95.3l.2-1h-.3Zm50.1,21,.5.9a1.1,1.1,0,0,0,.5-.9Zm-99.8,0H22a1.1,1.1,0,0,0,.5.9l.5-.9Zm8.6-11.8-.4-.9h0Zm41.1-9.2c0,.3-.1.6-.1,1h.1l1.3.2,16.1,2.8,13.8,3a68.2,68.2,0,0,1,9.8,3.1l.9-1.8a59.5,59.5,0,0,0-10.2-3.2c-4.3-1.1-9.3-2.1-13.9-3S78.8,95.2,73,94.3h-.1Zm41,10.1a14.6,14.6,0,0,1,7,7,11.1,11.1,0,0,1,1,2.9c0,.3.1.7.1,1h2a5.9,5.9,0,0,0-.2-1.3,12.6,12.6,0,0,0-1-3.3,16.5,16.5,0,0,0-8-8l-.9,1.8Zm9.1,10.9-.5-.8h-.1l-.5.3-2.1.9a76.7,76.7,0,0,1-8.6,2.7c-7.9,2.1-20.3,4.1-38.1,4.1v2c17.9,0,30.5-2.1,38.6-4.1a61.8,61.8,0,0,0,8.9-2.9l2.2-.9.6-.4h.1l-.5-.9Zm-49.9,7.2c-17.8,0-30.2-2-38.1-4.1a76.7,76.7,0,0,1-8.6-2.7l-2.1-.9-.6-.3h0l-.5.8-.5.9h.2l.5.3,2.2.9a61.8,61.8,0,0,0,8.9,2.9c8.1,2,20.7,4.1,38.6,4.1v-2ZM23,116.3h1c0-.3.1-.7.1-1a11.1,11.1,0,0,1,1-2.9,14.6,14.6,0,0,1,7-7l-.9-1.8a16.5,16.5,0,0,0-8,8,18,18,0,0,0-1,3.3,5.9,5.9,0,0,0-.2,1.3h1Zm9.1-10.9a68.2,68.2,0,0,1,9.8-3.1l13.6-3c5.8-1.1,11.5-2.1,17.3-3h.1l-.2-1c0-.3-.1-.7-.1-1H71.2c-5.4.9-10.7,1.8-16,2.9s-9.5,1.9-13.8,3a59.5,59.5,0,0,0-10.2,3.2l.9,1.8Z"/>
        <path id="path94_stroke" data-name="path94 stroke" class="cls-3" d="M74.5,105.1a1,1,0,0,0-1.1-.9,1.2,1.2,0,0,0-.9,1.1Zm-.4,5.7h0Zm-1,13.1a.9.9,0,0,0,1,1,1,1,0,0,0,1-1Zm-.6-18.6.6,5.6,2-.2-.6-5.6Zm.6,5.5v13.1h2V110.8Z"/>
        <path id="path95_fill" data-name="path95 fill" class="cls-4" d="M59.6,94.2c-3.4.6-4.8,2-7.1,3.5,0,0,.6,4.9,6,11.1a48,48,0,0,0,9.2,7.9l6.3-6Z"/>
        <path id="path96_stroke" data-name="path96 stroke" class="cls-3" d="M59.6,94.2l.8-.7a1.2,1.2,0,0,0-1-.3Zm-7.1,3.5-.5-.9a1,1,0,0,0-.4,1Zm6,11.1-.8.7h0l.8-.7Zm9.2,7.9-.5.8a.9.9,0,0,0,1.2-.1l-.7-.7Zm6.3-6,.7.8a1.1,1.1,0,0,0,.1-1.4ZM59.4,93.2c-3.6.7-5.3,2.2-7.4,3.6l1.1,1.7c2.4-1.5,3.5-2.7,6.7-3.3l-.4-2Zm-6.9,4.5h-.9V98c0,.2.1.5.1.8a25,25,0,0,0,.9,2.5,29.6,29.6,0,0,0,5.1,8.2l1.6-1.3a28.3,28.3,0,0,1-4.9-7.7,14.2,14.2,0,0,1-.7-2.2,6.4,6.4,0,0,0-.2-.7h-1Zm5.2,11.8a45.7,45.7,0,0,0,6.3,5.8l2.3,1.6.8.6h.1l.5-.8.5-.9H68l-.6-.4-2.2-1.6a48.2,48.2,0,0,1-5.9-5.5Zm10.7,7.9,6.3-5.9L73.3,110,67,116Zm6.4-7.3L60.4,93.5l-1.6,1.3,14.4,16.6,1.6-1.3Z"/>
        <path id="path97_fill" data-name="path97 fill" class="cls-4" d="M88.5,93.6c3.4.6,4.8,2,7.1,3.5,0,0-.6,4.9-6,11.1a44,44,0,0,1-9.2,7.9l-6.3-6Z"/>
        <path id="path98_stroke" data-name="path98 stroke" class="cls-3" d="M88.5,93.6l.2-1a1,1,0,0,0-.9.4Zm7.1,3.5h1a1.2,1.2,0,0,0-.5-1l-.5.9Zm-6,11.1.8.7h0l-.8-.7Zm-9.2,7.9-.7.7a1.1,1.1,0,0,0,1.3.1Zm-6.3-6-.7-.6a1,1,0,0,0,0,1.4ZM88.3,94.6c3.2.6,4.4,1.8,6.7,3.3l1.1-1.7c-2.1-1.3-3.7-2.9-7.4-3.6l-.4,2Zm7.3,2.5H94.5a1.3,1.3,0,0,1-.1.6,14.2,14.2,0,0,1-.7,2.2,28.5,28.5,0,0,1-4.8,7.7l1.5,1.3a30.4,30.4,0,0,0,5.2-8.2c.4-1.1.6-1.9.8-2.5a2.9,2.9,0,0,1,.2-.9h-1Zm-6.7,10.5a47.7,47.7,0,0,1-6,5.5l-2.2,1.6-.8.5h0l.5.8.6.8h.2l2.9-2.1a45.7,45.7,0,0,0,6.3-5.8Zm-7.8,7.8-6.3-6-1.4,1.5,6.3,5.9Zm-6.2-4.6L89.3,94.3,87.8,93,73.4,109.5Z"/>
        <path id="path99_fill" data-name="path99 fill" class="cls-4" d="M94.8,64.7a4.5,4.5,0,0,0,0-9H92.2v9.1h2.6Z"/>
        <path id="path100_stroke" data-name="path100 stroke" class="cls-3" d="M94.8,64.7v-1h-1v1Zm-2.6-9v-1h-1v1Zm0,9.1h-1v1h1Zm2.6,0v1h1v-1Zm0,.9a5.5,5.5,0,0,0,5.5-5.5h-2a3.5,3.5,0,0,1-3.5,3.5Zm5.5-5.5a5.5,5.5,0,0,0-5.5-5.5v2a3.5,3.5,0,0,1,3.5,3.5Zm-5.5-5.5H92.2v2h2.6Zm-3.6,1v9.1h2V55.7Zm1,10.1h2.6v-2H92.2Zm3.6-1h0Z"/>
        <path id="path101_fill" data-name="path101 fill" class="cls-5" d="M48.4,41.7V82.6c0,6.4,5.8,10.4,12.4,12.9a60.6,60.6,0,0,0,18.1,3.4c5.7,0,17.4-3,17.4-16.2V41.8H48.4Z"/>
        <path id="path102_stroke" data-name="path102 stroke" class="cls-3" d="M60.8,95.5l.3-1ZM96.3,41.8h1v-1h-1Zm-47.9,0h-1v1h1Zm-1-.1V82.6h2V41.7Zm0,40.9a11.7,11.7,0,0,0,4,8.7,27.4,27.4,0,0,0,9,5.1l.7-1.9a24.7,24.7,0,0,1-8.3-4.7,9.7,9.7,0,0,1-3.4-7.2Zm13,13.8a64.2,64.2,0,0,0,18.5,3.5v-2a58.5,58.5,0,0,1-17.8-3.4Zm18.5,3.5a21.8,21.8,0,0,0,11.4-3.3c3.9-2.6,7-6.9,7-13.9h-2c0,6.2-2.7,10-6.1,12.2a19.3,19.3,0,0,1-10.3,3v2ZM97.3,82.7V41.8h-2V82.7Zm-1-41.9H48.4v2H96.3Zm-46.9,1h0Z"/>
        <path id="path103_fill" data-name="path103 fill" class="cls-3" d="M93,56.1A1.9,1.9,0,0,1,91.1,58a1.8,1.8,0,0,1-1.8-1.9,1.9,1.9,0,0,1,1.8-1.8A1.9,1.9,0,0,1,93,56.1Z"/>
        <path id="path104_stroke" data-name="path104 stroke" class="cls-3" d="M91.1,54.3v0Zm.9,1.8a.9.9,0,0,1-.9.9v2A2.9,2.9,0,0,0,94,56.1Zm-.9.9a.8.8,0,0,1-.8-.9h-2A2.8,2.8,0,0,0,91.1,59Zm-.8-.9a.8.8,0,0,1,.8-.8v-2a2.8,2.8,0,0,0-2.8,2.8Zm.8-.8a.9.9,0,0,1,.9.8h2a2.9,2.9,0,0,0-2.9-2.8Z"/>
        <path id="path105_stroke" data-name="path105 stroke" class="cls-3" d="M79.6,78.9l.9-.4a1.1,1.1,0,0,0-1.3-.6.9.9,0,0,0-.6.6ZM91,84.8l-.3-1h0l-1.1.2H86.8c-2.1-.4-4.7-1.7-6.3-5.5l-1.9.8c2,4.5,5.2,6.2,7.9,6.6a9.4,9.4,0,0,0,4.4-.1h.4l-.3-.9ZM78.6,78.5c-1.6,3.7-4.9,5.1-8,5.5a20.3,20.3,0,0,1-4.1.2L64.9,84h-.1l-.2.9-.2,1h.2l1.8.3a24.9,24.9,0,0,0,4.5-.2c3.4-.5,7.6-2.1,9.6-6.7l-1.9-.8Z"/>
        <path id="path106_stroke" data-name="path106 stroke" class="cls-3" d="M76.9,67.3a1,1,0,0,0-1,1,1.1,1.1,0,0,0,1,1ZM79.3,62h-1a.9.9,0,0,0,1,1Zm1-6.2a1,1,0,0,0-1-1,.9.9,0,0,0-1,1ZM76.9,69.3h3.9v-2H76.9Zm3.9,0a4.1,4.1,0,0,0,4.1-4.1h-2a2.1,2.1,0,0,1-2.1,2.1h0v2Zm4.1-4.1A4.1,4.1,0,0,0,80.8,61h0v2a2.2,2.2,0,0,1,2.1,2.1h2ZM80.8,61H79.3v2h1.5Zm-.5,1V55.8h-2V62Z"/>
        <path id="path107_fill" data-name="path107 fill" class="cls-3" d="M68.8,56.1a1.9,1.9,0,1,1-3.7,0,1.9,1.9,0,0,1,1.8-1.8A2,2,0,0,1,68.8,56.1Z"/>
        <path id="path108_stroke" data-name="path108 stroke" class="cls-3" d="M66.9,54.3v0Zm.9,1.8a.9.9,0,0,1-.9.9v2a2.8,2.8,0,0,0,2.9-2.9Zm-.9.9a.9.9,0,0,1-.8-.9h-2A2.8,2.8,0,0,0,66.9,59Zm-.8-.9a.9.9,0,0,1,.8-.8v-2a2.8,2.8,0,0,0-2.8,2.8Zm.8-.8a.9.9,0,0,1,.9.8h2a2.9,2.9,0,0,0-2.9-2.8Z"/>
        <path id="path109_fill" data-name="path109 fill" class="cls-3" d="M74.9,51.6a2.1,2.1,0,0,1-2.1,2.1H60.9a2,2,0,0,1-2-2.1h0a2,2,0,0,1,2-2H72.8a2.1,2.1,0,0,1,2.1,2Z"/>
        <path id="path109_fill-2" data-name="path109 fill" class="cls-3" d="M99.2,51.6a2.1,2.1,0,0,1-2.1,2.1H85.2a2.1,2.1,0,0,1-2.1-2.1h0a2.1,2.1,0,0,1,2.1-2H97.1a2.1,2.1,0,0,1,2.1,2Z"/>
        <path id="path110_fill" data-name="path110 fill" class="cls-6" d="M59.9,41.7H96.2c11.2,0,9.3-21.7,9.3-21.7l-9.8,3.7V20H72.3c-5,0-11.8.9-14.7,4.2-.6.7.3,7.1.3,7.1s-2.5-6.3-3.3-5.8c-4.1,2.4-6.3,8.8-6.3,15V93.8a8.6,8.6,0,0,0,.9,3.9c1.7,4,6,6.7,10.8,8.6.5.2.4-4.6.4-4.6s2.6,5.4,3.2,5.8a29.7,29.7,0,0,0,13.7,3.9c4.3,0,8.5-1.5,10.1-3.3a58.3,58.3,0,0,0,2.5-5.5s.6,3.7,1.1,3.3c3.1-2.5,5.3-6.3,5.3-12.2V84.1c0,1.4-4,2-4.8,1.2s-.8-3.2-1.4-4.5a8.8,8.8,0,0,0-2.8-3.3c-2.7-1.9-6.3-2.4-9.5-2.4s-9.9,1-12.2,5.3c-1,1.9-.7,4.1-2.6,5.3s-4,.5-5.5-.3c-3.9-2.1-4.2-10.8-4.2-14.7V56c.9-.8,1.6-3.2,1.9-4.9V45.5a4.4,4.4,0,0,1,4.6-3.8Z"/>
        <path id="path111_stroke" data-name="path111 stroke" class="cls-3" d="M105.5,20h1a1,1,0,0,0-1.1-.9c-.1,0-.2,0-.2.1Zm-9.8,3.7h-1a.9.9,0,0,0,1,1H96l-.3-.9Zm0-3.7h1a1,1,0,0,0-1-1ZM57.6,24.2l.8.6h0Zm.3,7.1-.9.4a1,1,0,0,0,1.3.6,1.1,1.1,0,0,0,.6-1.1Zm-3.3-5.8-.5-.9h0Zm-6.3,31h0Zm.1,9.2h0Zm.9,32-1,.4h0l1-.4Zm10.8,8.6-.3,1h0Zm.4-4.6.9-.4a1.1,1.1,0,0,0-1.4-.5,1.1,1.1,0,0,0-.5.9Zm3.2,5.8-.6.9h.1Zm23.8.6.7.7Zm2.5-5.5,1-.2a1,1,0,0,0-1.1-.8.9.9,0,0,0-.8.6Zm1.1,3.3-.6-.8h0Zm6.3-21.8a.9.9,0,0,0-1-1,1,1,0,0,0-1,1Zm-5.8,1.2.6-.7h0Zm-1.4-4.5,1-.4h-.1Zm-2.8-3.3.6-.8h0ZM65.7,80.4l-.9-.5h0l.9.4Zm-2.6,5.3.5.8h0Zm-5.5-.3-.5.9h0l.5-.9ZM53.4,56l-.7-.8a1.1,1.1,0,0,0-.3.8Zm1.9-4.9,1,.2v-.2Zm0-5.6-1-.2v.2Zm4.6-2.8h.5v-2h-.5v2Zm.5,0H96.2v-2H60.4v2Zm35.8,0a8.3,8.3,0,0,0,7-3.8A19.2,19.2,0,0,0,106,31a43.6,43.6,0,0,0,.6-7.6c0-1.1,0-2.2-.1-3.2V20h-2v.2c.1,1,.1,2.1.1,3.1a50.6,50.6,0,0,1-.5,7.3,18.2,18.2,0,0,1-2.6,7,6.1,6.1,0,0,1-5.3,3v2Zm9-23.6-9.9,3.7.7,1.8,9.9-3.7-.7-1.8Zm-8.5,4.6V20h-2v3.7Zm-1-3.7V19H72.3v2H95.7V20ZM72.3,19a35.4,35.4,0,0,0-8.4.9c-2.7.6-5.4,1.7-7,3.6l1.5,1.3c1.2-1.4,3.4-2.4,6-3a35.9,35.9,0,0,1,7.9-.8V19ZM56.9,23.5a.9.9,0,0,0-.3.5,1.1,1.1,0,0,0-.1.5,3.7,3.7,0,0,0-.1,1.1c0,.7.1,1.6.1,2.5s.3,2.2.4,3.3h0l1-.2h1v-.2c-.2-1-.3-2-.4-3s-.1-1.5-.1-2.3a1.7,1.7,0,0,1,.1-.8h-.1Zm1,7.8,1-.3h-.1v-.2l-1.2-2.9a13,13,0,0,0-1.2-2.1,2.7,2.7,0,0,0-.7-.8l-.5-.4a1.6,1.6,0,0,0-1,.1l1,1.8a.9.9,0,0,1-.7,0h-.1l.3.4a13.9,13.9,0,0,1,1.1,1.9l1.2,2.7v.2h0Zm-3.8-6.7A13.2,13.2,0,0,0,49,31.2a26,26,0,0,0-1.7,9.3h2a24.3,24.3,0,0,1,1.5-8.6,10.7,10.7,0,0,1,4.3-5.5l-1-1.8ZM47.3,40.5v8.9h2V40.5Zm0,8.9v7.1h2V49.4Zm0,7.1v9.2h2V56.5Zm.1,9.2V93.8h2V65.7Zm0,28.1a11.8,11.8,0,0,0,.9,4.3l1.9-.8a8.5,8.5,0,0,1-.8-3.5Zm.9,4.3c1.9,4.4,6.5,7.2,11.5,9.2l.7-1.9c-4.8-1.9-8.8-4.5-10.3-8.1l-1.9.8Zm11.5,9.2a1,1,0,0,0,1.1-.3.5.5,0,0,0,.3-.5,1.4,1.4,0,0,0,.2-.7,9.1,9.1,0,0,0,.1-1.7v-2.4h-2v2.3a6.1,6.1,0,0,1-.1,1.4v.1a.8.8,0,0,1,.9-.2l-.6,1.9Zm.7-5.6-.9.4h0l.4.8,1,1.9,1.1,2.1.5.7c.1.1.1.3.2.3l.3.4,1.2-1.7c.1.1.1.1,0,.1v-.2l-.4-.6c-.3-.7-.7-1.3-1-2s-1-1.8-1.4-2.7h0l-.9.4Zm2.7,6.7a31.1,31.1,0,0,0,14.2,4v-2a30.4,30.4,0,0,1-13.2-3.7Zm14.2,4a19.1,19.1,0,0,0,6.4-1.1,10.8,10.8,0,0,0,4.4-2.5l-1.5-1.3a8.3,8.3,0,0,1-3.6,1.9,17.5,17.5,0,0,1-5.7,1Zm10.8-3.6a2.1,2.1,0,0,0,.4-.6c.1-.3.3-.5.4-.8a17.2,17.2,0,0,0,.9-1.9,22.9,22.9,0,0,1,1-2.3V103h0l-.9-.3-.9-.4h0v.2a16,16,0,0,1-1,2.3,10.8,10.8,0,0,1-.8,1.9,3.3,3.3,0,0,0-.3.6l-.2.3Zm1.8-6.2H89v.6l.3,1.3a5.7,5.7,0,0,0,.4,1.4,2.2,2.2,0,0,0,.5.6,1.1,1.1,0,0,0,1.5,0l-1.3-1.5a.8.8,0,0,1,1.1,0h0a9.2,9.2,0,0,0-.3-.9l-.3-1.7h0l-1,.2Zm1.7,4c3.3-2.6,5.7-6.7,5.7-12.9h-2c0,5.6-2.1,9.1-4.9,11.4l1.2,1.5Zm5.7-12.9V84.1h-2v9.6Zm-2-9.6c0-.2.1-.1-.1,0a3.4,3.4,0,0,1-1.2.4l-1.3.2h-.6l-1.3,1.5.9.4.8.2,1.9-.2a3.6,3.6,0,0,0,1.8-.7,2.1,2.1,0,0,0,1.1-1.7Zm-3.2.5a2.8,2.8,0,0,1-.5-1.5c-.1-.4-.1-.9-.2-1.3a3.9,3.9,0,0,0-.3-1.4l-1.9.8a2,2,0,0,1,.2.9c.1.4.1.7.2,1.2a4.1,4.1,0,0,0,1.2,2.8Zm-1-4.2A11.4,11.4,0,0,0,88,76.7l-1.2,1.6a7.2,7.2,0,0,1,2.5,3ZM88,76.7c-3-2.1-6.8-2.6-10.1-2.6v2c3.1,0,6.5.5,8.9,2.3ZM77.9,74.1a23.5,23.5,0,0,0-7.3,1.1,10.7,10.7,0,0,0-5.8,4.7l1.8,1a8.1,8.1,0,0,1,4.7-3.8,21.1,21.1,0,0,1,6.6-1ZM64.8,80a5.2,5.2,0,0,0-.6,1.6,2.4,2.4,0,0,0-.2.8c-.1.2-.1.4-.2.6a3,3,0,0,1-1.2,1.8l1,1.7a4.5,4.5,0,0,0,2.1-2.9c.1-.3.1-.5.2-.8a6.4,6.4,0,0,0,.2-.7,6.1,6.1,0,0,1,.5-1.2L64.8,80Zm-2.2,4.8a3.6,3.6,0,0,1-2.2.4,5.2,5.2,0,0,1-2.3-.7l-1,1.8a8,8,0,0,0,3.1.9,5,5,0,0,0,3.4-.7l-1-1.7Zm-4.5-.3a4.2,4.2,0,0,1-1.9-2.2A18.9,18.9,0,0,1,55,78.5a38.3,38.3,0,0,1-.6-7.8h-2a42.6,42.6,0,0,0,.6,8.2,19.7,19.7,0,0,0,1.4,4.3,6.8,6.8,0,0,0,2.7,3.1l1-1.8ZM54.4,70.7V56h-2V70.7Zm-.4-14a5.3,5.3,0,0,0,1.5-2.5,10.5,10.5,0,0,0,.8-2.9l-2-.4a7.7,7.7,0,0,1-.7,2.6,3.6,3.6,0,0,1-.9,1.7Zm2.3-5.6V49.3h-2v1.8Zm0-1.8v-.2h-2v.2Zm0-.2V45.5h-2v3.6Zm0-3.4a3.2,3.2,0,0,1,1.6-2.5,4.6,4.6,0,0,1,2-.5v-2a5.5,5.5,0,0,0-2.9.8,4.9,4.9,0,0,0-2.7,3.8Z"/>
        <path id="path112_fill" data-name="path112 fill" class="cls-6" d="M62.6,86c0-8.5,6.7-11.3,15.2-11.3s15.3,2.6,15.3,11.1c0,0-9,2.9-13.3-6.9C75.6,88.6,62.6,86,62.6,86Z"/>
        <path id="path113_stroke" data-name="path113 stroke" class="cls-3" d="M62.6,86h-1a1,1,0,0,0,.8,1Zm30.5-.2.3,1a1,1,0,0,0,.7-1ZM79.8,78.9l1-.4a1.1,1.1,0,0,0-1.4-.5,1.2,1.2,0,0,0-.5.5l.9.4ZM63.6,86c0-4,1.5-6.5,3.9-8s6.1-2.3,10.3-2.3v-2c-4.4,0-8.4.7-11.4,2.6s-4.8,5.1-4.8,9.7ZM77.8,75.7c4.1,0,7.8.6,10.3,2.2s4,4,4,7.9h2c0-4.6-1.8-7.7-4.9-9.6s-7.1-2.5-11.4-2.5v2ZM93.1,85.8l-.3-1h0a10.2,10.2,0,0,1-4.6.2c-2.4-.4-5.5-1.9-7.4-6.5l-1.9.8c2.3,5.2,5.9,7.2,9,7.7a12.5,12.5,0,0,0,5.1-.1h.4ZM78.9,78.5c-1.9,4.4-5.8,6.1-9.4,6.6a19.7,19.7,0,0,1-4.8.1L62.9,85h-.2v1l-.2,1h.1l2.1.2a23.2,23.2,0,0,0,5.2-.1c3.9-.6,8.7-2.5,11-7.8l-1.9-.8Z"/>
        <path id="path114_fill" data-name="path114 fill" class="cls-5" d="M50.6,64.6H48.1a4.5,4.5,0,0,1,0-9h2.5Z"/>
        <path id="path115_stroke" data-name="path115 stroke" class="cls-3" d="M50.6,64.6v1a1,1,0,0,0,1-1Zm0-9h1a.9.9,0,0,0-1-1Zm0,8H48.1v2h2.5Zm-2.5,0a3.5,3.5,0,0,1-3.5-3.5h-2a5.5,5.5,0,0,0,5.5,5.5Zm-3.5-3.5a3.5,3.5,0,0,1,3.5-3.5v-2a5.5,5.5,0,0,0-5.5,5.5Zm3.5-3.5h2.5v-2H48.1Zm1.5-1v9h2v-9Z"/>
        <path id="path116_stroke" data-name="path116 stroke" class="cls-3" d="M57.6,103.8a.9.9,0,0,0,1.3-.4,1,1,0,0,0-.4-1.4Zm-6.3-7-.9.4h0Zm.3-3.6a.9.9,0,0,0-1-1,1,1,0,0,0-1,1Zm6.9,8.8c-3.4-1.7-5.5-3.6-6.3-5.6l-1.8.8c1.1,2.6,3.6,4.8,7.2,6.6l.9-1.8Zm-6.3-5.6a6.2,6.2,0,0,1-.6-2.6h-2a8.1,8.1,0,0,0,.8,3.4l1.8-.8Zm-.6-2.6v-.6h-2v.6Z"/>
        <path id="path117_stroke" data-name="path117 stroke" class="cls-3" d="M54.7,43.3a1.1,1.1,0,0,0-.5-1.4,1,1,0,0,0-1.3.5h0l1.8.9ZM52,44.5a1,1,0,0,0,.8,1.2A.9.9,0,0,0,54,45h0Zm.9-2.1a8.3,8.3,0,0,0-.9,2.1l2,.5a6.1,6.1,0,0,1,.7-1.7Z"/>
        <path id="path118_stroke" data-name="path118 stroke" class="cls-3" d="M102.6,34.8a1,1,0,0,0-.6-1.3.9.9,0,0,0-1.2.6Zm-2.8,3-.7-.7H99Zm-40,1.5v-1h0Zm-5.3,1a1,1,0,0,0,1.3,1.5Zm46.3-6.2a13.9,13.9,0,0,1-1.7,3l1.4,1.3a10.7,10.7,0,0,0,2.1-3.6Zm-1.8,3a3.3,3.3,0,0,1-2.9,1.2v2a5.3,5.3,0,0,0,4.4-1.9Zm-2.9,1.2H59.8v2H96.1Zm-36.3,0a8.9,8.9,0,0,0-5.3,2l1.3,1.5a6.6,6.6,0,0,1,4.1-1.5Z"/>
        <path id="path119_stroke" data-name="path119 stroke" class="cls-3" d="M59.4,24.2a1.1,1.1,0,0,0-.2,1.4.9.9,0,0,0,1.4.2Zm12.8-.9a.9.9,0,0,0,1-1,1,1,0,0,0-1-1ZM60.6,25.8A13.9,13.9,0,0,1,65.1,24a37.1,37.1,0,0,1,7.1-.7v-2a33.8,33.8,0,0,0-7.5.8,15.4,15.4,0,0,0-5.3,2.1Z"/>
        <path id="path120_stroke" data-name="path120 stroke" class="cls-3" d="M83.2,109.1a1,1,0,0,0,.6-1.3,1,1,0,0,0-1.3-.6h0Zm-18.1-3.4-.7.7.2.2.5-.9Zm.7-.7a1,1,0,0,0-1.3-.5,1.1,1.1,0,0,0-.5,1.3Zm16.7,2.2a15.6,15.6,0,0,1-5.1.8v2a19.6,19.6,0,0,0,5.8-.9Zm-5.1.8h-.2v2h.2Zm-.2,0a27.1,27.1,0,0,1-11.6-3.2l-1,1.8A29.6,29.6,0,0,0,77.2,110v-2Zm-11.4-3h0l-1.8.8a.4.4,0,0,1,.1.3c.1,0,.2.2.3.3Z"/>
      </g>
    </symbol>
  </defs>
  <title>head10</title>
  <g id="Layer_2" data-name="Layer 2">
    <g id="Layer_1-2" data-name="Layer 1">
      <use width="147" height="147" transform="matrix(1, 0, 0, 1, 0, 0)" xlink:href="#head9"/>
    </g>
  </g>
</svg>