<?xml version="1.0" encoding="utf-8"?>
<svg viewBox="0 0 147 147" xmlns="http://www.w3.org/2000/svg" xmlns:xlink="http://www.w3.org/1999/xlink">
  <defs>
    <style>.cls-1{fill:#f2ddc9;}.cls-2{fill:#85353a;}.cls-3{fill:#ffa956;}.cls-4{fill:#e5744c;}.cls-5{fill:#702c33;}.cls-6{fill:#fe6067;}.cls-7{fill:#ffc257;}</style>
    <symbol id="head8" data-name="head8" viewBox="0 0 147 147">
      <g id="head8-3" data-name="head8">
        <path id="path0_fill" data-name="path0 fill" class="cls-1" d="M147,73.5A73.5,73.5,0,1,1,73.5,0,73.5,73.5,0,0,1,147,73.5Z" style="fill: rgb(255, 255, 255);"/>
        <path id="path121_fill" data-name="path121 fill" class="cls-2" d="M114.9,79.4a6.7,6.7,0,0,0-1-3.2h-.1a7.7,7.7,0,0,0-1.9-2.1l.7-.6a6,6,0,0,0,1.4-2,6.1,6.1,0,0,0,.3-1.3,5,5,0,0,0,.2-1.2,6.8,6.8,0,0,0-1.9-4.4,7,7,0,0,0-2.4-1.3,6.3,6.3,0,0,0,2.4-1.9,8.2,8.2,0,0,0,1.1-2.3,5.7,5.7,0,0,0,0-2.6,7,7,0,0,0-1-2.6,5.2,5.2,0,0,0-1.8-1.8,4.8,4.8,0,0,0-2.9-.9,4.6,4.6,0,0,0,1.7-2.2,5,5,0,0,0,.6-2.4,5.7,5.7,0,0,0-.6-2.5,5.8,5.8,0,0,0-3.6-3.4,5,5,0,0,0-3.4-.1l.7-.9a4.2,4.2,0,0,0,.8-2.2A5.3,5.3,0,0,0,104,35a7,7,0,0,0-1.3-2.4,8.9,8.9,0,0,0-2.2-1.6,6.9,6.9,0,0,0-2.4-.5l-1.5.2a7,7,0,0,0-.1-2.9A7.4,7.4,0,0,0,95.1,25h0a7.6,7.6,0,0,0-2.5-2,4.4,4.4,0,0,0-1.6-.6,7.4,7.4,0,0,0-4.6.1,7.3,7.3,0,0,0-3,2.2,4.4,4.4,0,0,0-.6-1.6A5.6,5.6,0,0,0,79,20.6a5.9,5.9,0,0,0-4.4,1.1,4.5,4.5,0,0,0-1.7,3.7,5.7,5.7,0,0,0-2.1-4.2A6.2,6.2,0,0,0,67,20H65.9a6.4,6.4,0,0,0-4.2,2.7,5.6,5.6,0,0,0-.7,1.6,6.1,6.1,0,0,0-2.4-1.5,7.4,7.4,0,0,0-6,.5,10.3,10.3,0,0,0-2.5,2.1,7.2,7.2,0,0,0-1.2,2.7,7.1,7.1,0,0,0,0,2.9,4.7,4.7,0,0,0-1.7-.2h-.1a5.7,5.7,0,0,0-2.5.6,6.5,6.5,0,0,0-2.1,1.6,9.4,9.4,0,0,0-1.3,2.4,6.5,6.5,0,0,0-.2,2.4,4.8,4.8,0,0,0,1.8,3.3,5.9,5.9,0,0,0-3.7,0l-1.1.5a3.4,3.4,0,0,0-.9.8,5.1,5.1,0,0,0-1.5,2.1,7.9,7.9,0,0,0-.5,2.5,7.8,7.8,0,0,0,.5,2.3,4.9,4.9,0,0,0,1.6,1.9,6.4,6.4,0,0,0-3,1.1,6.8,6.8,0,0,0-2.9,4.5,8.8,8.8,0,0,0,.1,2.8,5.5,5.5,0,0,0,1.2,2.4l.4.5a5.3,5.3,0,0,0-1.5,1.1A7.8,7.8,0,0,0,29,69.4a9.3,9.3,0,0,0,.6,3.3,7.7,7.7,0,0,0,1.9,2.7,6.1,6.1,0,0,0,2.4,1.5l-.6.8a6.1,6.1,0,0,0-.7,2.5,8.4,8.4,0,0,0,.4,2.7,7,7,0,0,0,1.5,2.4,6.9,6.9,0,0,0,2.1,1.5,5.7,5.7,0,0,0,1.8.3l1.2-.2a4.9,4.9,0,0,0-1,3.2,6.6,6.6,0,0,0,2.6,5.1,7.2,7.2,0,0,0,4.3,1.6h1.2a5.6,5.6,0,0,0,2.9-1.6,5.6,5.6,0,0,0,.5,2.8,6.2,6.2,0,0,0,4.1,3.1l1.6.2a5.6,5.6,0,0,0,3.3-1,10,10,0,0,0,1.5-1.4,5.6,5.6,0,0,0,1.3,2.4,7,7,0,0,0,5,2.4h.3a6.8,6.8,0,0,0,4.9-2,6,6,0,0,0,1.4-2.1,7.6,7.6,0,0,0,1.1,1.4,6,6,0,0,0,4.2,1.8h.3a6.1,6.1,0,0,0,4.3-2.1,5.9,5.9,0,0,0,1.2-2,4.5,4.5,0,0,0,2,2.1,6.4,6.4,0,0,0,3.6,1.1,5.7,5.7,0,0,0,1.8-.3,8.4,8.4,0,0,0,2.7-1.3A6.9,6.9,0,0,0,96.4,98a5.7,5.7,0,0,0,.6-3.6,4.4,4.4,0,0,0,2.4,1.3h.9l1.5-.2,1.2-.5,1.1-.8a4.7,4.7,0,0,0,1-1,3,3,0,0,0,.7-1.1,5,5,0,0,0,.6-2.4,3.6,3.6,0,0,0-.2-1.1h1a7,7,0,0,0,2.5-.5h.1a8.7,8.7,0,0,0,2.8-1.9h.1a9.3,9.3,0,0,0,1.9-3.1,12.2,12.2,0,0,0,.3-1.7,6.7,6.7,0,0,0,0-2Zm-31,14.2a9.3,9.3,0,0,0-1.3-1.5,5.5,5.5,0,0,0-3.8-1.5h-.3A6,6,0,0,0,73.4,94a6.9,6.9,0,0,0-6-4.3,6.7,6.7,0,0,0-4.7,1.8,6.5,6.5,0,0,0-1.5,1.8,10.1,10.1,0,0,0-.7-1.5,6.1,6.1,0,0,0-3.4-2.5,5.5,5.5,0,0,0-4,.6,6.2,6.2,0,0,0-1.8,1.4,9.6,9.6,0,0,0-.1-2.5,5.8,5.8,0,0,0-2-3.6,4.4,4.4,0,0,0-1.8-.9l-1.1-.2h-1l-2.3.4a8.1,8.1,0,0,0,1.5-3.7,4.4,4.4,0,0,0-.3-1.9,4.2,4.2,0,0,0-1-1.7,5.2,5.2,0,0,0-1.6-1.2c0-.1-.1-.1-.2-.1a6.9,6.9,0,0,0,1.3-1.1,7.5,7.5,0,0,0,1.5-2.3,7.7,7.7,0,0,0,.7-2.8,8.2,8.2,0,0,0-2.2-5.5l-1-.8.2-.2a7.3,7.3,0,0,0,1.7-1.8,6.3,6.3,0,0,0,.8-2.3,5.7,5.7,0,0,0-1.1-4.6,6.5,6.5,0,0,0-1.8-1.9,5.3,5.3,0,0,0,2-.5,6.6,6.6,0,0,0,1.7-1.2A3.6,3.6,0,0,0,46.4,49a5.3,5.3,0,0,0,.4-1.9c0-.3-.1-.7-.1-1.1l-.3-1a6.1,6.1,0,0,0-1.9-2.7,7.4,7.4,0,0,0,2.5.5h.9a7.3,7.3,0,0,0,2-.5,5.3,5.3,0,0,0,1.6-1.3,4.2,4.2,0,0,0,1-1.7,7.6,7.6,0,0,0,.3-2.1c0-.4-.1-.8-.1-1.1a9.6,9.6,0,0,0,1.8.7l1.8.2H57a6.1,6.1,0,0,0,2.4-.7,6.3,6.3,0,0,0,3.1-3.8,6.5,6.5,0,0,0,.4-2l1,.7A5,5,0,0,0,67,32h.9a5.8,5.8,0,0,0,3.5-2.2,7.2,7.2,0,0,0,1.5-4.2,6,6,0,0,0,1.3,3.8,4.7,4.7,0,0,0,3.1,1.8,4.6,4.6,0,0,0,3.6-.8l1-.8a9.1,9.1,0,0,0,.5,2.7,6.8,6.8,0,0,0,1.2,2.2l1,.9,1.1.8h.1a4.3,4.3,0,0,0,2.4.7h.7l1.8-.2,1.8-.7a2.8,2.8,0,0,0-.1.9,6.4,6.4,0,0,0,.3,2,7.7,7.7,0,0,0,1,1.8,4.8,4.8,0,0,0,1.7,1.2,7,7,0,0,0,1.9.6h2.2l.9-.3a7.3,7.3,0,0,0-1.7,2.6,5.3,5.3,0,0,0,.1,4.1,3.6,3.6,0,0,0,1.2,1.8,6.6,6.6,0,0,0,1.7,1.2,8.3,8.3,0,0,0,2.1.6h.2a8.1,8.1,0,0,0-1.9,1.8,4.7,4.7,0,0,0-.9,2.2,4.4,4.4,0,0,0-.1,2.3,4.7,4.7,0,0,0,.9,2.2,4.9,4.9,0,0,0,1.6,1.6,5.5,5.5,0,0,0,2.4,1.2,6.6,6.6,0,0,0-2,1.4,6.4,6.4,0,0,0-1.6,4.1,3.6,3.6,0,0,0,.2,1.1,2.9,2.9,0,0,0,.3,1,5.2,5.2,0,0,0,1.2,1.7l.2.2-1.5.8a7.4,7.4,0,0,0-2.1,1.7h-.1l-.6.9a.1.1,0,0,1-.1.1,3.8,3.8,0,0,0-.6,1.3,6.6,6.6,0,0,0-.3,2.7,5.4,5.4,0,0,0,.6,2.5,10.9,10.9,0,0,0,.8,1.5H100a5.2,5.2,0,0,0-1.7.2l-.8.3a1.8,1.8,0,0,0-.7.5h-.1l-.6.6a2.5,2.5,0,0,0-.4.7,4.2,4.2,0,0,0-.6,1.8A5.5,5.5,0,0,0,95,91a5.8,5.8,0,0,0-2.3-1.8,8.6,8.6,0,0,0-2.1-.7,5.1,5.1,0,0,0-2.4.2,6.4,6.4,0,0,0-3.7,2.8c-.1.6-.4,1.4-.6,2.1Z"/>
        <path id="path122_fill" data-name="path122 fill" class="cls-2" d="M72.4,25.5h-.3C63,25.5,36.4,30,36.4,70.2c0,26.5,24.3,26.5,35.7,26.5v0c11.4,0,35.7,0,35.7-26.5C108,30,81.4,25.5,72.4,25.5Z"/>
        <path id="path123_stroke" data-name="path123 stroke" class="cls-3" d="M55.3,70.6a1,1,0,0,0,0-2Zm0,9.4a1,1,0,0,0,1-1,.9.9,0,0,0-1-1Zm0-11.4a5.7,5.7,0,0,0-5.7,5.6h2a3.7,3.7,0,0,1,3.7-3.7Zm-5.7,5.7A5.7,5.7,0,0,0,55.3,80h0V78a3.8,3.8,0,0,1-3.7-3.7Z"/>
        <path id="path124_fill" data-name="path124 fill" class="cls-2" d="M73.7,70.2c12.7,0,23-10,23-22.4s-10.3-22.3-23-22.3-23,10-23,22.3S61,70.2,73.7,70.2Z"/>
        <path id="path125_stroke" data-name="path125 stroke" class="cls-3" d="M95.5,78a1,1,0,0,0-1,1,1.1,1.1,0,0,0,1,1Zm0-9.4a1,1,0,0,0,0,2Zm0,11.4a5.7,5.7,0,0,0,5.7-5.7h-2A3.7,3.7,0,0,1,95.5,78h0v2Zm5.7-5.7a5.6,5.6,0,0,0-5.6-5.7h-.1v2a3.6,3.6,0,0,1,3.7,3.7Z"/>
        <path id="path126_fill" data-name="path126 fill" class="cls-4" d="M92.5,113.9a6.8,6.8,0,0,1-6.9-6.8V73.2H60.1v33.9a6.9,6.9,0,0,1-6.9,6.9s3.6,7,21.5,7S92.5,113.9,92.5,113.9Z"/>
        <path id="path127_stroke" data-name="path127 stroke" class="cls-2" d="M92.5,113.9h1a1.1,1.1,0,0,0-1-1ZM85.6,73.2h1a1,1,0,0,0-1-1Zm-25.5,0v-1a1,1,0,0,0-1,1ZM53.2,114v-1a1,1,0,0,0-1,1c0,.2.1.3.1.5Zm21.5,7v1h0Zm17.8-8.1a5.8,5.8,0,0,1-5.9-5.8h-2a7.8,7.8,0,0,0,7.9,7.8Zm-5.9-5.8V73.2h-2v33.9Zm-1-34.9H60.1v2H85.6Zm-26.5,1v33.9h2V73.2Zm0,33.9a5.8,5.8,0,0,1-5.9,5.9v2a7.9,7.9,0,0,0,7.9-7.9ZM53.2,114l-.9.5h.1l.2.3.7.9a14.3,14.3,0,0,0,3.5,2.6c3.3,1.8,8.9,3.6,17.9,3.6v-2c-8.8,0-14-1.7-16.9-3.4a12.2,12.2,0,0,1-3-2.2l-.6-.7a.3.3,0,0,0-.1-.2h0l-.9.5Zm21.5,8c9.1,0,13.8-1.8,16.3-3.8a7.5,7.5,0,0,0,2.2-2.8,4.4,4.4,0,0,0,.2-1,.9.9,0,0,0,.1-.5h-2c-.1.1-.1.3-.2.6a4.9,4.9,0,0,1-1.6,2c-1.9,1.5-6.1,3.3-15,3.3Z"/>
        <path id="path128_fill" data-name="path128 fill" class="cls-4" d="M55.1,48.8V70.2c0,11.4,7,29.1,26.3,29.1,5,0,15.1-10.4,15.1-25.4V48.8Z"/>
        <path id="path129_stroke" data-name="path129 stroke" class="cls-2" d="M55.1,48.8v-1a.9.9,0,0,0-1,1Zm41.4,0h1a1,1,0,0,0-1-1Zm-42.4,0V70.2h2V48.8Zm0,21.4a35,35,0,0,0,6.1,19.4c4.3,6.1,11.2,10.7,21.2,10.7v-2c-9.3,0-15.6-4.2-19.6-9.9a32.6,32.6,0,0,1-5.7-18.2Zm27.3,30.1a9.4,9.4,0,0,0,5-2,23,23,0,0,0,5.2-5.5,32.7,32.7,0,0,0,5.9-18.9h-2A31,31,0,0,1,90,91.6a20.8,20.8,0,0,1-4.7,5,7.2,7.2,0,0,1-3.9,1.7v2ZM97.5,73.9V48.8h-2V73.9Zm-1-26.1H55.1v2H96.5Z"/>
        <path id="path130_stroke" data-name="path130 stroke" class="cls-5" d="M55.1,50.3v-1h-1v1Zm41.4,0h1v-1h-1Zm-22.9,0v1h.1Zm17,0v-1h0ZM82,46.4l.8-.7-.8-.9-.8,1ZM54.1,50.3V70.2h2V50.3Zm0,19.9a34.8,34.8,0,0,0,6.1,19.4c4.3,6.1,11.2,10.7,21.2,10.7v-2c-9.3,0-15.6-4.2-19.6-9.9a32.6,32.6,0,0,1-5.7-18.2Zm27.3,30.1a9.4,9.4,0,0,0,5-2,23,23,0,0,0,5.2-5.5,32.7,32.7,0,0,0,5.9-18.9h-2A31.6,31.6,0,0,1,90,91.7a25.5,25.5,0,0,1-4.7,5,7.7,7.7,0,0,1-3.9,1.6v2ZM97.5,73.9V50.3h-2V73.9ZM73.6,49.3H55.1v2H73.6Zm22.9,0H90.6v2h5.9Zm-5.9,0a9.1,9.1,0,0,1-4.3-.6,10,10,0,0,1-3.5-3L81.3,47a12.5,12.5,0,0,0,4.2,3.6,12.2,12.2,0,0,0,5.2.7v-2Zm-9.4-3.5a7.4,7.4,0,0,1-3,2.7,12.7,12.7,0,0,1-4.6.8v2a14.1,14.1,0,0,0,5.4-1A10.4,10.4,0,0,0,82.8,47l-1.6-1.2Z"/>
        <path id="path131_fill" data-name="path131 fill" class="cls-5" d="M73.6,65.2a1.4,1.4,0,1,1-2.8,0h0a1.4,1.4,0,1,1,2.8,0Z"/>
        <path id="path132_stroke" data-name="path132 stroke" class="cls-5" d="M72.6,65.2a.4.4,0,0,1-.4.4h0v2a2.4,2.4,0,0,0,2.4-2.4h-2Zm-.4.4a.4.4,0,0,1-.4-.4h-2a2.4,2.4,0,0,0,2.4,2.4h0Zm-.4-.4a.4.4,0,0,1,.4-.4v-2a2.3,2.3,0,0,0-2.4,2.4h2Zm.4-.4a.4.4,0,0,1,.4.4h2a2.4,2.4,0,0,0-2.4-2.4h0Z"/>
        <path id="path133_stroke" data-name="path133 stroke" class="cls-5" d="M65.1,62.7a1,1,0,0,0-1,1,.9.9,0,0,0,1,1Zm12.6,2a1,1,0,0,0,1-1,1.1,1.1,0,0,0-1-1Zm-12.6,0H77.7v-2H65.1Z"/>
        <path id="path134_fill" data-name="path134 fill" class="cls-5" d="M94.1,65.2a1.4,1.4,0,0,1-1.4,1.4,1.4,1.4,0,0,1-1.4-1.4h0a1.4,1.4,0,0,1,1.4-1.4A1.4,1.4,0,0,1,94.1,65.2Z"/>
        <path id="path135_stroke" data-name="path135 stroke" class="cls-5" d="M93.1,65.2c.1.2-.1.4-.4.4h0v2a2.4,2.4,0,0,0,2.4-2.4h-2Zm-.4.4a.4.4,0,0,1-.4-.4h-2a2.4,2.4,0,0,0,2.4,2.4h0Zm-.4-.4a.4.4,0,0,1,.4-.4v-2a2.4,2.4,0,0,0-2.4,2.4h2Zm.4-.4a.4.4,0,0,1,.4.4h2a2.3,2.3,0,0,0-2.4-2.4h0Z"/>
        <path id="path136_stroke" data-name="path136 stroke" class="cls-5" d="M77,61.7a1,1,0,0,0,1.4-.2.9.9,0,0,0-.1-1.3ZM64.4,60.2a1.1,1.1,0,0,0-.1,1.4,1,1,0,0,0,1.4.1h.1Zm13.3.7.6-.7h0a.1.1,0,0,1-.1-.1l-.4-.3-1.4-.8a11.1,11.1,0,0,0-5-1.2v2a9.1,9.1,0,0,1,4.1,1,4.1,4.1,0,0,1,1.1.7l.4.3h0l.7-.8Zm-6.3-3.2a11.1,11.1,0,0,0-5,1.2l-1.4.8c-.2.2-.4.3-.5.5h-.1l.7.7.7.8h0l.3-.2,1.2-.7a9.5,9.5,0,0,1,4.1-1v-2Z"/>
        <path id="path137_stroke" data-name="path137 stroke" class="cls-5" d="M95.5,61a.9.9,0,0,0,1,1,1,1,0,0,0,1-1Zm1-1.3h1v-.6l-.5-.3-.5.9Zm-10.7.6a1.1,1.1,0,0,0,.1,1.4,1,1,0,0,0,1.4,0Zm11.7.7V59.7h-2V61Zm-.6-2.2a8.7,8.7,0,0,0-4.5-1.2v2a7.6,7.6,0,0,1,3.6,1l1-1.8Zm-4.5-1.2A9.4,9.4,0,0,0,87.6,59a5.1,5.1,0,0,0-1.3.9l-.5.4h0l.8.7.7.7h.1l.2-.2a4.1,4.1,0,0,1,1.1-.7,6.5,6.5,0,0,1,3.7-1.1Z"/>
        <path id="path138_stroke" data-name="path138 stroke" class="cls-5" d="M87,62.7a1,1,0,0,0-1,1,.9.9,0,0,0,1,1Zm9.4,2a.9.9,0,0,0,1-1,1,1,0,0,0-1-1Zm-9.4,0h9.4v-2H87Z"/>
        <path id="path139_stroke" data-name="path139 stroke" class="cls-5" d="M73.1,83.3a1,1,0,0,0-.4,2Zm8.1,2.6-.2,1h.4l-.2-1Zm8-.6a1,1,0,0,0,.8-1.2,1,1,0,0,0-1.2-.8Zm-16.5,0L81,86.9l.4-2-8.3-1.6Zm8.7,1.6,7.8-1.6-.4-2L81,84.9Z"/>
        <path id="path140_fill" data-name="path140 fill" class="cls-6" d="M75.5,84.8H87s-1.2,4-4.9,4S75.5,84.8,75.5,84.8Z"/>
        <path id="path141_stroke" data-name="path141 stroke" class="cls-5" d="M75.5,84.8v-1a1,1,0,0,0-1,1c0,.3,0,.5.2.6Zm11.5,0,.9.3a.9.9,0,0,0-.6-1.2H87Zm-11.5,1H87v-2H75.5Zm11.5-1-1-.2h0a6,6,0,0,1-.9,1.5,3.5,3.5,0,0,1-3,1.6v2a5.7,5.7,0,0,0,4.6-2.4,7.8,7.8,0,0,0,1.2-2.2h0l-.9-.3Zm-4.9,3A6.6,6.6,0,0,1,78,86.1a12.9,12.9,0,0,1-1.6-1.7h-.1l-.8.5-.8.6h.1a18,18,0,0,0,1.9,2,8.9,8.9,0,0,0,5.4,2.2Z"/>
        <path id="path142_fill" data-name="path142 fill" class="cls-6" d="M75.5,84.9H87s-1.2-4-4.9-4S75.5,84.9,75.5,84.9Z"/>
        <path id="path143_stroke" data-name="path143 stroke" class="cls-5" d="M75.5,84.9l-.8-.6a.9.9,0,0,0,.2,1.4l.6.2Zm11.5,0v1a1.1,1.1,0,0,0,1-1,.4.4,0,0,0-.1-.3l-.9.3Zm-4.9-4v-1H82Zm-6.6,5H87v-2H75.5Zm11.5-1,.9-.3h0l-.3-.7a4.6,4.6,0,0,0-.9-1.5,5.7,5.7,0,0,0-4.6-2.4v2a3.7,3.7,0,0,1,3,1.6,5.1,5.1,0,0,1,.9,1.6h0Zm-5-5a8.9,8.9,0,0,0-5.3,2.2,18,18,0,0,0-1.9,2v.2h0l.8.6.8.5h.1L78,83.7a6.2,6.2,0,0,1,4.1-1.8v-2Z"/>
        <path id="path144_fill" data-name="path144 fill" class="cls-3" d="M92.4,114s.2,7-17.8,7-21.5-7-21.5-7H44.4s1.6,14,30.2,14c24.8,0,25.3-14,25.3-14Z"/>
        <path id="path145_stroke" data-name="path145 stroke" class="cls-2" d="M92.4,114v-1a.9.9,0,0,0-1,1h1Zm-39.3,0,.9-.5a1.1,1.1,0,0,0-.9-.5v1Zm-8.7,0v-1a1,1,0,0,0-1,1h1Zm55.5,0h1a1,1,0,0,0-1-1h0Zm-7.5,0h-1v.2c-.1.1-.1.3-.2.5a4.3,4.3,0,0,1-1.6,2c-1.9,1.6-6.1,3.3-15,3.3v2c9.1,0,13.8-1.7,16.3-3.7a8.3,8.3,0,0,0,2.2-2.8,5.8,5.8,0,0,0,.2-1,1.1,1.1,0,0,0,.1-.5h-1Zm-17.8,6c-8.8,0-14-1.7-17-3.4a11.2,11.2,0,0,1-2.9-2.2l-.6-.7a.3.3,0,0,0-.1-.2h0l-.9.5-.9.5h.1l.2.3.7.9a14.3,14.3,0,0,0,3.5,2.6c3.3,1.8,8.8,3.6,17.9,3.6v-2Zm-21.5-7H44.4v2h8.7Zm-8.7,1h-.9a2,2,0,0,0,.1.7,12,12,0,0,0,.6,1.7,17,17,0,0,0,3.9,5.2c4.3,3.7,12.1,7.2,26.5,7.2v-2c-14.1,0-21.4-3.5-25.1-6.7a14.8,14.8,0,0,1-3.5-4.5c-.2-.5-.3-1-.5-1.4a.7.7,0,0,0-.1-.5h-1Zm30.2,15c12.6,0,19.2-3.6,22.7-7.3a15.7,15.7,0,0,0,3.1-5.2,7.9,7.9,0,0,0,.4-1.7,2.2,2.2,0,0,0,.1-.8h-2a.4.4,0,0,1-.1.3,8,8,0,0,1-.3,1.5,12.1,12.1,0,0,1-2.7,4.4c-2.9,3.3-9,6.7-21.2,6.7v2Zm25.3-16H92.4v2h7.5Z"/>
        <path id="path146_stroke" data-name="path146 stroke" class="cls-5" d="M80.4,73.4a1.1,1.1,0,0,0-1,1,1,1,0,0,0,1,1Zm2-4.4h-1v1h1Zm1-3.2a.9.9,0,0,0-1-1,1,1,0,0,0-1,1Zm-3,9.6h3.3v-2H80.4Zm3.3,0a3.7,3.7,0,0,0,3.8-3.6h-2a1.7,1.7,0,0,1-1.8,1.7v2Zm3.8-3.7A3.8,3.8,0,0,0,83.8,68h-.1v2a1.8,1.8,0,0,1,1.8,1.7ZM83.7,68H82.4v2h1.3V68Zm-.3,1V65.8h-2V69Z"/>
        <path id="path147_fill" data-name="path147 fill" class="cls-2" d="M47.4,71.2c2.4,0,4.8-7.3,7.6-7.3s5.6-.7,5.6-14.2,2.5-8.2,2.5-8.2-12.5,3.1-12.4,3.6-5.4,11.7-5.4,12.5,1.9,12.7,1.9,12.7Z"/>
        <path id="path148_fill" data-name="path148 fill" class="cls-4" d="M55,63.6a4.1,4.1,0,0,0-4.2,4.1h0A4.2,4.2,0,0,0,55,72h2.4V63.6Z"/>
        <path id="path149_fill" data-name="path149 fill" class="cls-5" d="M57.2,72.8H54.9a5.1,5.1,0,0,1-5.1-5,5,5,0,0,1,5.1-5h2.4a.7.7,0,0,1,.7.8.7.7,0,0,1-.7.7H54.9a3.5,3.5,0,0,0-3.5,3.5,3.5,3.5,0,0,0,3.5,3.4h2.4a.8.8,0,0,1,.7.8A.8.8,0,0,1,57.2,72.8Z"/>
        <path id="path150_fill" data-name="path150 fill" class="cls-4" d="M81.9,47s-2.2,4.3-6.9,4.3H88.7C84.2,51.2,81.9,47,81.9,47Z"/>
        <path id="path151_stroke" data-name="path151 stroke" class="cls-3" d="M57.9,71.7a1.1,1.1,0,0,0,1.5,0,1,1,0,0,0,0-1.4Zm-2.6-3.1a1,1,0,0,0,0,2Zm4.1,1.7a5.5,5.5,0,0,0-4.1-1.7v2a3.3,3.3,0,0,1,2.6,1.1Z"/>
        <path id="path152_stroke" data-name="path152 stroke" class="cls-7" d="M59,74.6a1.1,1.1,0,0,0,1,1,1,1,0,0,0,1-1Zm.4-4.3A1,1,0,0,0,58,71.7l1.4-1.4ZM61,74.5v-.2H59v.3h2Zm0-.2a5.6,5.6,0,0,0-1.6-4L58,71.7a3.5,3.5,0,0,1,1,2.6Z"/>
        <path id="path153_stroke" data-name="path153 stroke" class="cls-3" d="M55.3,78a1,1,0,0,0-1,1,1.1,1.1,0,0,0,1,1ZM61,74.6a.9.9,0,0,0-.9-1,.9.9,0,0,0-1.1.9h2ZM55.3,80A5.7,5.7,0,0,0,61,74.6H59A3.7,3.7,0,0,1,55.3,78Z"/>
      </g>
    </symbol>
  </defs>
  <title>head8</title>
  <g id="Layer_2" data-name="Layer 2">
    <g id="Layer_1-2" data-name="Layer 1">
      <use width="147" height="147" transform="matrix(1, 0, 0, 1, 0, 0)" xlink:href="#head8"/>
    </g>
  </g>
</svg>