<?xml version="1.0" encoding="utf-8"?>
<svg viewBox="0 0 147 147" xmlns="http://www.w3.org/2000/svg" xmlns:xlink="http://www.w3.org/1999/xlink">
  <defs>
    <style>.cls-1{fill:#f2ddc9;}.cls-2{fill:#85353a;}.cls-3{fill:#fff;}.cls-4{fill:#fe6067;}.cls-5{fill:#ffa956;}</style>
    <symbol id="head3" data-name="head3" viewBox="0 0 147 147">
      <g id="head3-3" data-name="head3">
        <path id="path0_fill" data-name="path0 fill" class="cls-1" d="M147,73.5A73.5,73.5,0,1,1,73.5,0,73.5,73.5,0,0,1,147,73.5Z" style="fill: rgb(255, 255, 255);"/>
        <path id="path218_stroke" data-name="path218 stroke" class="cls-2" d="M52.5,114.4l-.9.5h.1l.2.3a5.8,5.8,0,0,0,.8,1,16.7,16.7,0,0,0,3.8,2.9c3.7,2.1,9.8,4.1,19.9,4.1v-2c-9.8,0-15.6-2-18.9-3.8a13,13,0,0,1-3.3-2.5l-.7-.8a.3.3,0,0,0-.1-.2h0Zm23.9,8.9c10.1,0,15.3-2,18-4.2a8,8,0,0,0,2.5-3.1l.3-1.1v-.5h-2a2.5,2.5,0,0,1-.2.7,5.3,5.3,0,0,1-1.8,2.3c-2.2,1.7-6.9,3.7-16.8,3.7Z"/>
        <path id="path219_fill" data-name="path219 fill" class="cls-3" d="M96.2,114.4a7.7,7.7,0,0,1-7.7-7.7V70H60.2v36.7a7.8,7.8,0,0,1-7.7,7.7H42.8S44.6,130,76.4,130c27.7,0,28.2-15.6,28.2-15.6Z"/>
        <path id="path220_stroke" data-name="path220 stroke" class="cls-2" d="M96.2,114.4v1a.9.9,0,0,0,1-1ZM88.5,70h1a.9.9,0,0,0-1-1ZM60.2,70V69a.9.9,0,0,0-1,1ZM42.8,114.4v-1a1,1,0,0,0-1,1h1Zm61.8,0h1a1,1,0,0,0-1-1h0Zm-8.4,0v-1a.9.9,0,0,0-1,1Zm0-1a6.7,6.7,0,0,1-6.7-6.7h-2a8.7,8.7,0,0,0,8.7,8.7Zm-6.7-6.7V70h-2v36.7ZM88.5,69H60.2v2H88.5ZM59.2,70v36.7h2V70Zm0,36.7a6.7,6.7,0,0,1-6.7,6.7v2a8.7,8.7,0,0,0,8.7-8.7Zm-6.7,6.7H42.8v2h9.7Zm-9.7,1h-1v.2a1.3,1.3,0,0,0,.1.6,10.7,10.7,0,0,0,.7,1.9,16.3,16.3,0,0,0,4.3,5.7c4.7,4.2,13.3,8.1,29.4,8.1v-2c-15.7,0-23.9-3.9-28.1-7.6a14.6,14.6,0,0,1-3.8-5l-.6-1.6a4.3,4.3,0,0,0-.1-.5h-1ZM76.4,131c14,0,21.4-4,25.2-8.1a15.7,15.7,0,0,0,3.4-5.8,10.8,10.8,0,0,0,.5-1.9c0-.3.1-.5.1-.8h-2a1,1,0,0,1-.1.4,7.3,7.3,0,0,1-.4,1.6,12.4,12.4,0,0,1-3,5c-3.3,3.7-10,7.5-23.7,7.5v2Zm28.2-17.6H96.2v2h8.4Zm-9.4,1Z"/>
        <path id="path221_fill" data-name="path221 fill" class="cls-4" d="M82.4,122.7a2.6,2.6,0,0,1-2.6,2.6h0a2.6,2.6,0,0,1-2.6-2.6h0a2.6,2.6,0,0,1,2.6-2.6h0A2.5,2.5,0,0,1,82.4,122.7Z"/>
        <path id="path222_stroke" data-name="path222 stroke" class="cls-2" d="M79.8,120.1v1h.1Zm1.6,2.6a1.6,1.6,0,0,1-1.6,1.6v2a3.6,3.6,0,0,0,3.6-3.6h-2Zm-1.6,1.6a1.6,1.6,0,0,1-1.6-1.6h-2a3.6,3.6,0,0,0,3.6,3.6h0Zm-1.6-1.6a1.6,1.6,0,0,1,1.6-1.6v-2a3.6,3.6,0,0,0-3.6,3.6h2Zm1.7-1.6a1.4,1.4,0,0,1,1.5,1.6h2a3.5,3.5,0,0,0-3.6-3.6v2Z"/>
        <path id="path223_fill" data-name="path223 fill" class="cls-4" d="M91.4,121.1a2.6,2.6,0,0,1-2.6,2.6h-.1a2.6,2.6,0,0,1-2.6-2.6h0a2.6,2.6,0,0,1,2.6-2.6h0a2.6,2.6,0,0,1,2.7,2.6Z"/>
        <path id="path224_stroke" data-name="path224 stroke" class="cls-2" d="M90.4,121.1a1.7,1.7,0,0,1-1.7,1.6v2a3.7,3.7,0,0,0,3.7-3.6h-2Zm-1.7,1.6a1.6,1.6,0,0,1-1.6-1.6h-2a3.6,3.6,0,0,0,3.6,3.6h0Zm-1.6-1.6a1.6,1.6,0,0,1,1.6-1.6v-2a3.6,3.6,0,0,0-3.6,3.6h2Zm1.6-1.6a1.7,1.7,0,0,1,1.7,1.6h2a3.6,3.6,0,0,0-3.6-3.6h-.1Z"/>
        <path id="path225_fill" data-name="path225 fill" class="cls-4" d="M72.1,122.2a2.6,2.6,0,0,1-2.6,2.6h-.1a2.6,2.6,0,0,1-2.6-2.6h0a2.6,2.6,0,0,1,2.6-2.6h0A2.6,2.6,0,0,1,72.1,122.2Z"/>
        <path id="path226_stroke" data-name="path226 stroke" class="cls-2" d="M69.4,119.6v1h.1Zm1.7,2.6a1.6,1.6,0,0,1-1.7,1.6v2a3.7,3.7,0,0,0,3.7-3.6h-2Zm-1.7,1.6a1.6,1.6,0,0,1-1.6-1.6h-2a3.6,3.6,0,0,0,3.6,3.6h0Zm-1.6-1.6a1.6,1.6,0,0,1,1.6-1.6v-2a3.6,3.6,0,0,0-3.6,3.6h2Zm1.7-1.6a1.6,1.6,0,0,1,1.6,1.6h2a3.5,3.5,0,0,0-3.7-3.6v2Z"/>
        <path id="path227_fill" data-name="path227 fill" class="cls-4" d="M63.2,120a2.6,2.6,0,0,1-2.6,2.6h-.1a2.6,2.6,0,0,1-2.6-2.6h0a2.6,2.6,0,0,1,2.6-2.6h0a2.7,2.7,0,0,1,2.7,2.6Z"/>
        <path id="path228_stroke" data-name="path228 stroke" class="cls-2" d="M62.2,120a1.7,1.7,0,0,1-1.7,1.6v2a3.7,3.7,0,0,0,3.7-3.6h-2Zm-1.7,1.6a1.6,1.6,0,0,1-1.6-1.6h-2a3.6,3.6,0,0,0,3.6,3.6h0ZM58.9,120a1.6,1.6,0,0,1,1.6-1.6v-2a3.6,3.6,0,0,0-3.6,3.6h2Zm1.6-1.6a1.7,1.7,0,0,1,1.7,1.6h2a3.6,3.6,0,0,0-3.6-3.6h-.1Z"/>
        <path id="path229_fill" data-name="path229 fill" class="cls-4" d="M55.6,115.3a2.6,2.6,0,0,1-2.6,2.6h0a2.6,2.6,0,0,1-2.7-2.6h0a2.6,2.6,0,0,1,2.6-2.6H53A2.5,2.5,0,0,1,55.6,115.3Z"/>
        <path id="path230_stroke" data-name="path230 stroke" class="cls-2" d="M53,112.7v1h0Zm1.6,2.6a1.6,1.6,0,0,1-1.6,1.6v2a3.6,3.6,0,0,0,3.6-3.6h-2ZM53,116.9a1.7,1.7,0,0,1-1.7-1.6h-2a3.6,3.6,0,0,0,3.6,3.6H53Zm-1.7-1.6a1.6,1.6,0,0,1,1.7-1.6v-2a3.7,3.7,0,0,0-3.7,3.6h2Zm1.7-1.6a1.6,1.6,0,0,1,1.6,1.6h2a3.5,3.5,0,0,0-3.7-3.6v2Z"/>
        <path id="path231_fill" data-name="path231 fill" class="cls-4" d="M98.1,115.3a2.6,2.6,0,0,1-2.6,2.6h-.1a2.6,2.6,0,0,1-2.6-2.6h0a2.6,2.6,0,0,1,2.6-2.6h0A2.6,2.6,0,0,1,98.1,115.3Z"/>
        <path id="path232_stroke" data-name="path232 stroke" class="cls-2" d="M95.4,112.7v1h.1Zm1.7,2.6a1.7,1.7,0,0,1-1.7,1.6v2a3.7,3.7,0,0,0,3.7-3.6h-2Zm-1.7,1.6a1.6,1.6,0,0,1-1.6-1.6h-2a3.6,3.6,0,0,0,3.6,3.6h0Zm-1.6-1.6a1.6,1.6,0,0,1,1.6-1.6v-2a3.6,3.6,0,0,0-3.6,3.6h2Zm1.7-1.6a1.6,1.6,0,0,1,1.6,1.6h2a3.6,3.6,0,0,0-3.7-3.6v2Z"/>
        <path id="path233_fill" data-name="path233 fill" class="cls-3" d="M53.7,42.8V66.7c0,12.7,7.9,32.5,29.3,32.5,5.6,0,16.8-11.7,16.8-28.4v-28Z"/>
        <path id="path234_stroke" data-name="path234 stroke" class="cls-2" d="M53.7,42.8v-1h-1v1Zm46.1,0h1v-1h-1Zm-47.1,0V66.7h2V42.8Zm0,23.9a38.8,38.8,0,0,0,6.8,21.6c4.8,6.8,12.4,11.9,23.5,11.9v-2A25.8,25.8,0,0,1,61.1,87.1a36.7,36.7,0,0,1-6.4-20.4ZM83,100.2a10.2,10.2,0,0,0,5.6-2.3,26.1,26.1,0,0,0,5.7-6.1,36.6,36.6,0,0,0,6.5-21h-2a34.8,34.8,0,0,1-6.1,19.9,23.9,23.9,0,0,1-5.3,5.6A8,8,0,0,1,83,98.2Zm17.8-29.4v-28h-2v28Zm-1-29H53.7v2H99.8Z"/>
        <path id="path235_stroke" data-name="path235 stroke" class="cls-2" d="M82.1,71.3a.9.9,0,0,0-1,1,1,1,0,0,0,1,1Zm3.7-5-1,.2a1.1,1.1,0,0,0,1,.8ZM85.3,59a1.1,1.1,0,0,0-1.2-.8,1.2,1.2,0,0,0-.8,1.2ZM82.1,73.3h3.7v-2H82.1Zm3.7,0a4,4,0,0,0,4-4h-2a2,2,0,0,1-2,2Zm4-4a3.9,3.9,0,0,0-4-4v2a1.9,1.9,0,0,1,2,2ZM86.7,66l-1.4-7-2,.4,1.5,7.1Z"/>
        <path id="path236_fill" data-name="path236 fill" class="cls-2" d="M74.4,59.6a1.6,1.6,0,0,1-1.6,1.5,1.5,1.5,0,0,1-1.5-1.5h0A1.6,1.6,0,0,1,72.8,58,1.6,1.6,0,0,1,74.4,59.6Z"/>
        <path id="path237_stroke" data-name="path237 stroke" class="cls-2" d="M72.8,58v0Zm.6,1.6c0,.3-.2.5-.6.5h0v2a2.6,2.6,0,0,0,2.6-2.5h-2Zm-.6.5a.5.5,0,0,1-.5-.5h-2a2.5,2.5,0,0,0,2.5,2.5v-2Zm-.5-.5a.6.6,0,0,1,.5-.6V57a2.5,2.5,0,0,0-2.5,2.6h2Zm.5-.6a.6.6,0,0,1,.6.6h2A2.5,2.5,0,0,0,72.8,57Z"/>
        <path id="path238_stroke" data-name="path238 stroke" class="cls-2" d="M66.7,56.9a.9.9,0,0,0-1,1,1,1,0,0,0,1,1Zm11.5,2a1,1,0,0,0,1-1,.9.9,0,0,0-1-1Zm-11.5,0H78.2v-2H66.7Z"/>
        <path id="path239_fill" data-name="path239 fill" class="cls-2" d="M97.3,59.6a1.6,1.6,0,0,1-1.6,1.5,1.5,1.5,0,0,1-1.5-1.5h0A1.6,1.6,0,0,1,95.7,58,1.6,1.6,0,0,1,97.3,59.6Z"/>
        <path id="path240_stroke" data-name="path240 stroke" class="cls-2" d="M95.7,58v0Zm.6,1.6c0,.3-.2.5-.6.5h0v2a2.6,2.6,0,0,0,2.6-2.5h-2Zm-.6.5a.5.5,0,0,1-.5-.5h-2a2.5,2.5,0,0,0,2.5,2.5v-2Zm-.5-.5a.6.6,0,0,1,.5-.6V57a2.5,2.5,0,0,0-2.5,2.6h2Zm.5-.6a.6.6,0,0,1,.6.6h2A2.5,2.5,0,0,0,95.7,57Z"/>
        <path id="path241_stroke" data-name="path241 stroke" class="cls-2" d="M78.6,55.3a1.1,1.1,0,0,0,1.4.3,1,1,0,0,0,.3-1.4Zm-6.1-1.8v1h0Zm-7.3.3a.9.9,0,0,0-.6,1.2,1,1,0,0,0,1.2.7l-.6-1.9Zm14.3.9.8-.5h0c0-.1-.1-.1-.1-.2l-.4-.3a4.9,4.9,0,0,0-1.3-.8,11.9,11.9,0,0,0-6.1-.4l.2,2c2.8-.4,4.3-.1,5.2.3a1.4,1.4,0,0,1,.7.4h.1l.9-.6Zm-7.1-2.2a43.4,43.4,0,0,0-5.2.8l-1.9.4h-.1l.3.9.3,1h.4l1.4-.3a28.9,28.9,0,0,1,5-.8Z"/>
        <path id="path242_stroke" data-name="path242 stroke" class="cls-2" d="M90.7,56.9a.9.9,0,0,0-1,1,1,1,0,0,0,1,1Zm9.2,2a1.1,1.1,0,0,0,1-1,1,1,0,0,0-1-1Zm-9.2,0h9.2v-2H90.7Z"/>
        <path id="path243_stroke" data-name="path243 stroke" class="cls-2" d="M73.6,79.8a.9.9,0,0,0-1,1,1,1,0,0,0,1,1Zm18,2a1.1,1.1,0,0,0,1-1,1,1,0,0,0-1-1Zm-18,0h9.3v-2H73.6Zm9.3,0h8.7v-2H82.9Z"/>
        <path id="path244_fill" data-name="path244 fill" class="cls-4" d="M76.4,80.8H89.3a6,6,0,0,1-5.5,3.8C79.6,84.6,76.4,80.8,76.4,80.8Z"/>
        <path id="path245_stroke" data-name="path245 stroke" class="cls-2" d="M76.4,80.8v-1a1,1,0,0,0-1,1,.9.9,0,0,0,.3.6Zm12.9,0,.9.3a1,1,0,0,0-.6-1.3h-.3Zm-5.5,3.8v1h0Zm-7.4-2.8H89.3v-2H76.4Zm12.9-1-1-.3h0v.2a7.1,7.1,0,0,1-1,1.4,4.5,4.5,0,0,1-3.5,1.6v2a6.6,6.6,0,0,0,5-2.2,5.7,5.7,0,0,0,1.3-2.1.3.3,0,0,0,.1-.2h0l-.9-.3Zm-5.5,2.8a8.4,8.4,0,0,1-4.7-1.7l-1.8-1.6c0-.1-.1-.1-.1-.2l-.8.7-.7.6h.2l.4.5L78,83.5a10.1,10.1,0,0,0,5.8,2.1v-2Z"/>
        <path id="path246_fill" data-name="path246 fill" class="cls-5" d="M76.8,20C55.7,19,42,35.9,42,50.9v44s6.6,5.6,18.1,5.6V56.1a6.7,6.7,0,0,1,6.7-6.6h.6A6.6,6.6,0,0,0,74,43.1a6.6,6.6,0,0,0,6.6,6.4H99.8V70.9c0,12.1-6,21.7-11.4,25.9v3.4c11.2,0,16.6-4,16.6-4v-47C105.1,33.8,94.9,20.9,76.8,20Z"/>
        <path id="path247_stroke" data-name="path247 stroke" class="cls-2" d="M76.8,20v1h0ZM42,94.9H41a.9.9,0,0,0,.4.8l.6-.8Zm18.1,5.6v1a1,1,0,0,0,1-1ZM74,43.1h1a1.1,1.1,0,0,0-1-1,1,1,0,0,0-1,1Zm25.8,6.4h1a1.1,1.1,0,0,0-1-1ZM88.4,96.8l-.6-.8a.9.9,0,0,0-.4.8Zm0,3.4h-1a1,1,0,0,0,1,1Zm16.6-4,.6.8a1.2,1.2,0,0,0,.4-.8Zm0-47h0ZM76.8,19C55.1,18,41,35.4,41,50.9h2C43,36.5,56.2,20,76.7,21ZM41,50.9v44h2v-44Zm1,44-.6.8h0l.3.2,1,.7a18.5,18.5,0,0,0,3.6,2,34.3,34.3,0,0,0,13.8,2.9v-2a31.9,31.9,0,0,1-12.9-2.7,27.4,27.4,0,0,1-3.4-1.9l-1.1-.7h-.1l-.6.8Zm19.1,5.6v-19h-2v19Zm0-19V56.1h-2V81.5Zm0-25.4a5.6,5.6,0,0,1,5.7-5.6v-2a7.6,7.6,0,0,0-7.7,7.6Zm5.7-5.6h.6v-2h-.6Zm.6,0A7.6,7.6,0,0,0,75,43.1H73a5.7,5.7,0,0,1-5.6,5.5ZM73,43.1a7.6,7.6,0,0,0,7.6,7.4v-2A5.7,5.7,0,0,1,75,43Zm7.6,7.4H99.8v-2H80.6Zm18.2-1V70.9h2V49.5Zm0,21.4C98.8,82.7,93,92,87.8,96L89,97.6c5.7-4.4,11.8-14.2,11.8-26.7ZM87.4,96.8v3.4h2V96.8Zm1,4.4a35.5,35.5,0,0,0,12.8-2.1l3.3-1.4,1-.7h.1l-.6-.8-.6-.8h0l-.9.5a16,16,0,0,1-3,1.3,33.7,33.7,0,0,1-12.1,2Zm16.6-5h1v-47h-2v47Zm1-47a30.3,30.3,0,0,0-7.5-20.7c-5-5.5-12.4-9-21.7-9.5v2c8.8.5,15.7,3.8,20.3,8.9a27.6,27.6,0,0,1,7,19.3Z"/>
        <path id="path248_stroke" data-name="path248 stroke" class="cls-2" d="M89.7,54.2a1,1,0,1,0,1.7,1.1h0Zm7.8-.7.2-1h0l-.2,1Zm2.3,1.2a1,1,0,1,0,.2-1.9h0Zm-9.3,0,.9.6h.1a1.4,1.4,0,0,1,.7-.4c.9-.4,2.4-.7,5.2-.3l.3-2a12.3,12.3,0,0,0-6.2.4,4.9,4.9,0,0,0-1.3.8c-.2.1-.3.3-.4.4h-.1l.8.5Zm6.9-.3a10.5,10.5,0,0,0,2.4.3l.2-1.9-2.3-.3-.3,2Z"/>
        <path id="path249_stroke" data-name="path249 stroke" class="cls-2" d="M73.1,43a.9.9,0,0,0,1,1,1,1,0,0,0,1-1ZM71.5,32.3l-.9.4h0ZM54.4,25.7a1,1,0,0,0-.4,1.4.9.9,0,0,0,1.3.4ZM75.1,43c0-2.5-.5-7.5-2.8-11.2l-1.7,1c2,3.2,2.5,7.8,2.5,10.2ZM71.5,32.3l.9-.4h0c0-.1-.1-.1-.1-.2l-.2-.3a6.6,6.6,0,0,0-.8-1.3,16.7,16.7,0,0,0-3.2-3.5,12.3,12.3,0,0,0-5.7-2.4,14.5,14.5,0,0,0-8,1.5l.9,1.8a11.5,11.5,0,0,1,6.8-1.3,8.8,8.8,0,0,1,4.7,2,16,16,0,0,1,2.9,3,7.2,7.2,0,0,0,.7,1.1.5.5,0,0,0,.2.4h0l.9-.4Z"/>
        <path id="path250_stroke" data-name="path250 stroke" class="cls-2" d="M43.9,94.3a1.1,1.1,0,0,0,1,1,1,1,0,0,0,1-1ZM57,30.1a1.1,1.1,0,0,0,.2-1.4,1,1,0,0,0-1.4-.2ZM45.9,94.3V51.4h-2V94.3Zm0-42.9c0-7.8,4.1-15.9,11.1-21.3l-1.2-1.6C48.3,34.3,43.9,43,43.9,51.4Z"/>
        <path id="path251_stroke" data-name="path251 stroke" class="cls-2" d="M101.7,37.9a1,1,0,0,0-1.9.7h0Zm-1,3.4a1,1,0,0,0,1.3.6.9.9,0,0,0,.6-1.2Zm-.9-2.6a15.8,15.8,0,0,1,.9,2.6l1.9-.6-.9-2.8Z"/>
        <path id="path252_stroke" data-name="path252 stroke" class="cls-2" d="M69.3,21.7a1,1,0,0,0,.4,2Zm7.4.6v1h.1v-1ZM98.1,35.1a1,1,0,0,0,1.4.4,1.1,1.1,0,0,0,.4-1.4l-1.8,1ZM69.7,23.7a45.3,45.3,0,0,1,5.3-.5v-2a34.5,34.5,0,0,0-5.7.5l.4,2Zm5.3-.5h1.6l.2-2H75Zm1.7.1c9.7.5,17.3,5,21.4,11.8l1.8-1C95.3,26.6,87,21.8,76.8,21.3Z"/>
      </g>
    </symbol>
  </defs>
  <title>head2</title>
  <g id="Layer_2" data-name="Layer 2">
    <g id="Layer_1-2" data-name="Layer 1">
      <use width="147" height="147" transform="matrix(1, 0, 0, 1, 0, 0)" xlink:href="#head3"/>
    </g>
  </g>
</svg>