<?xml version="1.0" encoding="utf-8"?>
<svg viewBox="0 0 147 147" xmlns="http://www.w3.org/2000/svg" xmlns:xlink="http://www.w3.org/1999/xlink">
  <defs>
    <style>.cls-1{fill:#f2ddc9;}.cls-2{fill:#fe6067;}.cls-3{fill:#85353a;}.cls-4{fill:#ffa956;}.cls-5{fill:#fff;}.cls-6{fill:#dd584a;}</style>
    <symbol id="head7" data-name="head7" viewBox="0 0 147 147">
      <g id="head7-3" data-name="head7">
        <path id="path0_fill" data-name="path0 fill" class="cls-1" d="M147,73.5A73.5,73.5,0,1,1,73.5,0,73.5,73.5,0,0,1,147,73.5Z" style="fill: rgb(255, 255, 255);"/>
        <path id="path154_fill" data-name="path154 fill" class="cls-2" d="M73.3,94.1s30.2,6.2,37.8,10.4a14.8,14.8,0,0,1,7.9,11.8s-12.9,8.1-45.5,8.1S28,116.3,28,116.3a14.8,14.8,0,0,1,7.9-11.8C43.6,100.3,73.3,94.1,73.3,94.1Z"/>
        <path id="path155_stroke" data-name="path155 stroke" class="cls-3" d="M73.3,94.1l.2-1h-.4ZM119,116.3l.5.8a1,1,0,0,0,.5-.8Zm-91,0H27a1,1,0,0,0,.5.8l.5-.8Zm7.9-11.8-.5-.9h0ZM73.3,94.1l-.2,1h.1l1.2.2,14.7,3.4c4.3,1,8.7,2.2,12.6,3.4a47.6,47.6,0,0,1,9,3.3l.9-1.8a56.2,56.2,0,0,0-9.3-3.5L89.6,96.8c-5.3-1.3-10.6-2.6-16-3.7h-.1l-.2,1Zm37.4,11.3a13.5,13.5,0,0,1,6.3,6.9,16.1,16.1,0,0,1,.9,2.9c0,.3.1.7.1,1.1h2a5,5,0,0,0-.2-1.2,15.3,15.3,0,0,0-8.2-11.3Zm8.3,10.9-.5-.9h0l-.6.3-1.8.8a51.1,51.1,0,0,1-7.9,2.8c-7.2,2-18.5,4-34.7,4v2c16.4,0,27.8-2,35.2-4.1a57.5,57.5,0,0,0,8.2-2.8l2-1,.6-.4h0Zm-45.5,7.1c-16.2,0-27.5-2-34.7-4a51.1,51.1,0,0,1-7.9-2.8l-1.8-.8-.6-.4-.5.9-.5.8h.2l.4.3,2,1a57.5,57.5,0,0,0,8.2,2.8c7.4,2.1,18.8,4.1,35.2,4.1v-2ZM28,116.3h1V116c0-.2.1-.4.1-.8a21.8,21.8,0,0,1,.9-2.9,13.5,13.5,0,0,1,6.3-6.9l-.9-1.8a15.3,15.3,0,0,0-8.2,11.3,5,5,0,0,0-.2,1.2v.2h1Zm8.3-10.9a50.5,50.5,0,0,1,9-3.3c3.8-1.2,8.3-2.4,12.4-3.4s10.5-2.5,15.8-3.6h0l-.2-1-.2-1H73l-1.2.3c-4.8,1-9.7,2.2-14.5,3.4l-12.6,3.3a56.2,56.2,0,0,0-9.3,3.5Z"/>
        <path id="path314_fill" data-name="path314 fill" class="cls-4" d="M91.8,122.5a163.3,163.3,0,0,1-18.3.9c-4.9,0-9.4-.2-13.5-.5,2.4-5.2,8.6-8.9,16-8.9S89.3,117.5,91.8,122.5Z"/>
        <path id="path156_fill" data-name="path156 fill" class="cls-5" d="M87.6,101.3s-4.4,3.5-14.7,3.5-14.7-3.5-14.7-3.5V60.6H87.6Z"/>
        <path id="path157_stroke" data-name="path157 stroke" class="cls-3" d="M87.6,101.3l.6.8a.9.9,0,0,0,.4-.8Zm-29.4,0h-1a1.2,1.2,0,0,0,.4.8Zm0-40.7v-1a1,1,0,0,0-1,1Zm29.4,0h1a.9.9,0,0,0-1-1Zm0,40.7-.6-.8h0l-.7.5-2.5,1.1a30.4,30.4,0,0,1-10.9,1.7v2A33.9,33.9,0,0,0,84.4,104a15.1,15.1,0,0,0,2.9-1.3l.9-.5h0Zm-14.7,2.5A30,30,0,0,1,62,102.1L59.6,101a1.8,1.8,0,0,1-.7-.5h0l-.7.8-.6.8h.1c0,.1.1.1.2.2l.7.4a17.2,17.2,0,0,0,2.7,1.3,34.1,34.1,0,0,0,11.6,1.8Zm-13.7-2.5V60.6h-2v40.7Zm-1-39.7H87.6v-2H58.2Zm28.4-1v40.7h2V60.6Z"/>
        <path id="path12_fill" data-name="path12 fill" class="cls-5" d="M98.5,60.6a4.3,4.3,0,0,0,4.3-4.3h0a4.4,4.4,0,0,0-4.3-4.4H96.1v8.7Z"/>
        <path id="path13_stroke" data-name="path13 stroke" class="cls-3" d="M96.1,51.9v-1a1,1,0,0,0-1,1Zm0,8.7h-1a1,1,0,0,0,1,1Zm2.4,1a5.3,5.3,0,0,0,5.3-5.3h-2a3.3,3.3,0,0,1-3.3,3.3h0v2Zm5.3-5.3a5.4,5.4,0,0,0-5.3-5.4h0v2a3.3,3.3,0,0,1,3.3,3.3h2Zm-5.3-5.4H96.1v2h2.4v-2Zm-3.4,1v8.7h2V51.9Zm1,9.7h2.4v-2H96.1Z"/>
        <path id="path14_fill" data-name="path14 fill" class="cls-5" d="M53.7,32.2V58.7c0,21.8,15.2,29.4,19.1,30.9s11.6,2.5,16.4-1S96,81,97.6,76.2a46,46,0,0,0,1.9-13.3V32.2Z"/>
        <path id="path15_stroke" data-name="path15 stroke" class="cls-3" d="M72.8,89.6l.4-1h0Zm16.4-1-.6-.8h0Zm8.4-12.4.9.3h0Zm1.9-44h1v-1h-1Zm-46.8,0V58.7h2V32.2Zm0,26.5c0,22.4,15.6,30.3,19.8,31.8l.7-1.9C69.4,87.3,54.7,80,54.7,58.7ZM72.5,90.5c5.4,2,12.1,2.7,17.3-1.1l-1.2-1.6c-4.4,3.2-10.2,2.8-15.4.8Zm17.3-1.1c4.4-3.2,7.1-8,8.7-12.9l-1.9-.6a23.9,23.9,0,0,1-8,11.9Zm8.7-12.9a45.3,45.3,0,0,0,2-13.6h-2a40.9,40.9,0,0,1-1.9,13l1.9.6Zm2-13.6V32.2h-2V62.9Zm-1-31.7H53.7v2H99.5Z"/>
        <path id="path23_stroke" data-name="path23 stroke" class="cls-3" d="M81,62.8a.9.9,0,0,0-1,1,1,1,0,0,0,1,1Zm2.2-5h-1a1,1,0,0,0,1,1Zm1-6a1.1,1.1,0,0,0-1-1,1,1,0,0,0-1,1ZM81,64.8h3.6v-2H81Zm3.6,0a4,4,0,0,0,4-4h-2a2,2,0,0,1-1.9,2h-.1v2Zm4-4a3.9,3.9,0,0,0-3.9-4h-.1v2a1.9,1.9,0,0,1,2,2Zm-4-4H83.2v2h1.4Zm-.4,1v-6h-2v6Z"/>
        <path id="path24_fill" data-name="path24 fill" class="cls-3" d="M73.2,51.5a1.8,1.8,0,0,1-1.8,1.7,1.8,1.8,0,0,1-1.7-1.7,1.8,1.8,0,0,1,1.7-1.8,1.8,1.8,0,0,1,1.8,1.8Z"/>
        <path id="path25_stroke" data-name="path25 stroke" class="cls-3" d="M72.2,51.5a.7.7,0,0,1-.8.7v2a2.7,2.7,0,0,0,2.8-2.7Zm-.8.7a.7.7,0,0,1-.7-.7h-2a2.8,2.8,0,0,0,2.7,2.7Zm-.7-.7a.8.8,0,0,1,.7-.8v-2a2.8,2.8,0,0,0-2.7,2.8Zm.7-.8a.7.7,0,0,1,.8.8h2a2.8,2.8,0,0,0-2.7-2.8h-.1Z"/>
        <path id="path26_stroke" data-name="path26 stroke" class="cls-3" d="M66.2,48.7a1,1,0,0,0-1,1,.9.9,0,0,0,1,1Zm10.4,2a1,1,0,0,0,1-1,1.1,1.1,0,0,0-1-1Zm-10.4,0H76.6v-2H66.2Z"/>
        <path id="path27_fill" data-name="path27 fill" class="cls-3" d="M96.3,51.5a1.8,1.8,0,0,1-1.7,1.7,1.8,1.8,0,0,1-1.8-1.7,1.8,1.8,0,0,1,1.8-1.8,1.8,1.8,0,0,1,1.7,1.8Z"/>
        <path id="path28_stroke" data-name="path28 stroke" class="cls-3" d="M95.3,51.5a.7.7,0,0,1-.7.7v2a2.7,2.7,0,0,0,2.7-2.7Zm-.7.7a.8.8,0,0,1-.8-.7h-2a2.8,2.8,0,0,0,2.8,2.7Zm-.8-.7a.9.9,0,0,1,.8-.8v-2a2.8,2.8,0,0,0-2.8,2.8Zm.8-.8a.8.8,0,0,1,.7.8h2a2.8,2.8,0,0,0-2.7-2.8Z"/>
        <path id="path29_stroke" data-name="path29 stroke" class="cls-3" d="M89.3,48.7a1,1,0,0,0-1,1,.9.9,0,0,0,1,1Zm9.2,2a.9.9,0,0,0,1-1,1,1,0,0,0-1-1Zm-9.2,0h9.2v-2H89.3Z"/>
        <path id="path158_stroke" data-name="path158 stroke" class="cls-3" d="M64,45.2a1,1,0,0,0,0,2Zm14.9,2a1,1,0,0,0,0-2ZM64,47.2H78.9v-2H64Z"/>
        <path id="path31_stroke" data-name="path31 stroke" class="cls-3" d="M86.3,45.2a1,1,0,0,0,0,2Zm13.2,2a1,1,0,0,0,0-2Zm-13.2,0H99.5v-2H86.3Z"/>
        <path id="path32_fill" data-name="path32 fill" class="cls-6" d="M107,32.3A23.5,23.5,0,0,1,96.7,25c-3.1-4.4-9-8-20.1-8-6.4,0-13.8,0-15.2,8.1-8.2-.9-10.6,5.7-10.6,9V44.4c0,3.3,2.9,13.7,2.9,13.7s6.7-2.4,6.7-11.4V43.6a4.6,4.6,0,0,1,4.5-3.8h.3s5.6.4,6.6-5v0c1,5.4,6.7,5,6.7,5h21a7.6,7.6,0,0,0,7.5-7.5Z"/>
        <path id="path33_stroke" data-name="path33 stroke" class="cls-3" d="M107,32.3h1a1,1,0,0,0-.7-1ZM96.7,25l-.8.6h0l.8-.6Zm-35.3.1v1a.9.9,0,0,0,1-.8Zm-7.7,33-.9.3a1,1,0,0,0,1.2.7h.1Zm6.7-14.5-1-.2v.2Zm4.5-3.8v-1h-.1Zm.3,0v-1h-.1Zm6.6-5h0Zm1-1.7a.9.9,0,0,0-1-1,1,1,0,0,0-1,1Zm-1,1.7h0Zm6.7,5v-1h-.1v1Zm21,0v1a1,1,0,0,0,1-1Zm0,0v-1a.9.9,0,0,0-1,1h1Zm7.5-7.5.3-1h0l-.9-.3-2.3-1.1a22.1,22.1,0,0,1-6.6-5.6l-1.6,1.3a24.3,24.3,0,0,0,7.2,6l2.6,1.3,1,.3h.1Zm-9.5-7.9C94.2,19.7,88,16,76.6,16v2c10.9,0,16.4,3.6,19.3,7.6ZM76.6,16c-3.2,0-6.8,0-9.8,1.1a8.7,8.7,0,0,0-4.1,2.7,10.5,10.5,0,0,0-2.3,5.1l1.9.4a8.6,8.6,0,0,1,1.9-4.2A7.5,7.5,0,0,1,67.4,19c2.7-1,5.9-1,9.2-1V16ZM61.5,24.1c-4.4-.5-7.4,1.1-9.2,3.3a11.2,11.2,0,0,0-2.5,6.7h2a9.3,9.3,0,0,1,2-5.4c1.4-1.7,3.7-3,7.5-2.6l.2-2Zm-11.7,10V44.4h2V34.1Zm0,10.3a20,20,0,0,0,.5,3.7c.3,1.6.6,3.1,1,4.6l1.5,5.7h0l.9-.3,1-.3h0c-.2-.5-.3-1-.5-1.5l-.9-3.9a40.8,40.8,0,0,1-1-4.5,21.1,21.1,0,0,1-.5-3.4Zm3.9,13.7.4,1h.1l1.1-.5a15.7,15.7,0,0,0,2.5-2,13.7,13.7,0,0,0,3.6-9.8h-2a11.7,11.7,0,0,1-3.1,8.4,10,10,0,0,1-2,1.6l-.9.5h0Zm7.7-11.4V44.9h-2v1.8Zm0-1.8Zm0,0V43.6h-2v1.3Zm0-1.1A3,3,0,0,1,63,41.4a6.7,6.7,0,0,1,1.9-.6v-2a8.7,8.7,0,0,0-2.8.8,5.2,5.2,0,0,0-2.6,3.8Zm3.5-3h.3v-2h-.3Zm.3-1v1h.1a2.7,2.7,0,0,0,.9,0,8.6,8.6,0,0,0,2.3-.5,6.7,6.7,0,0,0,4.3-5.4l-2-.3a4.6,4.6,0,0,1-3,3.8,5.3,5.3,0,0,1-2.5.4h0Zm7.6-5V33.1h-2v1.7Zm-2-1.7v1.7h2V33.1Zm0,1.8a6.8,6.8,0,0,0,4.4,5.4,7.4,7.4,0,0,0,3.3.5h0s.1,0,0-1v-1h-.2a5.9,5.9,0,0,1-2.3-.4,4.7,4.7,0,0,1-3.1-3.8Zm7.7,5.9h21v-2h-21Zm21-1h0Zm0,1a8.5,8.5,0,0,0,8.5-8.5h-2a6.5,6.5,0,0,1-6.5,6.5Z"/>
        <path id="path35_stroke" data-name="path35 stroke" class="cls-3" d="M73.2,70.9a1,1,0,0,0-1,1,.9.9,0,0,0,1,1Zm17.8,2a1,1,0,0,0,1-1,1.1,1.1,0,0,0-1-1Zm-17.8,0h9.2v-2H73.2Zm9.2,0H91v-2H82.4Z"/>
        <path id="path36_fill" data-name="path36 fill" class="cls-5" d="M76,71.9H88.7s-1.3,4.4-5.4,4.4S76,71.9,76,71.9Z"/>
        <path id="path37_stroke" data-name="path37 stroke" class="cls-3" d="M76,71.9v-1H74l1.2,1.6Zm12.7,0,1,.3.4-1.3H88.7Zm-5.4,4.4v0ZM76,72.9H88.7v-2H76Zm12.7-1-.9-.3h0l-.3.6a3.5,3.5,0,0,1-.8,1.3,4,4,0,0,1-3.4,1.8v2a6,6,0,0,0,5-2.6,7,7,0,0,0,1.3-2.4h.1l-1-.3Zm-5.4,3.4a7.9,7.9,0,0,1-4.6-1.9l-1.8-1.9c0-.1-.1-.1-.1-.2l-.8.6-.8.6h.2a14.5,14.5,0,0,0,2.1,2.2,8.8,8.8,0,0,0,5.8,2.4Z"/>
        <path id="path38_fill" data-name="path38 fill" class="cls-5" d="M53.1,51.9a4.3,4.3,0,0,0-4.3,4.3h0a4.3,4.3,0,0,0,4.3,4.3h2.4V51.9Z"/>
        <path id="path39_fill" data-name="path39 fill" class="cls-3" d="M55.5,61.5H53.1a5.2,5.2,0,0,1-5.2-5.2,5.2,5.2,0,0,1,5.2-5.2h2.4v1.7H53.1a3.5,3.5,0,0,0-3.5,3.5,3.5,3.5,0,0,0,3.5,3.4h2.4Z"/>
      </g>
    </symbol>
  </defs>
  <title>head7</title>
  <g id="Layer_2" data-name="Layer 2">
    <g id="Layer_1-2" data-name="Layer 1">
      <use width="147" height="147" transform="matrix(1, 0, 0, 1, 0, 0)" xlink:href="#head7"/>
    </g>
  </g>
</svg>