<?xml version="1.0" encoding="utf-8"?>
<svg viewBox="0 0 147 147" xmlns="http://www.w3.org/2000/svg" xmlns:xlink="http://www.w3.org/1999/xlink">
  <defs>
    <style>.cls-1{fill:#f2ddc9;}.cls-2{fill:#ffa956;}.cls-3{fill:#85353a;}.cls-4{fill:#fff;}.cls-5{fill:#dd584a;}.cls-6{fill:#fe6067;}.cls-7{fill:#fffbd5;}</style>
    <symbol id="head4" data-name="head4" viewBox="0 0 147 147">
      <g id="head4-3" data-name="head4">
        <path id="path0_fill" data-name="path0 fill" class="cls-1" d="M147,73.5A73.5,73.5,0,1,1,73.5,0,73.5,73.5,0,0,1,147,73.5Z" style="fill: rgb(255, 255, 255);"/>
        <path id="path198_fill" data-name="path198 fill" class="cls-2" d="M71.8,95.9s30.5,4.7,38.3,8.6,7.9,10.9,7.9,10.9S104.9,123,72,123s-46-7.6-46-7.6.2-7.1,7.9-10.9S71.8,95.9,71.8,95.9Z"/>
        <path id="path199_stroke" data-name="path199 stroke" class="cls-3" d="M71.8,95.9l.2-1h-.3ZM118,115.4l.5.9a1.1,1.1,0,0,0,.5-.9Zm-92,0H25a1.1,1.1,0,0,0,.5.9Zm7.9-10.9-.4-.9h0l.4.9Zm37.9-8.6v1h.1l1.2.2,14.8,2.6c4.3.8,8.8,1.8,12.8,2.8a53,53,0,0,1,9,2.9l.9-1.8a55.6,55.6,0,0,0-9.5-3.1c-3.9-1-8.5-1.9-12.8-2.8L72,94.9h0Zm37.8,9.5a12.6,12.6,0,0,1,6.4,6.4,13.4,13.4,0,0,1,.9,2.6c0,.4.1.7.1,1h2a5,5,0,0,0-.2-1.2,15.8,15.8,0,0,0-.9-3.1,15.4,15.4,0,0,0-7.4-7.4l-.9,1.8Zm8.4,10-.5-.8h0l-2.4,1.1a60.6,60.6,0,0,1-8,2.5C99.8,120.1,88.4,122,72,122v2c16.5,0,28.1-1.9,35.6-3.8a59.9,59.9,0,0,0,8.2-2.7l2-.8.6-.4h.1ZM72,122c-16.4,0-27.8-1.9-35.1-3.8a60.6,60.6,0,0,1-8-2.5l-1.8-.8-.6-.3h0l-.5.8-.5.9h.2l.5.3,2,.8a59.9,59.9,0,0,0,8.2,2.7c7.5,1.9,19.1,3.8,35.6,3.8Zm-46-6.6h1c0-.3.1-.6.1-1a20.6,20.6,0,0,1,.9-2.6,12.6,12.6,0,0,1,6.4-6.4l-.9-1.8a15.4,15.4,0,0,0-7.4,7.4,15.8,15.8,0,0,0-.9,3.1,5,5,0,0,0-.2,1.2h1Zm8.4-10a53,53,0,0,1,9-2.9c3.9-1,8.4-2,12.6-2.8s10.6-2,16-2.8h0l-.2-1v-1h-.1l-1.2.2L55.6,97.7c-4.2.9-8.7,1.8-12.7,2.8a57.1,57.1,0,0,0-9.4,3.1Z"/>
        <path id="path200_stroke" data-name="path200 stroke" class="cls-3" d="M74.1,105c-.3,0-.4-.2-.2,0a5,5,0,0,1,.3,1.2,29.1,29.1,0,0,1,.3,4.7c0,3.8-.1,8.4-.1,11.8h2c0-3.3.1-8,.1-11.9a24.7,24.7,0,0,0-.4-5,4.8,4.8,0,0,0-.5-1.7,1.7,1.7,0,0,0-1.5-1.1Z"/>
        <path id="path75_fill" data-name="path75 fill" class="cls-4" d="M49.2,48.3V94.5c0,12.3,22.7,15.1,28.1,15.1s16.1-2.8,16.1-15.1V48.3Z"/>
        <path id="path76_stroke" data-name="path76 stroke" class="cls-3" d="M93.4,48.3h1v-1h-1Zm-45.2,0V94.5h2V48.3Zm0,46.2a10.7,10.7,0,0,0,4,8.3,25.3,25.3,0,0,0,8.7,4.8,56.4,56.4,0,0,0,16.4,3v-2a54.7,54.7,0,0,1-15.7-2.9,23.2,23.2,0,0,1-8.1-4.4,8.6,8.6,0,0,1-3.3-6.8Zm29.1,16.1a19.8,19.8,0,0,0,10.6-3.1c3.6-2.4,6.5-6.5,6.5-13h-2c0,5.8-2.5,9.3-5.6,11.3a18.2,18.2,0,0,1-9.5,2.8ZM94.4,94.5V48.3h-2V94.5Zm-1-47.2H49.2v2H93.4Z"/>
        <path id="path77_fill" data-name="path77 fill" class="cls-4" d="M50.2,61.1a4.2,4.2,0,0,0,0,8.4h2.3V61.1Z"/>
        <path id="path78_fill" data-name="path78 fill" class="cls-3" d="M52.5,70.3H50.2a5,5,0,0,1-5-5,5.1,5.1,0,0,1,5-5h2.3v1.6H50.2a3.4,3.4,0,0,0-3.4,3.4h0a3.4,3.4,0,0,0,3.4,3.4h2.3v1.6Z"/>
        <path id="path201_fill" data-name="path201 fill" class="cls-5" d="M78.9,92c-2.4,0-3.1,3.5-4.6,3.9-8.2,2-20.6,2.8-20.6-7.9V81.3a4.3,4.3,0,0,0-4.5-4.7v18c0,12.3,22.8,15,28.1,15s16.1-2.7,16.1-15V93.2c-2,3.5-5.1,4.7-10,2.9C82,95.5,81.3,92,78.9,92Z"/>
        <path id="path202_stroke" data-name="path202 stroke" class="cls-3" d="M74.3,95.9l-.2-1h0ZM49.2,76.6v-1a1.1,1.1,0,0,0-1,1ZM93.4,93.2h1a.9.9,0,0,0-1-1,.9.9,0,0,0-.8.5Zm-10,2.9-.4,1h0ZM78.9,91a4.5,4.5,0,0,0-3.5,2.2l-.8,1.3-.5.4.4,1.9a2.6,2.6,0,0,0,1.6-1.1l1-1.3c.6-1,1.1-1.4,1.8-1.4Zm-4.8,3.9c-4.1,1-9.1,1.7-13,.8a9.1,9.1,0,0,1-4.6-2.3A7.6,7.6,0,0,1,54.7,88h-2A9.8,9.8,0,0,0,55,94.7a10.9,10.9,0,0,0,5.7,3c4.4.9,9.7.2,13.8-.9ZM54.7,88V81.3h-2V88Zm0-6.7a6.2,6.2,0,0,0-.8-3.3,4.9,4.9,0,0,0-2-1.8l-1.8-.6h-.9v1a3.4,3.4,0,0,1,.1,1h.5L51,78a2.3,2.3,0,0,1,1.2,1,4.4,4.4,0,0,1,.5,2.3Zm-6.5-4.7v18h2v-18Zm0,18a11,11,0,0,0,4,8.3,27.6,27.6,0,0,0,8.8,4.8,58.5,58.5,0,0,0,16.3,2.9v-2a58,58,0,0,1-15.7-2.8,26.1,26.1,0,0,1-8.1-4.4,9.3,9.3,0,0,1-3.3-6.8Zm29.1,16a19.5,19.5,0,0,0,10.6-3.1c3.7-2.4,6.5-6.4,6.5-12.9h-2c0,5.8-2.5,9.2-5.6,11.3a17.5,17.5,0,0,1-9.5,2.7v2Zm17.1-16V93.2h-2v1.4Zm-1.8-1.9a6.4,6.4,0,0,1-3.4,3,9.2,9.2,0,0,1-5.5-.5L83,97.1a10.9,10.9,0,0,0,6.8.5,8.1,8.1,0,0,0,4.5-3.9l-1.7-1Zm-8.9,2.5-.5-.5-.4-.7-.5-.7A4.1,4.1,0,0,0,78.9,91v2c.6,0,1.1.4,1.8,1.4l.4.7.5.7A3,3,0,0,0,83,97.1Z"/>
        <path id="path203_fill" data-name="path203 fill" class="cls-5" d="M101.9,26a11.9,11.9,0,0,1-7.3,2.7H65.8C53.6,28.7,49,36,49,48.3V59.9s5.5.4,6.4-5v-3a4.5,4.5,0,0,1,4.4-3.7H93.2C103.6,48.3,101.9,26,101.9,26Z"/>
        <path id="path204_stroke" data-name="path204 stroke" class="cls-3" d="M101.9,26h.9a1,1,0,0,0-1-.9.7.7,0,0,0-.6.3ZM49,59.9H48a1,1,0,0,0,1,1Zm6.4-5,1,.2v-.2Zm0-3-1-.2v.2Zm4.4-3.7v-1h-.1Zm33.4,0v-1h0v1ZM101.9,26a4.6,4.6,0,0,1-.7-.7h0l-.5.3-1.3.9a10.9,10.9,0,0,1-4.8,1.2v2a12.9,12.9,0,0,0,5.7-1.5,7.4,7.4,0,0,0,1.6-1l.6-.5h0l-.6-.7Zm-7.3,1.7H65.8v2H94.6Zm-28.8,0c-6.3,0-10.8,1.9-13.7,5.6S48,42,48,48.3h2q0-9.1,3.6-13.8c2.5-3.1,6.3-4.8,12.2-4.8v-2ZM48,48.3v5h2v-5Zm0,5v6.6h2V53.3Zm1,6.6v1h1a7.9,7.9,0,0,0,2.2-.6,6.2,6.2,0,0,0,4.2-5.2l-2-.3a4.3,4.3,0,0,1-2.9,3.7,6.4,6.4,0,0,1-2.4.4h0Zm7.4-5V53.2h-2v1.7Zm0-1.7h0Zm0-.1V51.9h-2v1.2Zm0-1a3.4,3.4,0,0,1,1.5-2.4,10.8,10.8,0,0,1,1.9-.5v-2A7.7,7.7,0,0,0,57,48a5.1,5.1,0,0,0-2.6,3.7Zm3.4-2.9h.4v-2h-.4v2Zm.4,0h33v-2h-33Zm33,0a7.3,7.3,0,0,0,6.6-3.9,21,21,0,0,0,2.6-8,60.1,60.1,0,0,0,.6-7.8c0-1.1-.1-2.2-.1-3.3V26h-2v.2c0,1.1.1,2.1.1,3.2a54.8,54.8,0,0,1-.6,7.5,20.2,20.2,0,0,1-2.3,7.3,5.6,5.6,0,0,1-4.9,2.9v2Z"/>
        <path id="path205_stroke" data-name="path205 stroke" class="cls-3" d="M58.8,56.7H54.1v2h4.7Z"/>
        <path id="path206_stroke" data-name="path206 stroke" class="cls-3" d="M96.7,56.7H93.6v2h3.1Z"/>
        <path id="path207_fill" data-name="path207 fill" class="cls-5" d="M78.3,83.3c2.2,5.1,9.1,4,14,1.8A15.8,15.8,0,0,0,96.1,83c-4.6,3.4-10.2-6.6-17.5-5.8h-.4c-7.4-.8-12.9,9.2-17.6,5.8a19.1,19.1,0,0,0,3.8,2.1C69.3,87.3,76.2,88.4,78.3,83.3Z"/>
        <path id="path208_stroke" data-name="path208 stroke" class="cls-3" d="M78.3,83.3l1-.4a1.1,1.1,0,0,0-1.4-.5,1.2,1.2,0,0,0-.5.5Zm14,1.8-.4-.9h0ZM96.1,83l.6.8a.9.9,0,0,0,.2-1.3,1,1,0,0,0-1.4-.3ZM78.6,77.2v1h.1Zm-.4,0v1h.1ZM60.6,83l.6-.8a1,1,0,0,0-1.4.3,1,1,0,0,0,.3,1.3Zm3.8,2.1.4-.9h0Zm13-1.4c1.3,3,4,4.1,6.9,4.2A18.8,18.8,0,0,0,92.7,86l-.8-1.8a17.5,17.5,0,0,1-7.6,1.7,5,5,0,0,1-5-3ZM92.7,86a21.9,21.9,0,0,0,4-2.1l-1.2-1.7a15.8,15.8,0,0,1-3.6,2Zm2.8-3.8a2.6,2.6,0,0,1-2.7.3,17.7,17.7,0,0,1-3.9-2.2,31.1,31.1,0,0,0-4.7-2.9,11.4,11.4,0,0,0-5.8-1.2l.3,2a9.3,9.3,0,0,1,4.6,1,29.8,29.8,0,0,1,4.5,2.7,19.1,19.1,0,0,0,4.3,2.5,4.8,4.8,0,0,0,4.6-.6l-1.2-1.6Zm-16.9-6h-.4v2h.4Zm-.3,0a10.9,10.9,0,0,0-5.7,1.2,31.1,31.1,0,0,0-4.7,2.9A20.3,20.3,0,0,1,64,82.5a2.8,2.8,0,0,1-2.8-.3l-1.1,1.6a4.8,4.8,0,0,0,4.6.6A19.1,19.1,0,0,0,69,81.9a28.9,28.9,0,0,1,4.4-2.7,10,10,0,0,1,4.7-1ZM60.1,83.8A15.9,15.9,0,0,0,64,86l.8-1.8a17.1,17.1,0,0,1-3.6-2ZM64,86a19.1,19.1,0,0,0,8.4,1.9c2.9-.1,5.6-1.2,6.9-4.2l-1.9-.8c-.9,2.1-2.7,2.9-5,3a17.5,17.5,0,0,1-7.6-1.7L64,86Z"/>
        <path id="path209_fill" data-name="path209 fill" class="cls-6" d="M32.3,105.4v12.5a94.8,94.8,0,0,0,11.6,2.8V101.2a64.2,64.2,0,0,0-9.9,3.2l-1.7,1Z"/>
        <path id="path210_stroke" data-name="path210 stroke" class="cls-3" d="M32.3,105.4l-.5-.8a1,1,0,0,0-.5.8Zm0,12.5h-1a1.2,1.2,0,0,0,.7,1Zm11.6,2.8-.2,1a1,1,0,0,0,1.2-.8v-.2Zm0-19.5h1a1,1,0,0,0-1-1h-.2ZM34,104.4l-.4-.9h-.1Zm-2.7,1v12.5h2V105.4Zm.7,13.5a97.2,97.2,0,0,0,11.7,2.8l.4-2a77.5,77.5,0,0,1-11.5-2.8Zm12.9,1.8V101.2h-2v19.5Zm-1.2-20.4a57.9,57.9,0,0,0-10.1,3.2l.8,1.8a50.5,50.5,0,0,1,9.7-3.1Zm-10.2,3.2-1.7,1.1,1,1.7,1.7-1-1-1.8Z"/>
        <path id="path211_fill" data-name="path211 fill" class="cls-6" d="M99.3,101.1v19.8a105.4,105.4,0,0,0,11.7-2.7V105l-.9-.5C107.9,103.3,103.9,102.2,99.3,101.1Z"/>
        <path id="path212_stroke" data-name="path212 stroke" class="cls-3" d="M99.3,101.1l.3-.9a.9.9,0,0,0-1.2.7v.2Zm0,19.8h-1a1,1,0,0,0,1,1h.2Zm11.7-2.7.3,1a1,1,0,0,0,.7-1Zm0-13.2h1a1.1,1.1,0,0,0-.5-.9Zm-.9-.5-.5.9h0Zm-11.8-3.4v19.8h2V101.1Zm1.2,20.8c5-.9,8.8-1.9,11.8-2.7l-.6-1.9a109.1,109.1,0,0,1-11.5,2.6Zm12.5-3.7V105h-2v13.2Zm-.5-14.1-1-.5-.9,1.8.8.4Zm-1-.5c-2.2-1.2-6.4-2.4-10.9-3.4l-.5,1.9c4.6,1.1,8.5,2.2,10.5,3.3Z"/>
        <path id="path16_fill" data-name="path16 fill" class="cls-7" d="M60.6,55.7l16.1,1s-1.6.6-2.3,5.2-2.6,5.7-4.6,5.5l-6.9-.5s-3.4-.1-3.7-5c-.2-2.5-.3-4-.3-4.9S59.9,55.6,60.6,55.7Z"/>
        <path id="path17_stroke" data-name="path17 stroke" class="cls-3" d="M60.6,55.7v0Zm16.1,1,.3.9a1,1,0,0,0,.6-1.3.9.9,0,0,0-.9-.6v1Zm-2.3,5.2-1-.2Zm-4.6,5.5v-1h0Zm-6.9-.5v-1h-.1v1Zm-3.7-5h0ZM58.9,57h0Zm1.7-.3,16,1v-2l-16-1Zm16.1,0a4.2,4.2,0,0,0-.4-1h0l-.5.2a3.9,3.9,0,0,0-.8,1,11.8,11.8,0,0,0-1.6,4.7l2,.3a11,11,0,0,1,1.2-3.9,2.3,2.3,0,0,1,.5-.5H77l-.3-.9Zm-3.3,5c-.4,2.5-1,3.6-1.5,4.2a2.3,2.3,0,0,1-2,.5l-.2,2a4.2,4.2,0,0,0,3.6-1.1c1-1,1.7-2.7,2.1-5.3Zm-3.5,4.7-4.2-.3H63v2h2.7l4.3.3v-2Zm-7,.5v-1h-.3l-.9-.5c-.6-.4-1.4-1.4-1.5-3.5h-2a6.2,6.2,0,0,0,2.4,5.1,4,4,0,0,0,1.5.7h.7Zm-2.7-5c-.2-2.6-.3-4-.3-4.9h-2c0,.9.1,2.5.3,5ZM59.9,57a.4.4,0,0,1,.1-.3h.6v-2a3.2,3.2,0,0,0-1.6.3,1.8,1.8,0,0,0-.9.8,2.4,2.4,0,0,0-.3,1.2Z"/>
        <path id="path18_fill" data-name="path18 fill" class="cls-3" d="M72.3,57c2,.2,2.3.5,1.6,3.7l2.4-4Z"/>
        <path id="path19_stroke" data-name="path19 stroke" class="cls-3" d="M79.4,55.7H76.5v2h2.9Z"/>
        <path id="path20_fill" data-name="path20 fill" class="cls-7" d="M95.1,55.7,79,56.7s1.6.6,2.3,5.2,2.6,5.7,4.6,5.5l6.9-.5s3.5-.1,3.8-5c.1-2.5.2-4,.2-4.9A1.3,1.3,0,0,0,95.1,55.7Z"/>
        <path id="path21_stroke" data-name="path21 stroke" class="cls-3" d="M95.1,55.7v1h0ZM79,56.7v-1a1,1,0,0,0-1,1,1.1,1.1,0,0,0,.7.9l.3-.9Zm2.3,5.2,1-.2h0Zm4.6,5.5v-1h-.1Zm6.9-.5v-1h0v1Zm3.8-5h0Zm.2-4.9h0ZM95,54.7l-16,1v2l16.1-1-.2-2Zm-16,2-.3.9h0c0,.1.2.2.4.5A9.2,9.2,0,0,1,80.3,62l2-.3A12.1,12.1,0,0,0,80.8,57l-.9-1-.4-.2h-.1l-.4,1ZM80.3,62c.4,2.6,1.1,4.3,2.2,5.3A4.1,4.1,0,0,0,86,68.4l-.2-2a2.1,2.1,0,0,1-1.9-.5c-.6-.6-1.2-1.7-1.6-4.2ZM86,68.4l4.2-.3,2.7-.2h0v-2H90l-4.1.3Zm6.8-1.5v1h.7l1.6-.7A6.8,6.8,0,0,0,97.6,62h-2c-.2,2.1-1,3.1-1.6,3.5l-.9.5h-.3ZM97.6,62c.1-2.5.2-4.1.2-5h-2c0,.9-.1,2.3-.2,4.9Zm.2-5.1A2.2,2.2,0,0,0,96.6,55a3.4,3.4,0,0,0-1.6-.3l.2,2h.5a.3.3,0,0,1,.1.2Z"/>
        <path id="path22_fill" data-name="path22 fill" class="cls-3" d="M83.5,57c-2.1.2-2.3.5-1.7,3.7l-2.4-4Z"/>
        <path id="path213_stroke" data-name="path213 stroke" class="cls-3" d="M77.7,74a1,1,0,0,0-1,1,.9.9,0,0,0,1,1Zm2.1-4.8-1,.2a1,1,0,0,0,1,.8Zm-.1-5.9a1,1,0,0,0-1.2-.8,1,1,0,0,0-.8,1.1ZM77.7,76h3.5V74H77.7Zm3.5,0A3.8,3.8,0,0,0,85,72.2H83A1.8,1.8,0,0,1,81.2,74ZM85,72.1a3.9,3.9,0,0,0-3.8-3.9v2A1.9,1.9,0,0,1,83,72.1Zm-3.8-3.9H79.8v2h1.4Zm-.4.9-1.1-5.8-2,.3,1.1,5.8Z"/>
        <path id="path85_fill" data-name="path85 fill" class="cls-3" d="M86.7,61.1a1.7,1.7,0,1,0,3.4,0,1.7,1.7,0,1,0-3.4,0Z"/>
        <path id="path86_stroke" data-name="path86 stroke" class="cls-3" d="M88.4,59.4v-1h-.1Zm-2.7,1.7a2.6,2.6,0,0,0,2.7,2.7v-2a.7.7,0,0,1-.7-.7Zm2.7,2.7a2.7,2.7,0,0,0,2.7-2.7h-2a.7.7,0,0,1-.7.7v2Zm2.7-2.7a2.8,2.8,0,0,0-2.7-2.7v2a.8.8,0,0,1,.7.7Zm-2.8-2.7a2.7,2.7,0,0,0-2.6,2.7h2a.7.7,0,0,1,.7-.7v-2Z"/>
        <path id="path87_stroke" data-name="path87 stroke" class="cls-3" d="M92.8,60.4a1,1,0,0,0,1.3-.6,1.1,1.1,0,0,0-.7-1.3h0Zm-9.2-1.9a1,1,0,1,0,.7,1.9l-.7-1.9Zm9.8,0a16.1,16.1,0,0,0-6.9-.6l-2.1.4-.8.2h0l.3,1,.4.9h.1l.5-.2,1.8-.3a15.7,15.7,0,0,1,6.1.5l.6-1.9Z"/>
        <path id="path214_fill" data-name="path214 fill" class="cls-3" d="M68,61.1a1.7,1.7,0,1,1-1.7-1.7A1.8,1.8,0,0,1,68,61.1Z"/>
        <path id="path215_stroke" data-name="path215 stroke" class="cls-3" d="M66.3,59.4v-1h-.1Zm.7,1.7a.7.7,0,0,1-.7.7v2A2.7,2.7,0,0,0,69,61.1Zm-.7.7a.7.7,0,0,1-.7-.7h-2a2.7,2.7,0,0,0,2.7,2.7v-2Zm-.7-.7a.7.7,0,0,1,.7-.7v-2a2.8,2.8,0,0,0-2.7,2.7Zm.6-.7a.8.8,0,0,1,.8.7h2a2.7,2.7,0,0,0-2.6-2.7l-.2,2Z"/>
        <path id="path90_stroke" data-name="path90 stroke" class="cls-3" d="M61.9,58.5a.9.9,0,0,0-.7,1.2.9.9,0,0,0,1.2.7ZM71,60.4a.9.9,0,0,0,1.2-.6,1.1,1.1,0,0,0-.5-1.3L71,60.4Zm-8.6,0a15.8,15.8,0,0,1,6.1-.5l1.8.3.7.2h0l.3-.9.4-1h-.1l-.8-.2-2.1-.4a16.9,16.9,0,0,0-6.8.6l.5,1.9Z"/>
        <path id="path216_stroke" data-name="path216 stroke" class="cls-3" d="M99.2,39.7a1.1,1.1,0,0,0-.8-1.2.9.9,0,0,0-1.1.7Zm-3.3,4.7-.7-.7h0l.7.7ZM59.7,45.5v-1h0v1ZM53,48.2a1,1,0,0,0,1.7,1.1Zm44.3-9a11.1,11.1,0,0,1-2.1,4.5l1.5,1.4a13.6,13.6,0,0,0,2.5-5.4l-1.9-.5Zm-2.1,4.5a2.5,2.5,0,0,1-1.9.8v2A4.3,4.3,0,0,0,96.7,45Zm-1.9.8H59.8v2H93.3Zm-33.5,0h-.1v2h.1Zm-.1.1A8.2,8.2,0,0,0,53,48.2l1.7,1.1a6.4,6.4,0,0,1,5.1-2.8v-2Z"/>
        <path id="path217_stroke" data-name="path217 stroke" class="cls-3" d="M100.1,34a.9.9,0,0,0-.9-1.1,1.2,1.2,0,0,0-1.1.9l2,.2Zm-2.3,2.7a1,1,0,0,0,.8,1.2,1,1,0,0,0,1.1-.8Zm.3-2.9c-.1,1.1-.2,2.1-.3,2.9l1.9.4a29.1,29.1,0,0,0,.4-3.1l-2-.2Z"/>
      </g>
    </symbol>
  </defs>
  <title>head3</title>
  <g id="Layer_2" data-name="Layer 2">
    <g id="Layer_1-2" data-name="Layer 1">
      <use width="147" height="147" transform="matrix(1, 0, 0, 1, 0, 0)" xlink:href="#head4"/>
    </g>
  </g>
</svg>