<?xml version="1.0" encoding="utf-8"?>
<svg viewBox="0 0 145.8 147.4" xmlns="http://www.w3.org/2000/svg" xmlns:xlink="http://www.w3.org/1999/xlink">
  <defs>
    <style>.cls-1{fill:#fff;}.cls-2{fill:#c1847e;}.cls-3{fill:#85353a;}.cls-4{fill:#fff;}.cls-5{fill:#f2ece6;}.cls-6{fill:#fe6067;}</style>
    <symbol id="head11" data-name="head11" viewBox="0 0 145 147">
      <path id="path40_fill" data-name="path40 fill" class="cls-1" d="M145,73.5c0,40.6-32.5,73.5-72.5,73.5S0,114.1,0,73.5,32.5,0,72.5,0,145,32.9,145,73.5Z"/>
      <path id="path41_fill" data-name="path41 fill" class="cls-2" d="M77.9,74.7a13.1,13.1,0,0,1-4.5,18.1l-5.5,3.3a13,13,0,0,1-18-4.5c-1.9-3.3-5.3-15,7.4-21.4S76.2,71.7,77.9,74.7Z"/>
      <path id="path42_stroke" data-name="path42 stroke" class="cls-3" d="M77.9,74.7l-.8.5h0ZM73.4,92.8l.6.9h0Zm-5.5,3.3-.5-.8h0Zm-18-4.5-.9.5h0Zm7.4-21.4-.4-.9Zm19.8,5A12.3,12.3,0,0,1,72.9,92L74,93.7a14.4,14.4,0,0,0,4.8-19.5ZM72.9,92l-5.5,3.3,1,1.7L74,93.7Zm-5.5,3.3a12.1,12.1,0,0,1-16.7-4.2l-1.7,1A14.1,14.1,0,0,0,68.4,97l-1-1.7ZM50.8,91.1a14.9,14.9,0,0,1-1.7-8.9c.5-3.8,2.6-8.1,8.7-11.1l-.9-1.8c-6.7,3.4-9.2,8.2-9.8,12.6A18.3,18.3,0,0,0,49,92.1l1.7-1Zm7-20c5.7-2.8,10.1-2.4,13.3-1.1a13.3,13.3,0,0,1,6,5.2l1.7-1a15.4,15.4,0,0,0-7-6c-3.7-1.6-8.7-1.9-14.9,1.1l.9,1.8Z"/>
      <path id="path1_fill" data-name="path1 fill" class="cls-3" d="M73.3,92.6s30.2,6.2,37.8,10.4a14.8,14.8,0,0,1,7.9,11.8s-9.4,8.2-42,8.2-49-8.2-49-8.2A14.8,14.8,0,0,1,35.9,103C43.6,98.8,73.3,92.6,73.3,92.6Z"/>
      <path id="path2_stroke" data-name="path2 stroke" class="cls-3" d="M73.3,92.6l.2-1h-.4ZM119,114.8l.7.7a.9.9,0,0,0,.3-.7Zm-91,0H27a1.1,1.1,0,0,0,.6.9ZM35.9,103l-.5-.9h0ZM73.3,92.6l-.2,1h.1l1.2.2,14.7,3.4c4.3,1,8.7,2.2,12.6,3.4a47.6,47.6,0,0,1,9,3.3l.9-1.8a56.2,56.2,0,0,0-9.3-3.5L89.6,95.3c-5.3-1.3-10.6-2.6-16-3.7h-.1l-.2,1Zm37.4,11.3a13.5,13.5,0,0,1,6.3,6.9,16.1,16.1,0,0,1,.9,2.9c0,.3.1.7.1,1.1h2a5,5,0,0,0-.2-1.2,15.3,15.3,0,0,0-8.2-11.3Zm8.3,10.9-.6-.8h-.1l-.3.3-1.5.9a37,37,0,0,1-6.6,2.7C103.6,120,93.2,122,77,122v2c16.4,0,27-2.1,33.5-4.2a34.2,34.2,0,0,0,7-2.9l1.6-.9.6-.4h0ZM77,122c-16.2,0-28.4-2-36.5-4.1a74.4,74.4,0,0,1-9.1-2.8l-2.2-.9-.8-.3-.4.9-.4.9h.2l.6.3,2.3.9c2.1.8,5.2,1.8,9.3,2.9A157,157,0,0,0,77,124v-2Zm-49-7.2h1v-.3c0-.2.1-.4.1-.8a21.8,21.8,0,0,1,.9-2.9,13.5,13.5,0,0,1,6.3-6.9l-.9-1.8a15.3,15.3,0,0,0-8.2,11.3,5,5,0,0,0-.2,1.2v.2h1Zm8.3-10.9a50.5,50.5,0,0,1,9-3.3c3.8-1.2,8.3-2.4,12.4-3.4s10.5-2.5,15.8-3.6h0l-.2-1-.2-1H73l-1.2.3c-4.8,1-9.7,2.2-14.5,3.4L44.7,98.6a56.2,56.2,0,0,0-9.3,3.5Z"/>
      <path id="path43_fill" data-name="path43 fill" class="cls-4" d="M80.5,104H73l-1.5,10v10H83V114Z"/>
      <path id="path44_fill" data-name="path44 fill" class="cls-5" d="M77,104.5,52.2,97.4h1.6A7.2,7.2,0,0,0,61,90.1V58.9H87.8V90.1a7.3,7.3,0,0,0,7.3,7.3"/>
      <path id="path45_stroke" data-name="path45 stroke" class="cls-3" d="M77,104.5l-.3,1h.7ZM52.2,97.4v-1a.9.9,0,0,0-1,1,1.2,1.2,0,0,0,.7,1l.3-1ZM61,58.9v-1a1,1,0,0,0-1,1Zm26.8,0h1a1,1,0,0,0-1-1Zm7.3,38.5.4.9A1,1,0,0,0,96,97a.9.9,0,0,0-.9-.6v1Zm-17.8,6.1L52.5,96.4l-.6,2,24.8,7.1ZM52.2,98.4h1.6v-2H52.2Zm1.6,0A8.2,8.2,0,0,0,62,90.1H60a6.2,6.2,0,0,1-6.2,6.3v2ZM62,90.1V58.9H60V90.1ZM61,59.9H87.8v-2H61v2Zm25.8-1V90.1h2V58.9Zm0,31.2a8.2,8.2,0,0,0,8.3,8.3v-2a6.3,6.3,0,0,1-6.3-6.3Zm-9.4,15.3,18.1-7.1-.8-1.8-18.1,7.1.8,1.8Z"/>
      <path id="path46_fill" data-name="path46 fill" class="cls-5" d="M54,38V60.8c0,12.1,7.4,31,27.7,31,5.3,0,15.8-11.1,15.8-27V38Z"/>
      <path id="path47_stroke" data-name="path47 stroke" class="cls-3" d="M98.5,37.7h1v-1h-1Zm-44.6,0V60.5h2V37.7Zm0,22.8a37,37,0,0,0,6.5,20.7c4.5,6.5,11.7,11.4,22.2,11.4v-2A24,24,0,0,1,62,80a34.8,34.8,0,0,1-6.1-19.5ZM82.6,92.6a9.9,9.9,0,0,0,5.3-2.2,27.8,27.8,0,0,0,5.4-5.8,35.5,35.5,0,0,0,6.2-20.1h-2a33.1,33.1,0,0,1-5.8,18.9,22.1,22.1,0,0,1-5,5.4,7.7,7.7,0,0,1-4.1,1.8ZM99.5,64.5V37.7h-2V64.5Zm-1-27.8H54.9v2H98.5Z"/>
      <path id="path48_stroke" data-name="path48 stroke" class="cls-3" d="M81.7,66.8a1.1,1.1,0,0,0-1,1,1,1,0,0,0,1,1ZM88.1,65l-.7.7Zm-2.2-3.6a1.1,1.1,0,0,0-1.4-.1,1.1,1.1,0,0,0,0,1.5l1.4-1.4Zm-4.2,7.4h3.5v-2H81.7Zm3.5,0a5.6,5.6,0,0,0,3.2-1.1,3.1,3.1,0,0,0,1-1.5,2,2,0,0,0-.7-2l-1.3,1.5h0l-.3.2a3.7,3.7,0,0,1-1.9.7v2Zm3.5-4.6-2.8-2.8-1.4,1.4a39.4,39.4,0,0,0,2.9,2.9l1.3-1.5Z"/>
      <path id="path49_fill" data-name="path49 fill" class="cls-3" d="M74.9,55.9a1.5,1.5,0,1,1-1.5-1.5A1.5,1.5,0,0,1,74.9,55.9Z"/>
      <path id="path50_stroke" data-name="path50 stroke" class="cls-3" d="M73.9,55.9a.5.5,0,0,1-.5.5v2a2.5,2.5,0,0,0,2.5-2.5h-2Zm-.5.5a.5.5,0,0,1-.5-.5h-2a2.5,2.5,0,0,0,2.5,2.5Zm-.5-.5a.5.5,0,0,1,.5-.5v-2a2.5,2.5,0,0,0-2.5,2.5h2Zm.5-.5a.5.5,0,0,1,.5.5h2a2.5,2.5,0,0,0-2.5-2.5Z"/>
      <path id="path51_stroke" data-name="path51 stroke" class="cls-3" d="M69.3,53.3a.9.9,0,0,0-1,1,1,1,0,0,0,1,1Zm9.3,2a1,1,0,0,0,1-1,.9.9,0,0,0-1-1Zm-9.3,0h9.3v-2H69.3Z"/>
      <path id="path52_fill" data-name="path52 fill" class="cls-3" d="M94.2,56a1.5,1.5,0,0,1-3,0,1.4,1.4,0,0,1,1.5-1.5A1.5,1.5,0,0,1,94.2,56Z"/>
      <path id="path53_stroke" data-name="path53 stroke" class="cls-3" d="M93.2,56a.5.5,0,0,1-.5.5v2A2.5,2.5,0,0,0,95.2,56h-2Zm-.5.5a.5.5,0,0,1-.5-.5h-2a2.5,2.5,0,0,0,2.5,2.5Zm-.5-.5a.5.5,0,0,1,.5-.5v-2A2.5,2.5,0,0,0,90.2,56h2Zm.5-.5a.5.5,0,0,1,.5.5h2a2.5,2.5,0,0,0-2.5-2.5Z"/>
      <path id="path54_stroke" data-name="path54 stroke" class="cls-3" d="M78.5,52.1A1.2,1.2,0,0,0,80,52a1.1,1.1,0,0,0-.1-1.4ZM65.3,50.6a1,1,0,0,0,0,1.4,1.1,1.1,0,0,0,1.4.1l-1.4-1.5Zm13.9.7.7-.7h-.1c0-.1,0-.1-.1-.2l-.4-.3-1.5-.8A10.4,10.4,0,0,0,72.6,48v2a8.5,8.5,0,0,1,4.3,1.1,5,5,0,0,1,1.3.7l.3.3h0l.7-.8ZM72.6,48a11.2,11.2,0,0,0-5.3,1.3,5.6,5.6,0,0,0-1.4.9l-.6.4h0l.7.7.7.8h0l.3-.2,1.2-.7A9.9,9.9,0,0,1,72.6,50Z"/>
      <path id="path55_stroke" data-name="path55 stroke" class="cls-3" d="M97.5,51.3a1.1,1.1,0,0,0,1,1,1,1,0,0,0,1-1Zm1-1.4h1A1.1,1.1,0,0,0,99,49l-.5.9Zm-11.1.7a1,1,0,0,0,0,1.4,1.1,1.1,0,0,0,1.4,0Zm12.1.7V49.9h-2v1.4ZM99,49a9.8,9.8,0,0,0-4.8-1.3v2a7.8,7.8,0,0,1,3.8,1L99,49Zm-4.8-1.3a9.2,9.2,0,0,0-4.9,1.4l-1.4,1-.5.5h0l.7.7.7.7h.1l.3-.3a4.1,4.1,0,0,1,1.1-.7,7.5,7.5,0,0,1,3.9-1.2Z"/>
      <path id="path56_stroke" data-name="path56 stroke" class="cls-3" d="M88.4,53.4a1,1,0,0,0-1,1,1.1,1.1,0,0,0,1,1Zm8.2,2a1.1,1.1,0,0,0,1-1,1,1,0,0,0-1-1Zm-8.2,0h8.2v-2H88.4Z"/>
      <path id="path57_stroke" data-name="path57 stroke" class="cls-3" d="M73.7,72.9a1,1,0,0,0-1,1,.9.9,0,0,0,1,1Zm16.9,2a.9.9,0,0,0,1-1,1,1,0,0,0-1-1Zm-16.9,0h8.7v-2H73.7Zm8.7,0h8.2v-2H82.4Z"/>
      <path id="path58_fill" data-name="path58 fill" class="cls-6" d="M76.4,73.9H88.5s-1.3,4.3-5.2,4.3S76.4,73.9,76.4,73.9Z"/>
      <path id="path59_stroke" data-name="path59 stroke" class="cls-3" d="M76.4,73.9v-1a1,1,0,0,0-1,1,.8.8,0,0,0,.2.6Zm12.1,0,1,.3a1.1,1.1,0,0,0-.7-1.2h-.3Zm-5.2,4.3v1h0Zm-6.9-3.3H88.5v-2H76.4Zm12.1-1-1-.2h0a5.1,5.1,0,0,1-.9,1.6,4.1,4.1,0,0,1-3.3,1.8v2a6.2,6.2,0,0,0,4.9-2.5,9,9,0,0,0,1.2-2.4h.1Zm-5.2,3.3A7.7,7.7,0,0,1,79,75.3l-1.7-1.8h-.1l-.8.5-.8.6h0v.2a18.9,18.9,0,0,0,2,2,9.9,9.9,0,0,0,5.6,2.4Z"/>
      <path id="path60_fill" data-name="path60 fill" class="cls-2" d="M76.1,17.1C65,15.6,56.9,17.9,50.4,25S43,38.6,42.8,46.2c-.4,12.6,2.8,19.7,7.6,25.6,6.9,8.5,10.4,6.4,10.4,6.4V74.4L57,55c-1.5-10,6.6-13.3,10.1-13.3H81c3.4,0,6.2-.8,6.3-4.2h.1c.2,3.4,3,4.1,6.4,4.1l5.2.9L98.5,68s10.8-16.7,4.2-33.7S84.2,20.5,84.2,20.5A17.6,17.6,0,0,0,76.1,17.1Z"/>
      <path id="path61_stroke" data-name="path61 stroke" class="cls-3" d="M76.1,17.1v1h0ZM50.4,25l-.7-.7h0l.7.7ZM42.8,46.2h0Zm7.6,25.6-.8.7h0Zm10.4,6.4.5.9a1.1,1.1,0,0,0,.5-.9Zm0-3.8h1c0-.1,0-.1-.1-.2ZM57,55l-1,.2h0l1-.2ZM87.3,37.5v-1a.9.9,0,0,0-1,.9Zm.2,0h1a1.1,1.1,0,0,0-1-.9v1Zm6.3,4.1v-1h-.1Zm5.2.9h1a1,1,0,0,0-.8-1ZM98.5,68h-1a1,1,0,0,0,1,1c.3,0,.7-.1.8-.4Zm4.2-33.7,1-.4ZM84.2,20.5l-.6.8a1,1,0,0,0,.7.2Zm-8-4.4c-11.3-1.5-19.8.8-26.5,8.2l1.5,1.4c6.1-6.8,13.9-9.1,24.8-7.6ZM49.7,24.3c-5.5,6-7.6,14.1-7.9,21.9h2c.2-7.5,2.3-15.1,7.4-20.6l-1.5-1.4ZM41.8,46.2c-.4,12.8,2.8,20.1,7.8,26.3l1.6-1.3c-4.7-5.8-7.8-12.6-7.4-24.9Zm7.8,26.3c3.5,4.3,6.3,6.1,8.3,6.7a5.3,5.3,0,0,0,2.4.2l.7-.2h.3l-.5-.9-.6-.8H60a2.7,2.7,0,0,1-1.5-.1c-1.5-.5-3.9-1.9-7.3-6.1l-1.6,1.3Zm12.2,5.7V74.4h-2v3.8Zm-.1-4L58,54.8l-2,.4,3.8,19.4ZM58,54.9c-.7-4.7.8-7.7,2.9-9.6a9.8,9.8,0,0,1,6.2-2.6v-2a12,12,0,0,0-7.6,3.2C57,46.2,55.2,49.8,56,55.2Zm9.1-12.2H81v-2H67.1Zm13.9,0a9.4,9.4,0,0,0,4.8-1,4,4,0,0,0,1.8-1.6,5.3,5.3,0,0,0,.7-2.6h-2a3.5,3.5,0,0,1-.4,1.7l-1,.9a8.5,8.5,0,0,1-3.9.7Zm6.3-4.2h.1v-2h-.1v2Zm-.9-1a6.6,6.6,0,0,0,.7,2.6,5.5,5.5,0,0,0,1.8,1.6,11,11,0,0,0,4.9.9v-2a10.9,10.9,0,0,1-4-.6,2.8,2.8,0,0,1-.9-1,2.7,2.7,0,0,1-.5-1.6Zm7.2,5.1,5.2.9.4-2-5.3-.9-.3,2Zm4.4-.1L97.5,68h2l.5-25.5ZM98.5,68l.8.6h.1v-.2l.3-.5,1.2-2.2a52.8,52.8,0,0,0,3.1-7.8c1.9-6.4,3-15.1-.4-23.9l-1.9.7c3.2,8.2,2.2,16.4.3,22.6a40.1,40.1,0,0,1-2.9,7.5,19,19,0,0,1-1.1,2.1l-.4.6h0Zm5.2-34.1c-3.2-8.1-8-11.7-12.1-13.3a19.3,19.3,0,0,0-5.3-1.1,4.3,4.3,0,0,0-1.6,0h-.6v2h.5a3.2,3.2,0,0,1,1.4,0,14,14,0,0,1,4.6,1c3.7,1.4,8.1,4.6,11,12.1ZM84.2,20.5l.6-.8h0l-.6-.5-1.8-1a17.3,17.3,0,0,0-6.2-2.1l-.2,2a17.7,17.7,0,0,1,5.5,1.8l1.5,1,.6.4h0Z"/>
      <path id="path62_stroke" data-name="path62 stroke" class="cls-3" d="M84.1,19.5a1,1,0,0,0,0,2Zm2.2,18a1,1,0,0,0,1,1,1.1,1.1,0,0,0,1-1Zm-2.2-16h-.4a.1.1,0,0,1,.1.1,3.8,3.8,0,0,1,.5,1.1,37.8,37.8,0,0,1,1,4.2,67.7,67.7,0,0,1,1,10.7h2a61.2,61.2,0,0,0-1.1-11,28.1,28.1,0,0,0-1-4.5,5.9,5.9,0,0,0-.7-1.6,1.2,1.2,0,0,0-.5-.5,1.1,1.1,0,0,0-.9-.4Z"/>
      <path id="path63_stroke" data-name="path63 stroke" class="cls-3" d="M57.1,21.8a.9.9,0,0,0-.4,1.3,1,1,0,0,0,1.4.4Zm4.7-.1a1,1,0,0,0,.5-1.3,1,1,0,0,0-1.2-.6Zm-3.7,1.8a25.3,25.3,0,0,1,3.7-1.8l-.7-1.9a24.9,24.9,0,0,0-4,2Z"/>
      <path id="path64_stroke" data-name="path64 stroke" class="cls-3" d="M57.5,76a1,1,0,0,0,1-1.8Zm-4.9-5.9.7-.7h0Zm-7-23.8h0Zm6.9-19.5.7.7h0Zm3-1.5a1,1,0,1,0-1.3-1.6l1.3,1.6Zm3,48.9a17.7,17.7,0,0,1-5.2-4.8l-1.5,1.3A22.2,22.2,0,0,0,57.5,76Zm-5.2-4.8c-6.3-7.7-6.9-15.6-6.7-23.1h-2c-.2,7.7.4,16.2,7.2,24.5l1.5-1.3ZM46.6,46.3c.1-5.5,1.5-13.2,6.6-18.8l-1.5-1.4c-5.6,6.2-7,14.5-7.1,20.1Zm6.6-18.8a15.8,15.8,0,0,1,2.3-2.2l-1.3-1.6a29.5,29.5,0,0,0-2.5,2.5l1.5,1.3Z"/>
      <path id="path65_stroke" data-name="path65 stroke" class="cls-3" d="M82.5,35.9a1.2,1.2,0,0,0-.9-1.2,1.2,1.2,0,0,0-1.1.9ZM54.3,45.6a1,1,0,0,0,.7,1.2,1.1,1.1,0,0,0,1.3-.7h0Zm26.2-10A2.7,2.7,0,0,1,78,37.9v2a4.6,4.6,0,0,0,4.5-4ZM78,37.9H64.1v2H78v-2Zm-13.9,0a10.2,10.2,0,0,0-9.8,7.7l2,.5a7.9,7.9,0,0,1,7.8-6.2v-2Z"/>
      <path id="path66_stroke" data-name="path66 stroke" class="cls-3" d="M98.5,39.8a.9.9,0,0,0,1-1,1,1,0,0,0-1-1Zm-7.4-4.5a1,1,0,0,0-1-1,1.2,1.2,0,0,0-1,1.1Zm7.4,2.5H93.7v2h4.8Zm-4.8,0a2.6,2.6,0,0,1-2.6-2.5h-2a4.5,4.5,0,0,0,4.6,4.4v-2Z"/>
      <path id="path67_stroke" data-name="path67 stroke" class="cls-3" d="M50.3,88a1,1,0,0,0,1.2.7.9.9,0,0,0,.7-1.2Zm.9-7.4,1,.3h0Zm4.9-5.2a1.1,1.1,0,0,0,.2-1.4,1.1,1.1,0,0,0-1.4-.2h-.1Zm-3.9,12a12.9,12.9,0,0,1,0-6.5l-2-.6a15.2,15.2,0,0,0,.1,7.7l1.9-.5Zm0-6.5a10.8,10.8,0,0,1,3.9-5.5l-1.3-1.6a13.3,13.3,0,0,0-4.6,6.5l2,.6Z"/>
      <path id="path68_stroke" data-name="path68 stroke" class="cls-3" d="M50.3,87.9a1,1,0,0,0,1,1,.9.9,0,0,0,1-1Zm2-.2a1.1,1.1,0,0,0-1-1,1,1,0,0,0-1,1Zm0,.2a.6.6,0,0,0-.1-.4h0a.1.1,0,0,1,.1.1h-2a.7.7,0,0,0,.1.5h0a.4.4,0,0,1-.1-.3Z"/>
    </symbol>
  </defs>
  <title>head11</title>
  <g id="Layer_2" data-name="Layer 2">
    <g id="Layer_1-2" data-name="Layer 1">
      <use id="head11-3" data-name="head11" width="145" height="147" transform="matrix(1.0099999904632568, 0, 0, 1, 0, 0)" xlink:href="#head11"/>
    </g>
  </g>
</svg>