<?xml version="1.0" encoding="utf-8"?>
<svg viewBox="0 0 147 147" xmlns="http://www.w3.org/2000/svg" xmlns:xlink="http://www.w3.org/1999/xlink">
  <defs>
    <style>.cls-1 { fill: rgb(255, 255, 255); }
.cls-2 { fill: rgb(255, 169, 86); }
.cls-3 { fill: rgb(133, 53, 58); }
.cls-4 { fill: rgb(255, 255, 255); }
.cls-5 { fill: rgb(232, 196, 162); }
.cls-6 { fill: rgb(102, 48, 43); }
.cls-7 { fill: rgb(255, 251, 213); }</style>
    <symbol id="head2" data-name="head2" viewBox="0 0 147 147">
      <g id="head2-3" data-name="head2">
        <path id="path0_fill" data-name="path0 fill" class="cls-1" d="M147,73.5A73.5,73.5,0,1,1,73.5,0,73.5,73.5,0,0,1,147,73.5Z"/>
        <path id="path253_fill" data-name="path253 fill" class="cls-2" d="M75.3,98s32.1,5.1,40.3,9.2,8.4,11.7,8.4,11.7S110.2,127,75.5,127,27,118.9,27,118.9s.2-7.6,8.4-11.7S75.3,98,75.3,98Z"/>
        <path id="path254_stroke" data-name="path254 stroke" class="cls-3" d="M75.3,98l.2-1h-.3ZM124,118.9l.5.9a1.2,1.2,0,0,0,.5-.9Zm-97,0H26a1.2,1.2,0,0,0,.5.9Zm8.4-11.7-.5-.9h0ZM75.3,98v1h.1l1.3.2L92.2,102c4.5.9,9.3,1.9,13.4,3a49.1,49.1,0,0,1,9.6,3.1l.9-1.8a58,58,0,0,0-10-3.3l-13.5-2.9c-5.7-1.2-11.4-2.2-17.1-3.1h0l-.2,1Zm39.9,10.1A14.4,14.4,0,0,1,122,115a17.4,17.4,0,0,1,.9,2.8c0,.4.1.7.1,1.1h2a5.1,5.1,0,0,0-.2-1.3,11.5,11.5,0,0,0-1-3.3,16,16,0,0,0-7.7-7.9Zm8.8,10.8-.5-.9h0l-.6.3-2,.8a53.5,53.5,0,0,1-8.4,2.8c-7.7,2-19.7,4-37,4v2c17.4,0,29.6-2,37.5-4.1a64.3,64.3,0,0,0,8.7-2.8l2.1-1,.7-.3h0ZM75.5,126c-17.3,0-29.3-2-37-4a53.5,53.5,0,0,1-8.4-2.8l-2-.8-.6-.3h0l-.5.9-.5.9h.2l.5.2,2.1,1a64.3,64.3,0,0,0,8.7,2.8c7.9,2.1,20.1,4.1,37.5,4.1ZM27,118.9h1c0-.4.1-.7.1-1.1A17.4,17.4,0,0,1,29,115a14.4,14.4,0,0,1,6.8-6.9l-.9-1.8a16,16,0,0,0-7.7,7.9,11.5,11.5,0,0,0-1,3.3,5.1,5.1,0,0,0-.2,1.3h1Zm8.8-10.8a49.1,49.1,0,0,1,9.6-3.1c4.1-1.1,8.8-2.1,13.2-3l16.8-3h.1l-.2-1c0-.3-.1-.7-.1-1h-.1l-1.3.2c-5.2.9-10.4,1.8-15.5,2.9S49,102,44.9,103a58,58,0,0,0-10,3.3l.9,1.8Z"/>
        <path id="path255_fill" data-name="path255 fill" class="cls-4" d="M58.7,97.6c-4,.8-5.7,2.4-8.4,4.1,0,0,.7,5.9,7.1,13.4a55.2,55.2,0,0,0,11,9.5l7.5-7.1Z"/>
        <path id="path256_stroke" data-name="path256 stroke" class="cls-3" d="M58.7,97.6l.8-.7a.9.9,0,0,0-1-.3Zm-8.4,4.1-.5-.8a.8.8,0,0,0-.4.9Zm7.1,13.4.8-.6h0Zm11,9.5-.6.8a1.1,1.1,0,0,0,1.3-.1l-.7-.7Zm7.5-7.1.7.7a1,1,0,0,0,0-1.4ZM58.5,96.6c-4.3.8-6.1,2.7-8.7,4.3l1.1,1.7c2.8-1.8,4.2-3.3,8-4.1Zm-8.2,5.1h-.9v.3a4.5,4.5,0,0,0,.2.8,15.1,15.1,0,0,0,.9,3,35.3,35.3,0,0,0,6.2,9.8l1.5-1.3a32.2,32.2,0,0,1-5.8-9.2,13.1,13.1,0,0,1-.9-2.8c-.1-.3-.1-.6-.2-.8h-1Zm6.4,14.1a51,51,0,0,0,7.4,6.9,18.9,18.9,0,0,0,2.7,2l1,.7h0l.6-.8.5-.8h-.3l-.7-.5-2.6-1.9a53.7,53.7,0,0,1-7.1-6.7Zm12.4,9.5,7.5-7.1-1.4-1.4-7.5,7.1Zm7.5-8.5L59.5,96.9,58,98.2l17.1,19.9,1.5-1.3Z"/>
        <path id="path257_fill" data-name="path257 fill" class="cls-4" d="M93.1,97.6c4.1.8,5.7,2.4,8.4,4.1,0,0-.7,5.9-7.1,13.4a55.2,55.2,0,0,1-11,9.5l-7.5-7.1Z"/>
        <path id="path258_stroke" data-name="path258 stroke" class="cls-3" d="M93.1,97.6l.2-1a1,1,0,0,0-1,.3Zm8.4,4.1h1a1.1,1.1,0,0,0-.5-.9Zm-7.1,13.4-.8-.6Zm-11,9.5-.6.7a.9.9,0,0,0,1.2.1Zm-7.5-7.1-.7-.7a1,1,0,0,0,.1,1.4Zm17-19c3.8.8,5.2,2.3,8,4.1l1.1-1.7c-2.6-1.6-4.4-3.5-8.7-4.3Zm8.6,3.2h-1c-.1.2-.1.5-.2.8a13.1,13.1,0,0,1-.9,2.8,32.2,32.2,0,0,1-5.8,9.2l1.6,1.3a34.5,34.5,0,0,0,6.1-9.8,15.1,15.1,0,0,0,.9-3l.3-1.1h-1Zm-7.9,12.8a53.7,53.7,0,0,1-7.1,6.7l-2.6,1.9-.9.6h-.1l.5.8.6.8h.3l.8-.6,2.7-2a63.9,63.9,0,0,0,7.4-6.9Zm-9.5,9.4-7.5-7.1-1.3,1.4,7.5,7.1,1.3-1.4Zm-7.4-5.8L93.8,98.2l-1.5-1.3L75.2,116.8l1.5,1.3Z"/>
        <path id="path259_fill" data-name="path259 fill" class="cls-5" d="M93.4,98.9c0,8.4-16.5,18.2-16.5,18.2s-20.2-9.5-20.2-18.2v-38H93.4Z"/>
        <path id="path260_stroke" data-name="path260 stroke" class="cls-3" d="M76.9,117.1l-.4.9h.9ZM56.7,60.9v-1a1.1,1.1,0,0,0-1,1Zm36.7,0v1a1,1,0,0,0,1-1Zm-1,38a10.2,10.2,0,0,1-2.4,5.8,36.9,36.9,0,0,1-5.5,5.7c-1.8,1.5-3.7,2.9-5.6,4.2l-2.4,1.5h-.1l.5.9.5.9h0l.7-.4,1.9-1.2c2-1.4,3.9-2.8,5.8-4.4a36.5,36.5,0,0,0,5.8-6c1.6-2.2,2.8-4.6,2.8-7ZM76.9,117.1l.4-.9h-.1l-.7-.4-2.3-1.2a61.3,61.3,0,0,1-6.8-4.1,43.6,43.6,0,0,1-6.8-5.7c-1.8-2.1-2.9-4.1-2.9-5.9h-2c0,2.5,1.5,5,3.4,7.2a46,46,0,0,0,7.1,6,79.3,79.3,0,0,0,7.1,4.3l2.9,1.5h.3ZM57.7,98.9v-38h-2v38Zm-1-37H93.4v-2H56.7Zm37.7-1h-2v38h2v-38h0Z"/>
        <path id="path261_fill" data-name="path261 fill" class="cls-5" d="M52.4,32.4v29c0,24.2,14.8,32.5,20.6,34.3S85.6,97.8,90.8,94s11.1-15.8,11.1-28.1V32.4Z"/>
        <path id="path262_stroke" data-name="path262 stroke" class="cls-3" d="M52.4,32.4v-1h-1v1ZM73,95.7l-.3.9h0ZM90.8,94l-.6-.8h0l.6.8Zm11.1-61.6h1v-1h-1Zm-50.5,0v29h2v-29Zm0,29c0,24.8,15.2,33.4,21.3,35.2l.6-1.9C67.8,93,53.4,85.1,53.4,61.4ZM72.7,96.6c6,1.8,13.1,2.3,18.7-1.8l-1.2-1.6c-4.8,3.5-11.1,3.2-16.9,1.5l-.6,1.9Zm18.7-1.8c2.4-1.8,5.3-6,7.5-11.1a44.7,44.7,0,0,0,4-17.8h-2a43.2,43.2,0,0,1-3.8,17c-2.2,5-4.9,8.8-6.9,10.3Zm11.5-28.9V32.4h-2V65.9Zm-1-34.5H52.4v2h49.5Z"/>
        <path id="path263_fill" data-name="path263 fill" class="cls-6" d="M59.4,35.6c1.1,6,7.2,5.5,7.2,5.5s-1.8-5.6-.8-5.6,7.6,5.6,17.3,5.6h18.7s6.2-7.9-1.5-16.3C95.8,19.8,89.1,16,77.1,16c-5.3,0-12.9,2.4-14.7,8.3C57,22.6,51,26.5,51,32.1V53.9s7.4.5,8.5-5.5V35.6Z"/>
        <path id="path264_stroke" data-name="path264 stroke" class="cls-3" d="M59.4,35.6l1-.2a1,1,0,0,0-1.2-.8,1.1,1.1,0,0,0-.8,1Zm7.2,5.5v-1h-.1Zm35.2-.1v1a.8.8,0,0,0,.7-.4Zm-1.5-16.3.8-.7h0Zm-37.9-.4-.3,1a1.1,1.1,0,0,0,1.3-.7h0ZM51,53.9H50a.9.9,0,0,0,1,1Zm8.5-5.5,1,.2v-.2Zm0-3.3h0Zm-1.1-9.3a7.3,7.3,0,0,0,4.7,5.8,8.5,8.5,0,0,0,3.6.5h0V40.2h-.8a6.5,6.5,0,0,1-1.9-.4,5.4,5.4,0,0,1-3.4-4.3Zm8.2,6.3a1.2,1.2,0,0,0,1-.5,2.5,2.5,0,0,0,.2-.7,1.9,1.9,0,0,0-.2-.8,14.6,14.6,0,0,0-.5-2c-.2-.8-.4-1.4-.5-1.9V36l-.2.3-.6.2v-2a1.5,1.5,0,0,0-.9.4,1.3,1.3,0,0,0-.3.7,3.4,3.4,0,0,0,0,1,8.9,8.9,0,0,0,.6,2c.2.8.4,1.4.5,1.9v.3h.1v-.3a1,1,0,0,1,.8-.5Zm-.8-5.6h-.2l.3.2,1.1.6a40,40,0,0,0,3.7,1.9,28.7,28.7,0,0,0,12.4,2.9v-2a27.2,27.2,0,0,1-11.6-2.7A38.4,38.4,0,0,1,68,35.6l-1.2-.7-.4-.2-.6-.2v2Zm17.3,5.6h18.8V40H83.1ZM101.8,41l.8.6h.1l.9-1.4a16.4,16.4,0,0,0,1.4-3.9c.6-3.3.2-7.7-3.9-12.2l-1.5,1.4c3.6,3.9,3.9,7.7,3.4,10.4a10.6,10.6,0,0,1-1.2,3.4l-.5.9c-.1.1-.2.2-.2.3h0Zm-.7-17c-4.7-5.1-11.7-9-24-9v2c11.8,0,18.2,3.7,22.5,8.4l1.5-1.4Zm-24-9A21.7,21.7,0,0,0,68,17c-2.9,1.4-5.6,3.7-6.5,7l1.9.6a9.8,9.8,0,0,1,5.5-5.8A20.6,20.6,0,0,1,77.1,17ZM62.7,23.4c-6-1.9-12.7,2.3-12.7,8.7h2c0-4.9,5.2-8.4,10.1-6.8ZM50,32.1V41h2V32.1ZM50,41v5.6h2V41Zm0,5.6v7.3h2V46.6Zm1,7.3v1h.1a4.8,4.8,0,0,0,1.2,0,12.6,12.6,0,0,0,2.9-.5,7.5,7.5,0,0,0,5.3-5.8l-2-.4a5.4,5.4,0,0,1-3.9,4.3,10.1,10.1,0,0,1-2.5.4,3.4,3.4,0,0,1-1,0h0v1Zm9.5-5.5V46.5h-2v1.9Zm0-1.9h0Zm0-.1V45.1h-2v1.3Zm0-1.4V35.6h-2v9.5Z"/>
        <path id="path265_fill" data-name="path265 fill" class="cls-5" d="M53.5,53.4a4.7,4.7,0,0,0-4.7,4.7h0a4.7,4.7,0,0,0,4.7,4.7h2.7V53.4Z"/>
        <path id="path266_fill" data-name="path266 fill" class="cls-3" d="M56.2,63.8H53.5a5.7,5.7,0,0,1,0-11.4h2.7v1.9H53.5a3.8,3.8,0,0,0,0,7.6h2.7Z"/>
        <path id="path267_fill" data-name="path267 fill" class="cls-4" d="M76.4,77.1H90.2s-1.4,4.8-5.9,4.8S76.4,77.1,76.4,77.1Z"/>
        <path id="path268_stroke" data-name="path268 stroke" class="cls-3" d="M76.4,77.1v-1H74.5l1.1,1.5Zm13.8,0,1,.2.3-1.2H90.2Zm-5.9,4.8v1h0Zm-7.9-3.8H90.2v-2H76.4Zm13.8-1-1-.3h0a1.4,1.4,0,0,1-.2.6,8,8,0,0,1-.9,1.4,4.6,4.6,0,0,1-3.8,2.1v2a6.7,6.7,0,0,0,5.4-2.8,8.7,8.7,0,0,0,1.4-2.7h.1Zm-5.9,3.8a8.8,8.8,0,0,1-4.9-2.2,10,10,0,0,1-2-2.1h-.2l-.8.6-.8.6h.1l.6.8a15.6,15.6,0,0,0,1.8,1.7,10.8,10.8,0,0,0,6.2,2.7Z"/>
        <path id="path269_fill" data-name="path269 fill" class="cls-7" d="M85.4,53.4h19.4s.4,11.9-9.7,11.9-9.7-11.9-9.7-11.9Z"/>
        <path id="path270_stroke" data-name="path270 stroke" class="cls-3" d="M85.4,53.4v-1a.9.9,0,0,0-1,.9Zm19.4,0h1a1,1,0,0,0-1-.9ZM95.1,65.3v0ZM85.4,54.4h19.4v-2H85.4v2Zm19.4-1h-1v.4a5.7,5.7,0,0,1-.1,1.2,16.5,16.5,0,0,1-.9,3.9,7.7,7.7,0,0,1-7.7,5.3v2a9.8,9.8,0,0,0,6.4-2.1,10.7,10.7,0,0,0,3.2-4.5,17,17,0,0,0,1-4.4,10.9,10.9,0,0,0,.1-1.8h-1ZM95.1,64.3A7.5,7.5,0,0,1,87.4,59a12.7,12.7,0,0,1-.9-3.9,8.1,8.1,0,0,1-.1-1.6h-1c-1-.1-1-.1-1,0h0a12.8,12.8,0,0,0,.1,1.9,17.3,17.3,0,0,0,1,4.3,10.7,10.7,0,0,0,3.2,4.5,9.8,9.8,0,0,0,6.4,2.1Z"/>
        <path id="path271_stroke" data-name="path271 stroke" class="cls-3" d="M55.9,54.4h5.8v-2H55.9Zm5.8,0H81.8v-2H61.7v2Zm20.1,0h5.8v-2H81.8Zm5.8,0h16.5v-2H87.6v2Z"/>
        <path id="path272_fill" data-name="path272 fill" class="cls-3" d="M98.4,58.5a1.8,1.8,0,0,1-1.9,1.9,2,2,0,0,1-1.9-1.9,1.9,1.9,0,0,1,1.9-1.8A1.8,1.8,0,0,1,98.4,58.5Z"/>
        <path id="path273_stroke" data-name="path273 stroke" class="cls-3" d="M97.4,58.5a.8.8,0,0,1-.9.9v2a2.8,2.8,0,0,0,2.9-2.9Zm-.9.9a.9.9,0,0,1-.9-.9h-2a2.9,2.9,0,0,0,2.9,2.9v-2Zm-.9-.9a.9.9,0,0,1,.9-.8v-2a2.8,2.8,0,0,0-2.9,2.8Zm.9-.8a.9.9,0,0,1,.9.8h2a2.8,2.8,0,0,0-2.9-2.8Z"/>
        <path id="path274_stroke" data-name="path274 stroke" class="cls-3" d="M90.8,55.7a1,1,0,0,0-1,1,1.1,1.1,0,0,0,1,1Zm10,2a1,1,0,0,0,1-1,.9.9,0,0,0-1-1Zm-10,0h10v-2h-10Z"/>
        <path id="path275_fill" data-name="path275 fill" class="cls-7" d="M61.7,53.4H81.1s.5,11.9-9.7,11.9S61.7,53.4,61.7,53.4Z"/>
        <path id="path276_stroke" data-name="path276 stroke" class="cls-3" d="M61.7,53.4v-1a1.1,1.1,0,0,0-1,.9Zm19.4,0h1a.9.9,0,0,0-1-.9ZM71.4,65.3v0ZM61.7,54.4H81.1v-2H61.7Zm19.4-1h-1v.4a5.7,5.7,0,0,1-.1,1.2,15.9,15.9,0,0,1-.8,3.9,9.6,9.6,0,0,1-2.6,3.7,8.2,8.2,0,0,1-5.2,1.6v2a9.9,9.9,0,0,0,6.5-2.1A10.5,10.5,0,0,0,81,59.7a17,17,0,0,0,1-4.4,10.9,10.9,0,0,0,.1-1.8v-.2h-1ZM71.4,64.3a8.1,8.1,0,0,1-5.1-1.6A9.6,9.6,0,0,1,63.7,59a16.5,16.5,0,0,1-.9-3.9c0-.5-.1-1-.1-1.6h-2c0,.6.1,1.2.1,1.8a22.4,22.4,0,0,0,1,4.4A11.7,11.7,0,0,0,65,64.2a9.8,9.8,0,0,0,6.4,2.1v-2Z"/>
        <path id="path277_fill" data-name="path277 fill" class="cls-5" d="M87.6,60.4H86.1L85,66.9h2.6a3.2,3.2,0,0,0,3.3-3.3,3.2,3.2,0,0,0-3.3-3.2Z"/>
        <path id="path278_fill" data-name="path278 fill" class="cls-3" d="M87.6,67.9H84.9a1,1,0,0,1-.9-1,.9.9,0,0,1,.9-.9h2.7a2.4,2.4,0,1,0,0-4.7H86.1a1,1,0,0,1-1-.9,1.1,1.1,0,0,1,1-1h1.5a4.3,4.3,0,0,1,0,8.5Z"/>
        <path id="path279_fill" data-name="path279 fill" class="cls-3" d="M71.5,60.4a1.9,1.9,0,0,0,1.9-1.9h0a1.9,1.9,0,1,0-1.9,1.9Z"/>
        <path id="path280_stroke" data-name="path280 stroke" class="cls-3" d="M72.4,58.5a.9.9,0,0,1-.9.9v2a2.9,2.9,0,0,0,2.9-2.9h-2Zm-.9.9a.9.9,0,0,1-.9-.9h-2a2.9,2.9,0,0,0,2.9,2.9v-2Zm-.9-.9a.8.8,0,0,1,.9-.8v-2a2.8,2.8,0,0,0-2.9,2.8Zm.9-.8a.8.8,0,0,1,.9.8h2a2.8,2.8,0,0,0-2.9-2.8Z"/>
        <path id="path281_stroke" data-name="path281 stroke" class="cls-3" d="M65.8,55.7a1,1,0,0,0-1,1,1.1,1.1,0,0,0,1,1Zm11.3,2a1.1,1.1,0,0,0,1-1,1,1,0,0,0-1-1Zm-11.3,0H77.1v-2H65.8Z"/>
        <path id="path282_stroke" data-name="path282 stroke" class="cls-3" d="M77.3,117.4a1.1,1.1,0,0,0-1-1,1,1,0,0,0-1,1Zm-2,9.2a.9.9,0,0,0,1,1,1,1,0,0,0,1-1Zm0-9.2v9.2h2v-9.2Z"/>
        <path id="path283_stroke" data-name="path283 stroke" class="cls-3" d="M102,32.9a1,1,0,0,0-1.1-.9,1.2,1.2,0,0,0-.9,1.1Zm-2.4,3.3a1,1,0,0,0,.7,1.2.9.9,0,0,0,1.2-.6Zm.4-3.1a7.5,7.5,0,0,1-.4,3.1l1.9.6a7.9,7.9,0,0,0,.5-3.9Z"/>
        <path id="path284_stroke" data-name="path284 stroke" class="cls-3" d="M75.7,18.2a.9.9,0,0,0-.8,1.1,1,1,0,0,0,1.1.8ZM98,26.8l.8-.7h0Zm1.3,3.6a1,1,0,0,0,1.3.6,1,1,0,0,0,.5-1.3ZM76,20.1h1.1v-2H75.7l.3,1.9Zm1.1,0a33.2,33.2,0,0,1,13.6,2.5,21.7,21.7,0,0,1,6.6,4.9l1.5-1.4a22.5,22.5,0,0,0-7.3-5.3c-3.4-1.6-8.1-2.7-14.4-2.7v2Zm20.2,7.3a14.1,14.1,0,0,1,2,3l1.8-.7a14.5,14.5,0,0,0-2.3-3.6l-1.5,1.3Z"/>
        <path id="path285_stroke" data-name="path285 stroke" class="cls-3" d="M57.4,26.4a1,1,0,0,0-.5,1.3,1,1,0,0,0,1.3.6Zm3.8,1.8a1.1,1.1,0,0,0,1.3-.7.9.9,0,0,0-.6-1.2Zm-3,.1a4.1,4.1,0,0,1,1.6-.3V26a6.7,6.7,0,0,0-2.4.4Zm1.6-.3a3.2,3.2,0,0,1,1.4.2l.7-1.9a5.3,5.3,0,0,0-2.1-.3v2Z"/>
      </g>
    </symbol>
  </defs>
  <title>head1</title>
  <g id="Layer_2" data-name="Layer 2">
    <g id="Layer_1-2" data-name="Layer 1">
      <use width="147" height="147" transform="matrix(1, 0, 0, 1, 0, 0)" xlink:href="#head2"/>
    </g>
  </g>
</svg>