<?xml version="1.0" encoding="utf-8"?>
<svg viewBox="0 0 147 147" xmlns="http://www.w3.org/2000/svg" xmlns:xlink="http://www.w3.org/1999/xlink">
  <defs>
    <style>.cls-1{fill:#f2ddc9;}.cls-2{fill:#4a231f;}.cls-3{fill:#85353a;}.cls-4{fill:#f2ece6;}.cls-5{fill:#fe6067;}.cls-6{fill:#fffbd5;}.cls-7{fill:#ffa956;}</style>
    <symbol id="head1" data-name="head1" viewBox="0 0 147 147">
      <g id="head1-3" data-name="head1">
        <path id="path0_fill" data-name="path0 fill" class="cls-1" d="M147,73.5A73.5,73.5,0,1,1,73.5,0,73.5,73.5,0,0,1,147,73.5Z" style="fill: rgb(255, 255, 255);"/>
        <path id="path286_fill" data-name="path286 fill" class="cls-2" d="M55.5,95.5c-6.4,6.4-16.5,6.7-16.5,6.7s.3-10.1,6.7-16.5,16.5-6.6,16.5-6.6S61.9,89.1,55.5,95.5Z"/>
        <path id="path287_stroke" data-name="path287 stroke" class="cls-3" d="M39,102.2H38a1,1,0,0,0,1,1h0Zm6.7-16.5L45,85Zm16.5-6.6h1a.9.9,0,0,0-.9-1h-.1ZM54.8,94.8a23.3,23.3,0,0,1-10.2,5.5l-4,.8H39v2h.2l1.6-.2a20.4,20.4,0,0,0,4.3-.8,24.4,24.4,0,0,0,11.1-6ZM39,102.2h1c0-.5.1-1,.1-1.5s.5-2.7.8-4a23.9,23.9,0,0,1,5.5-10.2L45,85a24.4,24.4,0,0,0-6,11.1,21.7,21.7,0,0,0-.8,4.3A8.8,8.8,0,0,0,38,102v.2h1Zm7.4-15.8A22.6,22.6,0,0,1,56.6,81a29.7,29.7,0,0,1,4.1-.8h1.6v-2H60.4a34,34,0,0,0-4.3.8A25.4,25.4,0,0,0,45,85l1.4,1.4Zm15.8-7.3h-1c0,.5-.1,1-.1,1.5a25.7,25.7,0,0,1-.8,4,21.9,21.9,0,0,1-5.5,10.2l1.4,1.4a24.4,24.4,0,0,0,6-11.1,37.3,37.3,0,0,0,.9-4.3c0-.5.1-1,.1-1.6h-1Z"/>
        <path id="path288_fill" data-name="path288 fill" class="cls-2" d="M88.8,95.5c6.4,6.4,16.5,6.7,16.5,6.7s-.3-10.1-6.7-16.5-16.5-6.6-16.5-6.6S82.4,89.1,88.8,95.5Z"/>
        <path id="path289_stroke" data-name="path289 stroke" class="cls-3" d="M105.3,102.2v1a.9.9,0,0,0,1-1h-1ZM82.1,79.1v-1a1,1,0,0,0-1.1.9h1Zm6,17.1a24.4,24.4,0,0,0,11.1,6,25.3,25.3,0,0,0,4.3.8l1.7.2h.1v-2h-1.6l-4-.8a23.6,23.6,0,0,1-10.3-5.5Zm17.2,6h1a8.6,8.6,0,0,0-.1-1.6c-.2-1.4-.5-2.9-.8-4.3A24.7,24.7,0,0,0,99.3,85l-1.4,1.4a21.9,21.9,0,0,1,5.5,10.2,20,20,0,0,1,.8,4,7.6,7.6,0,0,1,.1,1.5h1ZM99.3,85a24.9,24.9,0,0,0-11.1-6l-4.3-.8H82.2v2h1.6a20,20,0,0,1,4,.8,21.6,21.6,0,0,1,10.2,5.4ZM82.1,79.1h-1c.1.6.1,1.1.2,1.6a29.7,29.7,0,0,0,.8,4.3,24.4,24.4,0,0,0,6,11.1l1.4-1.4A22.8,22.8,0,0,1,84,84.6a25.7,25.7,0,0,1-.7-4c-.1-.5-.1-1-.2-1.5h-1Z"/>
        <path id="path290_fill" data-name="path290 fill" class="cls-4" d="M95.6,111.1a7.8,7.8,0,0,1-7.8-7.8V65.8H58.9v37.5a7.8,7.8,0,0,1-7.8,7.8s4.1,13.3,24.4,13.3S95.6,111.1,95.6,111.1Z"/>
        <path id="path291_stroke" data-name="path291 stroke" class="cls-3" d="M95.6,111.1h1a.9.9,0,0,0-1-1ZM87.8,65.8h1a1.1,1.1,0,0,0-1-1Zm-28.9,0v-1a1,1,0,0,0-1,1Zm-7.8,45.3v-1a.9.9,0,0,0-1,1v.3Zm44.5-1a6.8,6.8,0,0,1-6.8-6.8h-2a8.8,8.8,0,0,0,8.8,8.8Zm-6.8-6.8V65.8h-2v37.5Zm-1-38.5H58.9v2H87.8Zm-29.9,1v37.5h2V65.8Zm0,37.5a6.9,6.9,0,0,1-6.8,6.8v2a8.9,8.9,0,0,0,8.8-8.8Zm-6.8,7.8-1,.3h0v.2c0,.1.1.2.2.4a9.8,9.8,0,0,0,.7,1.6,21.2,21.2,0,0,0,3.9,4.9c3.7,3.5,10.1,6.9,20.5,6.9v-2c-9.9,0-15.8-3.2-19.2-6.4a17.8,17.8,0,0,1-3.4-4.3l-.7-1.4-.2-.5h0Zm24.4,14.3c10.4,0,15.7-3.4,18.5-7.1a12.3,12.3,0,0,0,2.3-4.9c.2-.7.2-1.3.3-1.7v-.6h-2v.4a6.1,6.1,0,0,1-.3,1.3,10.7,10.7,0,0,1-1.9,4.2c-2.3,3.1-7,6.3-16.9,6.3Z"/>
        <path id="path292_fill" data-name="path292 fill" class="cls-4" d="M52.3,38.1V62.4c0,13,8,33.2,29.9,33.2,5.7,0,17.1-11.9,17.1-28.9V38.1Z"/>
        <path id="path293_stroke" data-name="path293 stroke" class="cls-3" d="M52.3,38.1v-1h-1v1Zm47,0h1v-1h-1Zm-48,0V62.4h2V38.1Zm0,24.3a39.7,39.7,0,0,0,6.9,22,28.3,28.3,0,0,0,24,12.2v-2c-10.6,0-17.8-4.9-22.3-11.3a37.7,37.7,0,0,1-6.6-20.9ZM82.2,96.6a10.2,10.2,0,0,0,5.7-2.4,26.3,26.3,0,0,0,5.8-6.1,37.5,37.5,0,0,0,6.6-21.4h-2a35.6,35.6,0,0,1-6.2,20.2,27.2,27.2,0,0,1-5.4,5.7,8,8,0,0,1-4.5,2v2Zm18.1-29.9V38.1h-2V66.7Zm-1-29.6h-47v2h47Z"/>
        <path id="path294_stroke" data-name="path294 stroke" class="cls-3" d="M81.2,67.2a1,1,0,0,0-1,1,1.1,1.1,0,0,0,1,1ZM85,61a1,1,0,0,0,0,2Zm-3.8,8.2H85v-2H81.2Zm3.8,0a4.2,4.2,0,0,0,4.1-4.1h-2A2.2,2.2,0,0,1,85,67.2h0Zm4.1-4.1A4.1,4.1,0,0,0,85,61h0v2a2.1,2.1,0,0,1,2.1,2.1Z"/>
        <path id="path295_stroke" data-name="path295 stroke" class="cls-3" d="M72.6,75.8a1,1,0,0,0,0,2Zm18.3,2a1,1,0,0,0,0-2Zm-18.3,0H82v-2H72.6Zm9.4,0h8.9v-2H82Z"/>
        <path id="path296_fill" data-name="path296 fill" class="cls-5" d="M75.5,76.8h13s-1.3,4.5-5.5,4.5S75.5,76.8,75.5,76.8Z"/>
        <path id="path297_stroke" data-name="path297 stroke" class="cls-3" d="M75.5,76.8v-1a.9.9,0,0,0-1,1,.7.7,0,0,0,.2.6Zm13,0,1,.3a1,1,0,0,0-.7-1.3h-.3ZM83,81.3v1H83Zm-7.5-3.5h13v-2h-13Zm13-1-.9-.3h-.1a4,4,0,0,1-1,1.8A4.1,4.1,0,0,1,83,80.3v2a6.5,6.5,0,0,0,5.1-2.6,8.9,8.9,0,0,0,1.4-2.5h0l-1-.3ZM83,80.3a7.7,7.7,0,0,1-4.7-2,17,17,0,0,1-1.9-1.9c0-.1-.1-.1-.1-.2l-.8.6-.8.6h.1A22.8,22.8,0,0,0,77,79.8a9.4,9.4,0,0,0,5.9,2.5v-2Z"/>
        <path id="path298_fill" data-name="path298 fill" class="cls-2" d="M78,16.1c-11.2-3.4-23.9,1.4-30.8,9-5.6,6.1-7.5,14.4-7.5,22.5,0,29.9,19.2,37,19.2,37V51.7A6.7,6.7,0,0,1,65.7,45H80.6a6.7,6.7,0,0,0,6.7-6.6h.2A6.8,6.8,0,0,0,94.3,45h5V66.7s11.3-16.2,4.6-32.9-18-13.5-18-13.5A24,24,0,0,0,78,16.1Z"/>
        <path id="path299_stroke" data-name="path299 stroke" class="cls-3" d="M78,16.1l-.3,1h0Zm-30.8,9-.7-.7ZM58.9,84.6l-.3.9a.9.9,0,0,0,1.2-.6.4.4,0,0,0,.1-.3ZM87.3,38.4v-1a1.1,1.1,0,0,0-1,1Zm.2,0h1a.9.9,0,0,0-1-.9ZM99.3,45h1a.9.9,0,0,0-1-1Zm0,21.7h-1a1,1,0,0,0,1,1,1,1,0,0,0,.9-.4Zm4.6-32.9-1,.4h0Zm-18-13.5-.6.8a.8.8,0,0,0,.8.2Zm-7.6-5.1c-11.6-3.6-24.7,1.4-31.8,9.2l1.4,1.3c6.7-7.2,19-11.9,29.8-8.6l.6-1.9ZM46.5,24.4c-5.9,6.3-7.8,15-7.8,23.2h2c0-8,1.9-16,7.2-21.9l-1.4-1.3ZM38.7,47.6c0,15.2,4.8,24.6,9.8,30.3a27.8,27.8,0,0,0,6.9,5.9l2.2,1.3.9.4h0s.1,0,.4-.9l.3-1h0l-.7-.3-2.1-1.2A30.9,30.9,0,0,1,50,76.6c-4.6-5.3-9.3-14.3-9.3-29Zm21.2,37V77.5h-2v7.1Zm0-7.1V51.7h-2V77.5Zm0-25.8A5.7,5.7,0,0,1,65.7,46V44a7.7,7.7,0,0,0-7.8,7.7ZM65.7,46H80.6V44H65.7Zm14.9,0a7.7,7.7,0,0,0,7.7-7.6h-2A5.7,5.7,0,0,1,80.6,44v2Zm6.7-6.6h.2v-2h-.2Zm-.8-1A7.9,7.9,0,0,0,94.3,46V44a5.9,5.9,0,0,1-5.8-5.7ZM94.3,46h5V44h-5Zm4-1V66.7h2V45Zm1,21.7.9.6h.1l.4-.6,1.2-2.1a50.9,50.9,0,0,0,3.2-7.6c2-6.3,3.2-14.7-.3-23.4l-1.9.8c3.3,8,2.2,16,.3,22a51.6,51.6,0,0,1-3.1,7.3l-1.1,2-.5.6h0l.8.5Zm5.5-33.2c-3.3-8.2-7.9-11.8-11.9-13.3a17.1,17.1,0,0,0-5-1H85.7l.2,1,.2,1h1.7a11.8,11.8,0,0,1,4.4.9c3.4,1.3,7.7,4.4,10.7,12.1ZM85.9,20.3l.7-.7h0l-.2-.2-.4-.3-1.7-1.2a23,23,0,0,0-6-2.7l-.6,1.9a23.9,23.9,0,0,1,5.5,2.5l1.6,1.1.5.4h0l.6-.8Z"/>
        <path id="path300_fill" data-name="path300 fill" class="cls-6" d="M61.8,53.9H79.3a15,15,0,0,1-.1,2.8c-.5,2.8-2.2,6.5-8.2,6.5C61.6,63.3,61.8,53.9,61.8,53.9Z"/>
        <path id="path301_stroke" data-name="path301 stroke" class="cls-3" d="M61.8,53.9v-1a1.1,1.1,0,0,0-1,1Zm17.5,0h1a1,1,0,0,0-1-1Zm-.1,2.8,1,.2h0ZM71,63.2v-1h0Zm-9.2-8.3H79.3v-2H61.8Zm17.5-1h-1a9.7,9.7,0,0,1-.1,2.4l2,.3a13.1,13.1,0,0,0,.1-2.8v-.2h-1Zm-1.1,2.7a6.8,6.8,0,0,1-1.8,3.7c-1,1.1-2.6,1.9-5.4,1.9v2a9.3,9.3,0,0,0,6.9-2.5,9.7,9.7,0,0,0,2.3-4.8l-2-.3ZM71,62.2A7.9,7.9,0,0,1,66.2,61a7,7,0,0,1-2.4-2.8,10.4,10.4,0,0,1-.9-2.9c0-.4-.1-.9-.1-1.3h-2v.2c0,.5.1,1,.1,1.5A17,17,0,0,0,62,59.1a8.5,8.5,0,0,0,3.1,3.5A9.6,9.6,0,0,0,71,64.2v-2Z"/>
        <path id="path302_fill" data-name="path302 fill" class="cls-6" d="M101.4,53.9H86.9s-1,9.4,7.8,9.4S101.4,53.9,101.4,53.9Z"/>
        <path id="path303_stroke" data-name="path303 stroke" class="cls-3" d="M101.4,53.9l.9-.2a1.2,1.2,0,0,0-.9-.8Zm-14.5,0v-1a1,1,0,0,0-1,.9Zm14.5-1H86.9v2h14.5Zm-14.5,1h-1v.4a2.4,2.4,0,0,0,0,1.2,10.3,10.3,0,0,0,.7,3.5,6.8,6.8,0,0,0,2.6,3.6,8.2,8.2,0,0,0,5.5,1.7v-2A6.3,6.3,0,0,1,90.4,61a5.8,5.8,0,0,1-2-2.7,11.8,11.8,0,0,1-.5-2.9,2.8,2.8,0,0,1,0-1.3h-1Zm7.8,10.4a7.9,7.9,0,0,0,5.4-1.7,6.8,6.8,0,0,0,2.2-3.7,15.9,15.9,0,0,0,.3-3.6c-.1-.5-.1-.9-.2-1.4s0-.1-.1-.2h0l-.9.2-1,.3h0a.4.4,0,0,0,.1.3,4.1,4.1,0,0,0,.1,1,10.2,10.2,0,0,1-.3,2.9,4.9,4.9,0,0,1-1.5,2.7,6.1,6.1,0,0,1-4.1,1.2Z"/>
        <path id="path304_fill" data-name="path304 fill" class="cls-3" d="M73.3,58.7a1.6,1.6,0,1,1-3.2,0,1.6,1.6,0,0,1,3.2,0Z"/>
        <path id="path305_stroke" data-name="path305 stroke" class="cls-3" d="M72.3,58.7a.5.5,0,0,1-.6.6h0v2a2.4,2.4,0,0,0,2.6-2.5h-2Zm-.6.6a.5.5,0,0,1-.6-.5h-2a2.6,2.6,0,0,0,2.6,2.6h0Zm-.6-.6a.6.6,0,0,1,.6-.5v-2a2.5,2.5,0,0,0-2.6,2.5h2Zm.6-.5c.4,0,.6.2.6.5h2a2.5,2.5,0,0,0-2.6-2.5h0Z"/>
        <path id="path306_stroke" data-name="path306 stroke" class="cls-3" d="M79.3,54.9h7.5v-2H79.3Z"/>
        <path id="path307_stroke" data-name="path307 stroke" class="cls-3" d="M61.8,52.9H59v2h2.8Z"/>
        <path id="path308_fill" data-name="path308 fill" class="cls-7" d="M95.5,111.1s.2,8-20.1,8-24.5-8-24.5-8H41.1S42.9,127,75.4,127c28.1,0,28.6-15.9,28.6-15.9Z"/>
        <path id="path309_stroke" data-name="path309 stroke" class="cls-3" d="M95.5,111.1v-1h-1v1Zm-44.6,0,.9-.5-.2-.5h-.7Zm-9.8,0v-1H40v1.1Zm62.9,0h1v-1H104Zm-8.5,0h-1v.2c-.1.1-.1.4-.2.7a6.8,6.8,0,0,1-1.9,2.3c-2.2,1.8-7,3.8-17,3.8v2c10.2,0,15.5-2,18.3-4.2a7.5,7.5,0,0,0,2.4-3.2,2.3,2.3,0,0,0,.3-1.1,1.1,1.1,0,0,0,.1-.5h-1Zm-20.1,7c-10.1,0-16-2-19.4-3.9a11.7,11.7,0,0,1-3.4-2.6l-.6-.7-.2-.3h0l-.9.5-.9.4h.1v.2l.2.3.9,1a13.1,13.1,0,0,0,3.8,2.9c3.8,2.1,10,4.2,20.4,4.2Zm-24.5-8H41.1v2h9.8Zm-9.8,1h-1c0,.2.1.5.1.7a20.5,20.5,0,0,0,.8,2,16.6,16.6,0,0,0,4.4,5.8c4.7,4.2,13.5,8.2,30,8.2v-2c-16.1,0-24.4-3.9-28.7-7.7a16.3,16.3,0,0,1-3.9-5.1,5.8,5.8,0,0,1-.6-1.7,1.1,1.1,0,0,1-.1-.5h-1ZM75.4,128c14.2,0,21.7-4,25.6-8.3a17.8,17.8,0,0,0,3.5-5.8,10,10,0,0,0,.4-2,1.9,1.9,0,0,0,.1-.8h-2v.4c-.1.6-.3,1.1-.4,1.7a16.4,16.4,0,0,1-3.1,5.1c-3.4,3.7-10.3,7.6-24.1,7.6ZM104,110.1H95.5v2H104Z"/>
        <path id="path310_stroke" data-name="path310 stroke" class="cls-3" d="M66.4,56.2a.9.9,0,0,0-1,1,1,1,0,0,0,1,1Zm10,2a1,1,0,0,0,1-1,.9.9,0,0,0-1-1Zm-10,0h10v-2h-10Z"/>
        <path id="path311_fill" data-name="path311 fill" class="cls-3" d="M97,58.7a1.6,1.6,0,1,1-3.2,0,1.6,1.6,0,0,1,3.2,0Z"/>
        <path id="path312_stroke" data-name="path312 stroke" class="cls-3" d="M96,58.7a.5.5,0,0,1-.6.6h0v2A2.4,2.4,0,0,0,98,58.8H96Zm-.6.6a.5.5,0,0,1-.6-.5h-2a2.6,2.6,0,0,0,2.6,2.6h0Zm-.6-.6a.6.6,0,0,1,.6-.5v-2a2.5,2.5,0,0,0-2.6,2.5h2Zm.6-.5c.4,0,.6.2.6.5h2a2.5,2.5,0,0,0-2.6-2.5h0Z"/>
        <path id="path313_stroke" data-name="path313 stroke" class="cls-3" d="M91.5,56a1.1,1.1,0,0,0-1,1,1,1,0,0,0,1,1Zm7.8,2a.9.9,0,0,0,1-1,1,1,0,0,0-1-1Zm-7.8,0h7.8V56H91.5Z"/>
      </g>
    </symbol>
  </defs>
  <title>head4</title>
  <g id="Layer_2" data-name="Layer 2">
    <g id="Layer_1-2" data-name="Layer 1">
      <use width="147" height="147" transform="matrix(1, 0, 0, 1, 0, 0)" xlink:href="#head1"/>
    </g>
  </g>
</svg>