<?xml version="1.0" encoding="utf-8"?>
<svg viewBox="0 0 147 147" xmlns="http://www.w3.org/2000/svg" xmlns:xlink="http://www.w3.org/1999/xlink">
  <defs>
    <style>.cls-1{fill:#f2ddc9;}.cls-2{fill:#fff;}.cls-3{fill:#85353a;}.cls-4{fill:#fe6067;}.cls-5{fill:#ffa956;}</style>
    <symbol id="head6" data-name="head6" viewBox="0 0 147 147">
      <g id="head6-3" data-name="head6">
        <path id="path0_fill" data-name="path0 fill" class="cls-1" d="M147,73.5A73.5,73.5,0,1,1,73.5,0,73.5,73.5,0,0,1,147,73.5Z" style="fill: rgb(255, 255, 255);"/>
        <path id="path159_fill" data-name="path159 fill" class="cls-2" d="M98.1,112.9a7.7,7.7,0,0,1-7.6-7.7V68.7H62.4v36.5a7.6,7.6,0,0,1-7.6,7.6H45.2s1.7,15.6,33.3,15.6c27.5,0,28-15.6,28-15.6H98.1Z"/>
        <path id="path160_stroke" data-name="path160 stroke" class="cls-3" d="M98.1,112.9v1a1,1,0,0,0,1-1ZM90.5,68.7h1a.9.9,0,0,0-1-1Zm-28.1,0v-1a1,1,0,0,0-1,1ZM45.2,112.8v-1a1,1,0,0,0-1,1h1Zm61.3,0h1a1,1,0,0,0-1-1.1h0Zm-8.4,0v-1a1.1,1.1,0,0,0-1,1Zm0-.9a6.7,6.7,0,0,1-6.6-6.7h-2a8.7,8.7,0,0,0,8.6,8.7v-2Zm-6.6-6.7V68.7h-2v36.5Zm-1-37.5H62.4v2H90.5Zm-29.1,1v36.5h2V68.7Zm0,36.5a6.5,6.5,0,0,1-6.6,6.6h0v2a8.6,8.6,0,0,0,8.6-8.6h-2Zm-6.6,6.6H45.2v2h9.6v-2Zm-9.6,1h-1a1.4,1.4,0,0,0,.2.7,13.6,13.6,0,0,0,.6,2,18.3,18.3,0,0,0,4.3,5.7c4.7,4.1,13.3,8,29.2,8v-2c-15.6,0-23.7-3.9-27.8-7.5a14.7,14.7,0,0,1-3.8-5.1,4.4,4.4,0,0,1-.6-1.6.7.7,0,0,1-.1-.5h-1Zm33.3,16.6c13.9,0,21.2-4,25-8.1a16.3,16.3,0,0,0,3.4-5.7,13.7,13.7,0,0,0,.5-1.9c0-.3.1-.6.1-.8h-2a4.3,4.3,0,0,1-.1.5,6.2,6.2,0,0,1-.4,1.6,13.3,13.3,0,0,1-2.9,5c-3.4,3.7-10,7.5-23.6,7.5Zm28-17.6H98.1v2h8.4Zm-9.4,1h0Z"/>
        <path id="path161_stroke" data-name="path161 stroke" class="cls-3" d="M98.1,112.9v1a1,1,0,0,0,1-1ZM90.5,68.7h1a1,1,0,0,0-1-1Zm-28.1,0v-1a.9.9,0,0,0-1,1ZM45.1,112.8v-1a1.1,1.1,0,0,0-1,1v.2Zm61.3,0h1a1.1,1.1,0,0,0-.9-1.1h-.1Zm-8.3,0v-1a1,1,0,0,0-1,1Zm0-.9a6.6,6.6,0,0,1-6.6-6.7h-2a8.6,8.6,0,0,0,8.6,8.7v-2Zm-6.6-6.7V68.7h-2v36.5Zm-1-37.5H62.4v2H90.5Zm-29.1,1v36.5h2V68.7Zm0,36.5a6.6,6.6,0,0,1-6.7,6.6h0v2a8.6,8.6,0,0,0,8.7-8.6h-2Zm-6.7,6.6H45.1v2h9.6v-2Zm-9.6,1-1,.2h0c.1.3.1.5.2.8a9.3,9.3,0,0,0,.7,1.9,17.2,17.2,0,0,0,4.3,5.7c4.6,4.1,13.2,8,29.2,8v-2c-15.7,0-23.7-3.8-27.9-7.5a15.5,15.5,0,0,1-3.8-5l-.6-1.6a1.3,1.3,0,0,0-.1-.6h-1Zm33.4,16.6c13.9,0,21.2-3.9,25-8.1a17,17,0,0,0,3.4-5.7,10.8,10.8,0,0,0,.4-1.9,2.2,2.2,0,0,0,.1-.8h-2v.6c-.1.3-.2.9-.4,1.6a14.3,14.3,0,0,1-3,4.9c-3.3,3.7-10,7.5-23.5,7.5Zm27.9-17.6H98.1v2h8.3Zm-9.3,1h0Z"/>
        <path id="path162_fill" data-name="path162 fill" class="cls-2" d="M55.9,41.7V65.4c0,12.7,7.8,32.4,29.1,32.4,5.6,0,16.7-11.6,16.7-28.2V41.7Z"/>
        <path id="path163_stroke" data-name="path163 stroke" class="cls-3" d="M55.9,41.7v-1h-1v1Zm45.8,0h1v-1h-1Zm-46.8,0V65.4h2V41.7Zm0,23.7A38.8,38.8,0,0,0,61.7,87C66.5,93.7,74,98.8,85,98.8v-2c-10.3,0-17.2-4.7-21.7-11a36.4,36.4,0,0,1-6.4-20.4ZM85,98.8a10.2,10.2,0,0,0,5.6-2.3,25.4,25.4,0,0,0,5.7-6,37.3,37.3,0,0,0,6.4-20.9h-2a34.7,34.7,0,0,1-6.1,19.8,23.1,23.1,0,0,1-5.2,5.5A8.3,8.3,0,0,1,85,96.8v2Zm17.7-29.2V41.7h-2V69.6Zm-1-28.9H55.9v2h45.8Z"/>
        <path id="path164_stroke" data-name="path164 stroke" class="cls-3" d="M84.1,70a.9.9,0,0,0-1,1,1,1,0,0,0,1,1Zm3.6-6a1,1,0,0,0-1,1,1.1,1.1,0,0,0,1,1Zm-3.6,8h3.6V70H84.1Zm3.6,0a4,4,0,0,0,4-4h-2a1.9,1.9,0,0,1-1.9,2h-.1Zm4-4a3.9,3.9,0,0,0-3.9-4h-.1v2a1.9,1.9,0,0,1,2,2Z"/>
        <path id="path165_fill" data-name="path165 fill" class="cls-3" d="M76.5,58.3a1.6,1.6,0,1,1-3.2,0h0a1.6,1.6,0,0,1,3.2,0Z"/>
        <path id="path166_stroke" data-name="path166 stroke" class="cls-3" d="M74.9,56.8v0Zm.6,1.5a.6.6,0,0,1-.6.6h0v2a2.6,2.6,0,0,0,2.6-2.6h-2Zm-.6.6a.6.6,0,0,1-.6-.6h-2a2.6,2.6,0,0,0,2.6,2.6h0v-2Zm-.6-.6a.6.6,0,0,1,.6-.5v-2a2.6,2.6,0,0,0-2.6,2.5h2Zm.6-.5a.6.6,0,0,1,.6.5h2a2.6,2.6,0,0,0-2.6-2.5h0v2Z"/>
        <path id="path167_stroke" data-name="path167 stroke" class="cls-3" d="M67.5,56.2a1.2,1.2,0,0,0-.9,1.1,1,1,0,0,0,1.1.9l-.2-2Zm12.9.9a1.2,1.2,0,0,0,.9-1.1,1,1,0,0,0-1.1-.9ZM67.7,58.2l12.7-1.1-.2-2L67.5,56.2l.2,2Z"/>
        <path id="path168_fill" data-name="path168 fill" class="cls-3" d="M99.2,58.3a1.6,1.6,0,0,1-1.6,1.6,1.6,1.6,0,0,1-1.5-1.6h0a1.5,1.5,0,0,1,1.5-1.5A1.6,1.6,0,0,1,99.2,58.3Z"/>
        <path id="path169_stroke" data-name="path169 stroke" class="cls-3" d="M97.6,56.8v0Zm.6,1.5a.6.6,0,0,1-.6.6h0v2a2.6,2.6,0,0,0,2.6-2.6h-2Zm-.6.6a.6.6,0,0,1-.5-.6h-2a2.6,2.6,0,0,0,2.5,2.6h0v-2Zm-.5-.6a.5.5,0,0,1,.5-.5v-2a2.5,2.5,0,0,0-2.5,2.5h2Zm.5-.5a.6.6,0,0,1,.6.5h2a2.5,2.5,0,0,0-2.6-2.5h0v2Z"/>
        <path id="path170_stroke" data-name="path170 stroke" class="cls-3" d="M80.3,54.3a1.1,1.1,0,0,0,1.4-.1,1.1,1.1,0,0,0-.1-1.4ZM66.4,52.8a1,1,0,1,0,1.3,1.5h0Zm14.5.7.7-.7h0l-.2-.2-.4-.3-1.5-.9A13.5,13.5,0,0,0,74,50.1v2a10.1,10.1,0,0,1,4.6,1.1l1.2.8.4.3h.1l.6-.8ZM74,50.1a12.4,12.4,0,0,0-7,2.2l-.6.5h0l.6.7.7.8h.1l.3-.2,1.3-.8A10.4,10.4,0,0,1,74,52.1v-2Z"/>
        <path id="path171_stroke" data-name="path171 stroke" class="cls-3" d="M100.7,53.7a1.1,1.1,0,0,0,1,1,1,1,0,0,0,1-1Zm1-1.5h1a1,1,0,0,0-.5-.8l-.5.8ZM90.1,53a1,1,0,0,0,.1,1.4.9.9,0,0,0,1.3,0L90.1,53Zm12.6.7V52.2h-2v1.5Zm-.5-2.3a9.7,9.7,0,0,0-5-1.4v2a7.3,7.3,0,0,1,4,1.1l1-1.7Zm-5-1.4a10.3,10.3,0,0,0-5.1,1.5l-1.5,1-.5.5h0l.7.7.7.7a.1.1,0,0,0,.1-.1c.1-.1.2-.1.3-.3l1.2-.8A8,8,0,0,1,97.2,52Z"/>
        <path id="path172_stroke" data-name="path172 stroke" class="cls-3" d="M92.7,55.1a1,1,0,0,0-1.1.8,1,1,0,0,0,.9,1.2h0Zm8.9,3.1a.9.9,0,0,0,1.1-.9,1.1,1.1,0,0,0-.8-1.1l-.3,2Zm-9.1-1.1,9.1,1.1.3-2-9.2-1.1-.2,2Z"/>
        <path id="path173_stroke" data-name="path173 stroke" class="cls-3" d="M75.7,78.4a1,1,0,0,0-1,1,.9.9,0,0,0,1,1Zm17.8,2a.9.9,0,0,0,1-1,1,1,0,0,0-1-1Zm-17.8,0h9.2v-2H75.7Zm9.2,0h8.6v-2H84.9Z"/>
        <path id="path174_fill" data-name="path174 fill" class="cls-4" d="M78.5,79.4H91.2s-1.3,4.4-5.4,4.4S78.5,79.4,78.5,79.4Z"/>
        <path id="path175_stroke" data-name="path175 stroke" class="cls-3" d="M78.5,79.4v-1a1,1,0,0,0-1,1,1.4,1.4,0,0,0,.2.6Zm12.7,0,1,.3a1,1,0,0,0-.7-1.2h-.3Zm-5.4,4.4v1h0Zm-7.3-3.4H91.2v-2H78.5Zm12.7-1-.9-.3h0l-.3.6a3.5,3.5,0,0,1-.8,1.3,4,4,0,0,1-3.4,1.8v2a6,6,0,0,0,5-2.6,7,7,0,0,0,1.3-2.4h.1l-1-.3Zm-5.4,3.4a7.4,7.4,0,0,1-4.6-2A15.3,15.3,0,0,1,79.4,79c0-.1-.1-.1-.1-.2h0l-.8.6-.8.6h.2A14.5,14.5,0,0,0,80,82.4a9.4,9.4,0,0,0,5.8,2.4v-2Z"/>
        <path id="path176_fill" data-name="path176 fill" class="cls-5" d="M98,112.9s.3,7.8-19.6,7.8-23.7-7.8-23.7-7.8H45.1s1.1,15.6,32.8,15.6c27.4,0,28.5-15.6,28.5-15.6Z"/>
        <path id="path177_stroke" data-name="path177 stroke" class="cls-3" d="M98,112.9v-1a1,1,0,0,0-1,1h1Zm-43.3,0,.9-.4a1.1,1.1,0,0,0-.9-.6Zm-9.6,0v-1a.9.9,0,0,0-1,1h1Zm61.3,0h1a1,1,0,0,0-1-1.1h0Zm-8.4,0H97v.2a2.5,2.5,0,0,1-.2.7A5.2,5.2,0,0,1,95,116c-2.1,1.8-6.8,3.7-16.6,3.7v2c10,0,15.2-2,17.9-4.1a8.6,8.6,0,0,0,2.4-3.1,9.7,9.7,0,0,0,.3-1.1v-.5H98Zm-19.6,6.8c-9.8,0-15.5-1.9-18.8-3.8a12.6,12.6,0,0,1-3.3-2.5l-.6-.7a.3.3,0,0,0-.1-.2h0l-.9.5-.9.5h.1v.3l.9,1a16.3,16.3,0,0,0,3.7,2.9c3.7,2,9.8,4,19.8,4v-2Zm-23.7-7.8H45.1v2h9.6Zm-9.6,1h-1a2,2,0,0,0,.1.7,13,13,0,0,0,.6,1.9,16.6,16.6,0,0,0,4.1,5.7c4.5,4.1,13,8.1,29,8.1v-2c-15.7,0-23.6-3.9-27.6-7.6a12.8,12.8,0,0,1-3.6-5,8.8,8.8,0,0,1-.5-1.5,1.3,1.3,0,0,1-.1-.6h-1Zm32.8,16.6c13.9,0,21.3-4,25.2-8.1a17.4,17.4,0,0,0,3.6-5.7,13.7,13.7,0,0,0,.5-1.9c.1-.3.1-.5.2-.8h-2.1v.5a9,9,0,0,1-.5,1.6,15.1,15.1,0,0,1-3.1,5c-3.5,3.6-10.3,7.5-23.8,7.5Zm28.5-17.6H98v2h8.4Z"/>
        <path id="path178_fill" data-name="path178 fill" class="cls-3" d="M78.8,19C47.6,19,41.1,41.9,41.1,61v40.1c0,13.9-9.1,12.6-9.1,12.6s.1,11.5,16.5,11.5c13.7,0,13.8-10.6,13.8-20.3v-50a6.6,6.6,0,0,1,6.6-6.6H83.4A6.6,6.6,0,0,0,90,41.9h.2a6.6,6.6,0,0,0,6.6,6.4h4.9V69.5c0,12.1-5.9,21.6-11.3,25.8v9.9a7.6,7.6,0,0,0,7.6,7.6h6.6c0,.1,17.3-93.7-25.8-93.7Z"/>
        <path id="path179_stroke" data-name="path179 stroke" class="cls-3" d="M32,113.7v-1a1,1,0,0,0-1.1.8v.2ZM90,41.9v-1a1,1,0,0,0-1,1Zm.2,0h1a1,1,0,0,0-1-1Zm11.5,6.4h1a1.1,1.1,0,0,0-1-1Zm-11.3,47-.6-.8a.9.9,0,0,0-.4.8ZM104,112.8v1h.4Zm.6-.1.9-.5a1.2,1.2,0,0,0-1.2-.5ZM78.8,18c-15.9,0-25.6,5.8-31.4,14.3S40.1,51.4,40.1,61h2c0-9.5,1.6-19.7,7-27.6S63.5,20,78.8,20V18ZM40.1,61v40.1h2V61Zm0,40.1c0,6.7-2.2,9.5-4.1,10.6a6.4,6.4,0,0,1-3.8,1h-.1v1.9h.5a8.8,8.8,0,0,0,4.7-1.3c2.7-1.6,5-5.1,5-12.3ZM32,113.7H31v.5a10.6,10.6,0,0,1,.3,1.4,13.4,13.4,0,0,0,2,4.3c2.3,3.2,6.7,6.2,15.2,6.2v-2c-7.9,0-11.7-2.8-13.6-5.3a12.4,12.4,0,0,1-1.7-3.7c-.1-.4-.1-.8-.2-1.2v-.4H32Zm16.5,12.5a16.8,16.8,0,0,0,8.4-1.9,10.7,10.7,0,0,0,4.5-5.2c1.9-4.1,1.9-9.4,1.9-14.2h-2c0,4.9,0,9.8-1.7,13.4a9.6,9.6,0,0,1-3.7,4.3,14.5,14.5,0,0,1-7.4,1.6Zm14.8-21.3V80.2h-2v24.7Zm0-24.7V54.9h-2V80.2Zm0-25.3a5.6,5.6,0,0,1,5.6-5.6h0v-2a7.6,7.6,0,0,0-7.6,7.6h2Zm5.6-5.6H83.4v-2H68.9v2Zm14.5,0A7.6,7.6,0,0,0,91,41.9H89a5.6,5.6,0,0,1-5.6,5.4ZM90,42.9h.2v-2H90Zm-.8-1a7.6,7.6,0,0,0,7.6,7.4v-2a5.6,5.6,0,0,1-5.6-5.4Zm7.6,7.4h4.9v-2H96.8Zm3.9-1V69.5h2V48.3Zm0,21.2c0,11.8-5.8,21-10.9,25L91,96.1c5.6-4.4,11.7-14.2,11.7-26.6ZM89.4,95.3v9.9h2V95.3Zm0,9.9a8.6,8.6,0,0,0,8.6,8.6h0v-2a6.5,6.5,0,0,1-6.6-6.6h-2Zm8.6,8.6h6v-2H98Zm6.4,0,.5-.2-.6-1.9-.6.2.7,1.9Zm-.7-.7a1.6,1.6,0,0,0,1.8,0,.4.4,0,0,1,.1-.3v-.2c0-.2.1-.4.1-.8s.3-1.7.5-3,.9-6.2,1.4-10.6a215.8,215.8,0,0,0,1.3-32.4c-.6-11.7-2.5-23.6-7-32.6S90.1,18,78.8,18v2c10.3,0,17,5.6,21.3,14.1s6.2,20.2,6.8,31.8A212.2,212.2,0,0,1,105.6,98c-.4,4.3-1,8-1.3,10.5l-.5,3c-.1.3-.1.6-.2.9h0a.3.3,0,0,1,.1-.2,1.6,1.6,0,0,1,1.8,0l-1.8.9Z"/>
        <path id="path180_stroke" data-name="path180 stroke" class="cls-3" d="M43.1,60.9a.9.9,0,0,0,1,1,1,1,0,0,0,1-1Zm3.2-12.8a1,1,0,0,0-2-.5ZM45.1,60.9a62.6,62.6,0,0,1,1.2-12.8l-2-.5a69.2,69.2,0,0,0-1.2,13.3Z"/>
        <path id="path181_stroke" data-name="path181 stroke" class="cls-3" d="M43.1,94.7a1,1,0,0,0,1,1,1.1,1.1,0,0,0,1-1Zm2-33.8a1.1,1.1,0,0,0-1-1,1,1,0,0,0-1,1Zm0,33.8V60.9h-2V94.7Z"/>
        <path id="path182_stroke" data-name="path182 stroke" class="cls-3" d="M51.1,123.1a.9.9,0,0,0,.8-1.1,1,1,0,0,0-1.1-.8Zm-3.6-1.8a.9.9,0,0,0-1,1,1,1,0,0,0,1,1h0Zm3.3-.1H48.5v2a11,11,0,0,0,2.6-.2Zm-2.3.1h-1v2h1Z"/>
        <path id="path183_stroke" data-name="path183 stroke" class="cls-3" d="M61.7,50.5a1,1,0,0,0-.3-1.4,1.1,1.1,0,0,0-1.4.3h0Zm-8,70a.9.9,0,0,0-.5,1.3,1,1,0,0,0,1.3.5h0l-.8-1.8Zm6.3-71A10.3,10.3,0,0,0,58.5,55h2a8.4,8.4,0,0,1,1.2-4.5l-1.7-1ZM58.5,55V80.2h2V55Zm1,25.2h-1v24.7h2V80.2Zm-1,24.7c0,4.6-.2,8.1-.9,10.6s-1.9,4.1-3.9,5l.8,1.8c2.7-1.1,4.2-3.3,5-6.2s1-6.6,1-11.2Z"/>
        <path id="path184_stroke" data-name="path184 stroke" class="cls-3" d="M65.6,47.1a.9.9,0,0,0,.5-1.3.9.9,0,0,0-1.2-.5Zm-2.5-.9a1,1,0,1,0,1.1,1.7Zm1.8-.9a5.1,5.1,0,0,0-1.8.9l1.1,1.7,1.4-.8-.7-1.8Z"/>
        <path id="path185_stroke" data-name="path185 stroke" class="cls-3" d="M87.9,39.8a1,1,0,0,0-2,.4ZM87.2,42h1a.4.4,0,0,0-.1-.3ZM66.9,44.7a1,1,0,0,0-.9,1.1,1.1,1.1,0,0,0,1.2.9h0l-.3-1.9Zm19-4.5c0,.3.1.6.1.9s.1.7.2,1.1l1.9-.4c0-.3-.1-.6-.1-.9s-.1-.7-.1-1.1Zm.3,1.8a2.7,2.7,0,0,1-2.7,2.5v2a4.7,4.7,0,0,0,4.7-4.4Zm-2.7,2.5H68.9v2H83.5v-2Zm-14.6,0a6.8,6.8,0,0,0-2,.2l.3,1.9h1.7v-2Z"/>
      </g>
    </symbol>
  </defs>
  <title>head6</title>
  <g id="Layer_2" data-name="Layer 2">
    <g id="Layer_1-2" data-name="Layer 1">
      <use width="147" height="147" transform="matrix(1, 0, 0, 1, 0, 0)" xlink:href="#head6"/>
    </g>
  </g>
</svg>