<?xml version="1.0" encoding="utf-8"?>
<svg viewBox="0 0 147 147" xmlns="http://www.w3.org/2000/svg" xmlns:xlink="http://www.w3.org/1999/xlink">
  <defs>
    <style>.cls-1{fill:#f2ddc9;}.cls-2{fill:#85353a;}.cls-3{fill:#fff;}.cls-4{fill:#dd584a;}.cls-5{fill:#fffbd5;}.cls-6{fill:#c1847e;}</style>
    <symbol id="head12" data-name="head12" viewBox="0 0 147 147">
      <path id="path0_fill" data-name="path0 fill" class="cls-1" d="M147,73.5A73.5,73.5,0,1,1,73.5,0,73.5,73.5,0,0,1,147,73.5Z" style="fill: rgb(255, 255, 255);"/>
      <path id="path1_fill" data-name="path1 fill" class="cls-2" d="M72.3,96.1s30.2,6.2,37.8,10.4a14.8,14.8,0,0,1,7.9,11.8s-9.4,8.2-42,8.2-49-8.2-49-8.2a14.8,14.8,0,0,1,7.9-11.8C42.6,102.3,72.3,96.1,72.3,96.1Z"/>
      <path id="path2_stroke" data-name="path2 stroke" class="cls-2" d="M72.3,96.1l.2-1h-.4ZM118,118.3l.7.7a.9.9,0,0,0,.3-.7Zm-91,0H26a1.1,1.1,0,0,0,.6.9Zm7.9-11.8-.5-.9h0ZM72.3,96.1l-.2,1h.1l1.2.2,14.7,3.4c4.3,1,8.7,2.2,12.6,3.4a47.6,47.6,0,0,1,9,3.3l.9-1.8a56.2,56.2,0,0,0-9.3-3.5L88.6,98.8c-5.3-1.3-10.6-2.6-16-3.7h-.1l-.2,1Zm37.4,11.3a13.5,13.5,0,0,1,6.3,6.9,16.1,16.1,0,0,1,.9,2.9c0,.3.1.7.1,1.1h2a5,5,0,0,0-.2-1.2,15.3,15.3,0,0,0-8.2-11.3Zm8.3,10.9-.6-.8h-.1l-.3.3-1.5.9a37,37,0,0,1-6.6,2.7c-6.3,2.1-16.7,4.1-32.9,4.1v2c16.4,0,27-2.1,33.5-4.2a34.2,34.2,0,0,0,7-2.9l1.6-.9.6-.4h0Zm-42,7.2c-16.2,0-28.4-2-36.5-4.1a74.4,74.4,0,0,1-9.1-2.8l-2.2-.9-.8-.3-.4.9-.4.9h.2l.6.3,2.3.9c2.1.8,5.2,1.8,9.3,2.9a157,157,0,0,0,37,4.1v-2Zm-49-7.2h1V118c0-.2.1-.4.1-.8a21.8,21.8,0,0,1,.9-2.9,13.5,13.5,0,0,1,6.3-6.9l-.9-1.8a15.3,15.3,0,0,0-8.2,11.3,5,5,0,0,0-.2,1.2v.2h1Zm8.3-10.9a50.5,50.5,0,0,1,9-3.3c3.8-1.2,8.3-2.4,12.4-3.4s10.5-2.5,15.8-3.6h0l-.2-1-.2-1H72l-1.2.3c-4.8,1-9.7,2.2-14.5,3.4l-12.6,3.3a56.2,56.2,0,0,0-9.3,3.5Z"/>
      <path id="path3_fill" data-name="path3 fill" class="cls-1" d="M82,118s-2-10-4.5-10H75l-4.5,10L57,100.6v.9c4,0,2.5-3.2,2.5-7.2V57H86.3V94.3c0,4,.2,7.2,4.2,7.2"/>
      <path id="path4_stroke" data-name="path4 stroke" class="cls-2" d="M82,118l-1,.2a1.1,1.1,0,0,0,1.2.8,1.8,1.8,0,0,0,.7-.5ZM57,100.6l.8-.6a1.1,1.1,0,0,0-1.4-.2.9.9,0,0,0-.4.8Zm0,.9H56a.9.9,0,0,0,1,1ZM59.5,57V56a1,1,0,0,0-1,1Zm26.8,0h1a1,1,0,0,0-1-1Zm4.2,44.5.9.5a1.2,1.2,0,0,0-.4-1.4h-.5ZM70.5,118l-.8.6a1.1,1.1,0,0,0,1.4.2l.3-.4ZM75,108v-1a.9.9,0,0,0-.9.6Zm-19-7.4v.9h2v-.9Zm1,1.9a3.8,3.8,0,0,0,2.7-.8,3.3,3.3,0,0,0,1.1-2.2,21.8,21.8,0,0,0-.1-2.5,24.5,24.5,0,0,1-.2-2.7h-2a26.4,26.4,0,0,0,.2,2.9,17.9,17.9,0,0,1,.1,2.1,1.5,1.5,0,0,1-.4.9,2.2,2.2,0,0,1-1.4.3Zm3.5-8.2V57h-2V94.3ZM59.5,58H86.3V56H59.5Zm25.8-1V94.3h2V57Zm0,37.3c0,1.9,0,4,.7,5.5a3.9,3.9,0,0,0,1.6,2,5.4,5.4,0,0,0,2.9.7v-2a3.7,3.7,0,0,1-1.8-.4,2,2,0,0,1-.9-1.1,12.5,12.5,0,0,1-.5-4.7Zm-14,23.1L57.8,100l-1.6,1.2,13.5,17.4,1.6-1.2Zm2.8-9.8-4.5,10,1.8.8,4.5-10ZM82,118l1-.2h0v-.3a10.4,10.4,0,0,1-.3-1.2,35.7,35.7,0,0,0-1-3.5,16.9,16.9,0,0,0-1.5-3.6,7.1,7.1,0,0,0-1-1.4,2.2,2.2,0,0,0-1.6-.7v2l.2.2a2.5,2.5,0,0,1,.7.9,16.3,16.3,0,0,1,1.3,3.2,39.2,39.2,0,0,1,1.3,4.9h0Zm-4.5-11H75v2h2.5Zm5.4,11.5L91.4,102l-1.8-1-8.5,16.5Z"/>
      <path id="path5_fill" data-name="path5 fill" class="cls-3" d="M78.5,109H74l-3.5,8.5v10H82v-10Z"/>
      <path id="path6_fill" data-name="path6 fill" class="cls-4" d="M75.5,122,72,116.5l3.5-8.5h2l3.5,8-3.5,6,2.5,4.5H73Z"/>
      <path id="path7_stroke" data-name="path7 stroke" class="cls-2" d="M72,116.5l-.9-.4-.2.5.3.4Zm3.5,5.5.9.5.3-.5-.4-.5ZM73,126.5l-.9-.5-.8,1.5H73Zm7,0v1h1.7l-.8-1.5ZM77.5,122l-.9-.5-.3.5.3.5Zm3.5-6,.9.5.2-.4-.2-.5Zm-3.5-8,.9-.4-.2-.6h-.7Zm-2,0v-1h-.7l-.2.6Zm-4.3,9,3.5,5.5,1.6-1L72.8,116Zm3.4,4.5L72.1,126l1.8,1,2.5-4.5Zm-1.6,6h3.5v-2H73Zm3.5,0H80v-2H76.5Zm4.4-1.5-2.5-4.5-1.8,1,2.5,4.5Zm-2.5-3.5,3.5-6-1.8-1-3.5,6Zm3.5-6.9-3.5-8-1.8.8,3.5,8ZM77.5,107h-2v2h2Zm-2.9.6-3.5,8.5,1.8.8,3.5-8.5Z"/>
      <path id="path8_fill" data-name="path8 fill" class="cls-3" d="M57.5,99,59,93.5c4.2,9,10.5,12,16.5,14.5l-4,11C64.5,114.5,60.5,107,57.5,99Z"/>
      <path id="path9_stroke" data-name="path9 stroke" class="cls-2" d="M59,93.5l.9-.4a1,1,0,0,0-1.3-.5,1.2,1.2,0,0,0-.6.6ZM57.5,99l-1-.3a1.7,1.7,0,0,0,.1.7Zm14,20-.5.8a.9.9,0,0,0,1.3-.3c.1,0,.1-.1.1-.2Zm4-11,.9.3a.9.9,0,0,0-.5-1.2ZM58,93.2l-1.5,5.5,2,.6L60,93.8Zm-1.4,6.1c3,8.1,7.1,15.9,14.4,20.5l1-1.6c-6.7-4.4-10.6-11.6-13.6-19.6l-1.8.8Zm15.8,20,4-11-1.8-.6-4,11,1.8.6Zm3.5-12.2c-5.9-2.5-11.9-5.4-16-14l-1.8.8c4.4,9.4,10.9,12.5,17,15l.8-1.8Z"/>
      <path id="path10_fill" data-name="path10 fill" class="cls-3" d="M87.5,98.5l-.5-3c-1,3.5-4.5,10-10,12.5l4.5,11A29,29,0,0,0,87.5,98.5Z"/>
      <path id="path11_stroke" data-name="path11 stroke" class="cls-2" d="M87,95.5l-1-.3a1.1,1.1,0,0,1,1.3-.7,1.4,1.4,0,0,1,.7.8Zm.5,3,1-.2h-1Zm-6,20.5.8.6a1,1,0,0,1-1.4.2.5.5,0,0,1-.3-.4ZM77,108l-.9.4a1,1,0,0,1,.5-1.3ZM88,95.3l.5,3-2,.4-.5-3Zm.5,3.1a30,30,0,0,1-6.2,21.2l-1.6-1.2a28.1,28.1,0,0,0,5.8-19.8l2-.2Zm-7.9,21-4.5-11,1.8-.8,4.5,11Zm-4-12.3a17.7,17.7,0,0,0,6.3-5.6A19.2,19.2,0,0,0,86,95.2l2,.6a26.3,26.3,0,0,1-3.5,6.9,17.2,17.2,0,0,1-7.1,6.2Z"/>
      <path id="path12_fill" data-name="path12 fill" class="cls-1" d="M97.5,62.6a4.3,4.3,0,0,0,4.3-4.3h0a4.4,4.4,0,0,0-4.3-4.4H95.1v8.7Z"/>
      <path id="path13_stroke" data-name="path13 stroke" class="cls-2" d="M95.1,53.9v-1a1,1,0,0,0-1,1Zm0,8.7h-1a1,1,0,0,0,1,1Zm2.4,1a5.3,5.3,0,0,0,5.3-5.3h-2a3.3,3.3,0,0,1-3.3,3.3h0v2Zm5.3-5.3a5.4,5.4,0,0,0-5.3-5.4h0v2a3.3,3.3,0,0,1,3.3,3.3h2Zm-5.3-5.4H95.1v2h2.4v-2Zm-3.4,1v8.7h2V53.9Zm1,9.7h2.4v-2H95.1Z"/>
      <path id="path14_fill" data-name="path14 fill" class="cls-1" d="M52.7,34.2V60.7c0,21.8,15.2,29.4,19.1,30.9s11.6,2.5,16.4-1S95,83,96.6,78.2a46,46,0,0,0,1.9-13.3V34.2Z"/>
      <path id="path15_stroke" data-name="path15 stroke" class="cls-2" d="M71.8,91.6l.4-1h0Zm16.4-1-.6-.8h0Zm8.4-12.4.9.3h0Zm1.9-44h1v-1h-1Zm-46.8,0V60.7h2V34.2Zm0,26.5c0,22.4,15.6,30.3,19.8,31.8l.7-1.9C68.4,89.3,53.7,82,53.7,60.7ZM71.5,92.5c5.4,2,12.1,2.7,17.3-1.1l-1.2-1.6c-4.4,3.2-10.2,2.8-15.4.8Zm17.3-1.1c4.4-3.2,7.1-8,8.7-12.9l-1.9-.6a23.9,23.9,0,0,1-8,11.9Zm8.7-12.9a45.3,45.3,0,0,0,2-13.6h-2a40.9,40.9,0,0,1-1.9,13l1.9.6Zm2-13.6V34.2h-2V64.9Zm-1-31.7H52.7v2H98.5Z"/>
      <path id="path16_fill" data-name="path16 fill" class="cls-5" d="M64.7,49l16.1,1s-1.7.6-2.3,5.2-2.7,5.7-4.6,5.5l-7-.5s-3.4-.1-3.7-5c-.1-2.5-.2-4-.2-4.9S64,49,64.7,49Z"/>
      <path id="path17_stroke" data-name="path17 stroke" class="cls-2" d="M64.7,49v0Zm16.1,1,.3.9a1,1,0,0,0,.6-1.3,1,1,0,0,0-.9-.6v1Zm-2.3,5.2-1-.2Zm-4.6,5.5v-1h-.1Zm-7-.5v-1h0v1Zm-3.7-5h0ZM63,50.3h0Zm1.6-.3,16.1,1V49l-16-1Zm16.2,0a3,3,0,0,1-.4-1h0a.1.1,0,0,1-.1.1c-.1.1-.3.1-.4.3a2.6,2.6,0,0,0-.9.9A10.6,10.6,0,0,0,77.5,55l1.9.3a10.4,10.4,0,0,1,1.3-3.9l.4-.5h0l-.4-.9Zm-3.3,5c-.4,2.5-1,3.6-1.6,4.2a2.1,2.1,0,0,1-1.9.5l-.2,2a4.1,4.1,0,0,0,3.5-1.1c1.1-1,1.8-2.7,2.1-5.3Zm-3.6,4.7-4.2-.3H67v2h2.7l4.2.3v-2Zm-7,.5v-1h-.3l-.9-.5c-.6-.4-1.4-1.4-1.6-3.5h-2a6.8,6.8,0,0,0,2.4,5.1,4.8,4.8,0,0,0,1.5.7h.8Zm-2.7-5c-.1-2.5-.2-4-.2-4.9H62c0,.9.1,2.5.2,5ZM64,50.3v-.2h.6l.2-2a3.8,3.8,0,0,0-1.7.3,2,2,0,0,0-.8.8,2.4,2.4,0,0,0-.3,1.2Z"/>
      <path id="path18_fill" data-name="path18 fill" class="cls-2" d="M76.3,50.4c2.1.1,2.3.4,1.7,3.6l2.4-4Z"/>
      <path id="path19_stroke" data-name="path19 stroke" class="cls-2" d="M83.5,49H80.6v2h2.9Z"/>
      <path id="path20_fill" data-name="path20 fill" class="cls-5" d="M99.1,49l-16,1s1.6.6,2.3,5.2S88,60.9,90,60.7l6.9-.5s3.4-.1,3.7-5c.2-2.5.2-4,.2-4.9S99.8,49,99.1,49Z"/>
      <path id="path21_stroke" data-name="path21 stroke" class="cls-2" d="M99.1,49v1h0Zm-16,1V49a1,1,0,0,0-.9,1,1,1,0,0,0,.6.9l.4-.9Zm2.3,5.2,1-.2h0ZM90,60.7v-1h0Zm6.9-.5v-1h-.1v1Zm3.7-5h0Zm.2-4.9h0ZM99.1,48,83,49v2l16.1-1V48Zm-16,2a3.6,3.6,0,0,1-.4.9h0l.5.5a11,11,0,0,1,1.2,3.9l2-.3a11.8,11.8,0,0,0-1.6-4.7,2.4,2.4,0,0,0-.8-.9l-.5-.3h-.1l-.3,1Zm1.3,5.3c.4,2.6,1.1,4.3,2.1,5.3a4.2,4.2,0,0,0,3.6,1.1l-.2-2a2.2,2.2,0,0,1-2-.5c-.6-.6-1.2-1.7-1.5-4.2ZM90,61.7l4.2-.3,2.7-.2H97v-2H94.1l-4.2.3Zm6.9-1.5v1h.8a5.2,5.2,0,0,0,1.5-.7,6.2,6.2,0,0,0,2.4-5.1h-2c-.1,2.1-.9,3.1-1.5,3.5l-.9.5h-.3Zm4.7-4.9c.2-2.5.2-4.1.2-5h-2c0,.9,0,2.4-.2,4.9Zm.2-5a2,2,0,0,0-1.1-2,3.4,3.4,0,0,0-1.6-.3v2h.6v.2Z"/>
      <path id="path22_fill" data-name="path22 fill" class="cls-2" d="M87.5,50.4c-2,.1-2.3.4-1.6,3.6l-2.4-4Z"/>
      <path id="path23_stroke" data-name="path23 stroke" class="cls-2" d="M80,64.8a.9.9,0,0,0-1,1,1,1,0,0,0,1,1Zm2.2-5h-1a1,1,0,0,0,1,1Zm1-6a1.1,1.1,0,0,0-1-1,1,1,0,0,0-1,1ZM80,66.8h3.6v-2H80Zm3.6,0a4,4,0,0,0,4-4h-2a2,2,0,0,1-1.9,2h-.1v2Zm4-4a3.9,3.9,0,0,0-3.9-4h-.1v2a1.9,1.9,0,0,1,2,2Zm-4-4H82.2v2h1.4Zm-.4,1v-6h-2v6Z"/>
      <path id="path24_fill" data-name="path24 fill" class="cls-2" d="M72.2,53.5a1.8,1.8,0,0,1-1.8,1.7,1.8,1.8,0,0,1-1.7-1.7,1.8,1.8,0,0,1,1.7-1.8,1.8,1.8,0,0,1,1.8,1.8Z"/>
      <path id="path25_stroke" data-name="path25 stroke" class="cls-2" d="M71.2,53.5a.7.7,0,0,1-.8.7v2a2.7,2.7,0,0,0,2.8-2.7Zm-.8.7a.7.7,0,0,1-.7-.7h-2a2.8,2.8,0,0,0,2.7,2.7Zm-.7-.7a.8.8,0,0,1,.7-.8v-2a2.8,2.8,0,0,0-2.7,2.8Zm.7-.8a.7.7,0,0,1,.8.8h2a2.8,2.8,0,0,0-2.7-2.8h-.1Z"/>
      <path id="path26_stroke" data-name="path26 stroke" class="cls-2" d="M65.2,50.7a1,1,0,0,0-1,1,.9.9,0,0,0,1,1Zm10.4,2a1,1,0,0,0,1-1,1.1,1.1,0,0,0-1-1Zm-10.4,0H75.6v-2H65.2Z"/>
      <path id="path27_fill" data-name="path27 fill" class="cls-2" d="M95.3,53.5a1.8,1.8,0,0,1-1.7,1.7,1.8,1.8,0,0,1-1.8-1.7,1.8,1.8,0,0,1,1.8-1.8,1.8,1.8,0,0,1,1.7,1.8Z"/>
      <path id="path28_stroke" data-name="path28 stroke" class="cls-2" d="M94.3,53.5a.7.7,0,0,1-.7.7v2a2.7,2.7,0,0,0,2.7-2.7Zm-.7.7a.7.7,0,0,1-.8-.7h-2a2.8,2.8,0,0,0,2.8,2.7Zm-.8-.7a.9.9,0,0,1,.8-.8v-2a2.8,2.8,0,0,0-2.8,2.8Zm.8-.8a.8.8,0,0,1,.7.8h2a2.8,2.8,0,0,0-2.7-2.8Z"/>
      <path id="path29_stroke" data-name="path29 stroke" class="cls-2" d="M88.3,50.7a1,1,0,0,0-1,1,.9.9,0,0,0,1,1Zm9.2,2a.9.9,0,0,0,1-1,1,1,0,0,0-1-1Zm-9.2,0h9.2v-2H88.3Z"/>
      <path id="path30_stroke" data-name="path30 stroke" class="cls-2" d="M63,47.2a1,1,0,0,0,0,2Zm14.9,2a1,1,0,0,0,0-2ZM63,49.2H77.9v-2H63Z"/>
      <path id="path31_stroke" data-name="path31 stroke" class="cls-2" d="M85.3,47.2a1,1,0,0,0,0,2Zm13.2,2a1,1,0,0,0,0-2Zm-13.2,0H98.5v-2H85.3Z"/>
      <path id="path32_fill" data-name="path32 fill" class="cls-6" d="M106,34.3A23.5,23.5,0,0,1,95.7,27c-3.1-4.4-9-8-20.1-8-6.4,0-13.8,0-15.2,8.1-8.2-.9-10.6,5.7-10.6,9V46.4c0,3.3,2.9,13.7,2.9,13.7s6.7-2.4,6.7-11.4V45.6a4.6,4.6,0,0,1,4.5-3.8h.3s5.6.4,6.6-5v0c1,5.4,6.7,5,6.7,5h21a7.6,7.6,0,0,0,7.5-7.5Z"/>
      <path id="path33_stroke" data-name="path33 stroke" class="cls-2" d="M106,34.3h1a1,1,0,0,0-.7-1ZM95.7,27l-.8.6h0l.8-.6Zm-35.3.1v1a.9.9,0,0,0,1-.8Zm-7.7,33-.9.3a1,1,0,0,0,1.2.7h.1Zm6.7-14.5-1-.2v.2Zm4.5-3.8v-1h-.1Zm.3,0v-1h-.1Zm6.6-5h0Zm1-1.7a.9.9,0,0,0-1-1,1,1,0,0,0-1,1Zm-1,1.7h0Zm6.7,5v-1h-.1v1Zm21,0v1a1,1,0,0,0,1-1Zm0,0v-1a.9.9,0,0,0-1,1h1Zm7.5-7.5.3-1h0l-.9-.3-2.3-1.1a22.1,22.1,0,0,1-6.6-5.6l-1.6,1.3a24.3,24.3,0,0,0,7.2,6l2.6,1.3,1,.3h.1Zm-9.5-7.9C93.2,21.7,87,18,75.6,18v2c10.9,0,16.4,3.6,19.3,7.6ZM75.6,18c-3.2,0-6.8,0-9.8,1.1a8.7,8.7,0,0,0-4.1,2.7,10.5,10.5,0,0,0-2.3,5.1l1.9.4a8.6,8.6,0,0,1,1.9-4.2A7.5,7.5,0,0,1,66.4,21c2.7-1,5.9-1,9.2-1V18ZM60.5,26.1c-4.4-.5-7.4,1.1-9.2,3.3a11.2,11.2,0,0,0-2.5,6.7h2a9.3,9.3,0,0,1,2-5.4c1.4-1.7,3.7-3,7.5-2.6l.2-2Zm-11.7,10V46.4h2V36.1Zm0,10.3a20,20,0,0,0,.5,3.7c.3,1.6.6,3.1,1,4.6l1.5,5.7h0l.9-.3,1-.3h0c-.2-.5-.3-1-.5-1.5l-.9-3.9a40.8,40.8,0,0,1-1-4.5,21.1,21.1,0,0,1-.5-3.4Zm3.9,13.7.4,1h.1l1.1-.5a15.7,15.7,0,0,0,2.5-2,13.7,13.7,0,0,0,3.6-9.8h-2a11.7,11.7,0,0,1-3.1,8.4,10,10,0,0,1-2,1.6l-.9.5h0Zm7.7-11.4V46.9h-2v1.8Zm0-1.8Zm0,0V45.6h-2v1.3Zm0-1.1A3,3,0,0,1,62,43.4a6.7,6.7,0,0,1,1.9-.6v-2a8.7,8.7,0,0,0-2.8.8,5.2,5.2,0,0,0-2.6,3.8Zm3.5-3h.3v-2h-.3Zm.3-1v1h.1a2.7,2.7,0,0,0,.9,0,8.6,8.6,0,0,0,2.3-.5,6.7,6.7,0,0,0,4.3-5.4l-2-.3a4.6,4.6,0,0,1-3,3.8,5.3,5.3,0,0,1-2.5.4h0Zm7.6-5V35.1h-2v1.7Zm-2-1.7v1.7h2V35.1Zm0,1.8a6.8,6.8,0,0,0,4.4,5.4,7.4,7.4,0,0,0,3.3.5h0s.1,0,0-1v-1h-.2a5.9,5.9,0,0,1-2.3-.4,4.7,4.7,0,0,1-3.1-3.8Zm7.7,5.9h21v-2h-21Zm21-1h0Zm0,1a8.5,8.5,0,0,0,8.5-8.5h-2a6.5,6.5,0,0,1-6.5,6.5Z"/>
      <path id="path34_stroke" data-name="path34 stroke" class="cls-2" d="M54.9,52a1,1,0,0,0-.9,1.2,1,1,0,0,0,1.1.8l-.2-2Zm7.2,1a1,1,0,0,0-.2-2h0Zm-7,1,7-1-.2-2-7,1Z"/>
      <path id="path35_stroke" data-name="path35 stroke" class="cls-2" d="M72.2,72.9a1,1,0,0,0-1,1,.9.9,0,0,0,1,1Zm17.8,2a1,1,0,0,0,1-1,1.1,1.1,0,0,0-1-1Zm-17.8,0h9.2v-2H72.2Zm9.2,0H90v-2H81.4Z"/>
      <path id="path36_fill" data-name="path36 fill" class="cls-3" d="M75,73.9H87.7s-1.3,4.4-5.4,4.4S75,73.9,75,73.9Z"/>
      <path id="path37_stroke" data-name="path37 stroke" class="cls-2" d="M75,73.9v-1H73l1.2,1.6Zm12.7,0,1,.3.4-1.3H87.7Zm-5.4,4.4v0ZM75,74.9H87.7v-2H75Zm12.7-1-.9-.3h0l-.3.6a3.5,3.5,0,0,1-.8,1.3,4,4,0,0,1-3.4,1.8v2a6,6,0,0,0,5-2.6,7,7,0,0,0,1.3-2.4h.1l-1-.3Zm-5.4,3.4a7.9,7.9,0,0,1-4.6-1.9l-1.8-1.9c0-.1-.1-.1-.1-.2l-.8.6-.8.6h.2a14.5,14.5,0,0,0,2.1,2.2,8.8,8.8,0,0,0,5.8,2.4Z"/>
      <path id="path38_fill" data-name="path38 fill" class="cls-1" d="M52.1,53.9a4.3,4.3,0,0,0-4.3,4.3h0a4.3,4.3,0,0,0,4.3,4.3h2.4V53.9Z"/>
      <path id="path39_fill" data-name="path39 fill" class="cls-2" d="M54.5,63.5H52.1a5.2,5.2,0,0,1-5.2-5.2,5.2,5.2,0,0,1,5.2-5.2h2.4v1.7H52.1a3.5,3.5,0,0,0-3.5,3.5,3.5,3.5,0,0,0,3.5,3.4h2.4Z"/>
    </symbol>
  </defs>
  <title>head12</title>
  <g id="Layer_2" data-name="Layer 2">
    <g id="Layer_1-2" data-name="Layer 1">
      <use id="head12-3" data-name="head12" width="147" height="147" transform="matrix(1, 0, 0, 1, 0, 0)" xlink:href="#head12"/>
    </g>
  </g>
</svg>